<svg width="280" height="42" viewBox="0 0 280 42" fill="none" xmlns="http://www.w3.org/2000/svg">
<rect width="280" height="42" rx="4" fill="#006DF9"/>
<path d="M91.1364 19.1094C91.0668 18.8674 90.969 18.6536 90.843 18.468C90.7171 18.2791 90.563 18.12 90.3807 17.9908C90.2017 17.8582 89.9962 17.7571 89.7642 17.6875C89.5355 17.6179 89.282 17.5831 89.0036 17.5831C88.4832 17.5831 88.0258 17.7124 87.6314 17.9709C87.2403 18.2294 86.9354 18.6056 86.7166 19.0994C86.4979 19.59 86.3885 20.1899 86.3885 20.8991C86.3885 21.6084 86.4962 22.2116 86.7116 22.7088C86.9271 23.206 87.232 23.5855 87.6264 23.8473C88.0208 24.1058 88.4865 24.2351 89.0234 24.2351C89.5107 24.2351 89.9266 24.1489 90.2713 23.9766C90.6193 23.8009 90.8845 23.554 91.0668 23.2358C91.2524 22.9176 91.3452 22.5414 91.3452 22.1072L91.7827 22.1719H89.1577V20.5511H93.4183V21.8338C93.4183 22.7287 93.2294 23.4976 92.8516 24.1406C92.4737 24.7803 91.9534 25.2741 91.2905 25.6222C90.6276 25.9669 89.8686 26.1392 89.0135 26.1392C88.0589 26.1392 87.2204 25.9287 86.4979 25.5078C85.7753 25.0836 85.2119 24.482 84.8075 23.7031C84.4065 22.9209 84.206 21.9929 84.206 20.919C84.206 20.0937 84.3253 19.358 84.5639 18.7116C84.8059 18.062 85.1439 17.5118 85.5781 17.0611C86.0123 16.6103 86.5178 16.2673 87.0945 16.032C87.6712 15.7966 88.2959 15.679 88.9688 15.679C89.5455 15.679 90.0824 15.7635 90.5795 15.9325C91.0767 16.0982 91.5175 16.3336 91.902 16.6385C92.2898 16.9434 92.6063 17.3063 92.8516 17.7273C93.0968 18.1449 93.2543 18.6056 93.3239 19.1094H91.1364ZM98.4757 26.1491C97.6902 26.1491 97.014 25.9901 96.4473 25.6719C95.8838 25.3504 95.4496 24.8963 95.1447 24.3097C94.8398 23.7197 94.6873 23.022 94.6873 22.2166C94.6873 21.4311 94.8398 20.7417 95.1447 20.1484C95.4496 19.5552 95.8788 19.0928 96.4324 18.7614C96.9892 18.4299 97.6421 18.2642 98.3912 18.2642C98.8949 18.2642 99.3639 18.3454 99.7981 18.5078C100.236 18.6669 100.617 18.9072 100.942 19.2287C101.27 19.5502 101.525 19.9545 101.707 20.4418C101.89 20.9257 101.981 21.4924 101.981 22.142V22.7237H95.5325V21.4112H99.987C99.987 21.1063 99.9208 20.8362 99.7882 20.6009C99.6556 20.3655 99.4717 20.1816 99.2363 20.049C99.0043 19.9131 98.7342 19.8452 98.426 19.8452C98.1045 19.8452 97.8194 19.9197 97.5708 20.0689C97.3256 20.2147 97.1333 20.4119 96.9941 20.6605C96.8549 20.9058 96.7837 21.1792 96.7804 21.4808V22.7287C96.7804 23.1065 96.85 23.433 96.9892 23.7081C97.1317 23.9832 97.3322 24.1953 97.5907 24.3445C97.8493 24.4936 98.1558 24.5682 98.5105 24.5682C98.7458 24.5682 98.9612 24.535 99.1568 24.4688C99.3523 24.4025 99.5197 24.303 99.6589 24.1705C99.7981 24.0379 99.9042 23.8755 99.9771 23.6832L101.936 23.8125C101.836 24.2831 101.633 24.6941 101.324 25.0455C101.019 25.3935 100.625 25.6652 100.141 25.8608C99.6606 26.053 99.1054 26.1491 98.4757 26.1491ZM107.425 18.3636V19.9545H102.826V18.3636H107.425ZM103.87 16.5341H105.988V23.6534C105.988 23.849 106.018 24.0014 106.077 24.1108C106.137 24.2169 106.22 24.2914 106.326 24.3345C106.435 24.3776 106.561 24.3991 106.704 24.3991C106.803 24.3991 106.903 24.3909 107.002 24.3743C107.101 24.3544 107.178 24.3395 107.231 24.3295L107.564 25.9055C107.458 25.9387 107.309 25.9768 107.116 26.0199C106.924 26.0663 106.69 26.0945 106.415 26.1044C105.905 26.1243 105.457 26.0563 105.073 25.9006C104.692 25.7448 104.395 25.5028 104.183 25.1747C103.971 24.8466 103.867 24.4323 103.87 23.9318V16.5341ZM113.839 26H111.532L115.047 15.8182H117.821L121.331 26H119.025L116.474 18.1449H116.395L113.839 26ZM113.695 21.9979H119.144V23.6783H113.695V21.9979ZM122.557 26V15.8182H126.574C127.346 15.8182 128.004 15.9657 128.548 16.2607C129.091 16.5523 129.505 16.9583 129.79 17.4787C130.079 17.9957 130.223 18.5923 130.223 19.2685C130.223 19.9446 130.077 20.5412 129.786 21.0582C129.494 21.5753 129.071 21.978 128.518 22.2663C127.968 22.5547 127.301 22.6989 126.519 22.6989H123.959V20.9737H126.171C126.585 20.9737 126.927 20.9025 127.195 20.7599C127.467 20.6141 127.669 20.4136 127.802 20.1584C127.938 19.8999 128.006 19.6032 128.006 19.2685C128.006 18.9304 127.938 18.6354 127.802 18.3835C127.669 18.1283 127.467 17.9311 127.195 17.7919C126.924 17.6494 126.579 17.5781 126.161 17.5781H124.71V26H122.557ZM133.774 15.8182V26H131.621V15.8182H133.774ZM140.665 23.8026L140.67 21.2621H140.978L143.424 18.3636H145.855L142.569 22.2017H142.067L140.665 23.8026ZM138.746 26V15.8182H140.863V26H138.746ZM143.518 26L141.271 22.674L142.683 21.1776L145.999 26H143.518ZM150.06 26.1491C149.274 26.1491 148.598 25.9901 148.031 25.6719C147.468 25.3504 147.034 24.8963 146.729 24.3097C146.424 23.7197 146.271 23.022 146.271 22.2166C146.271 21.4311 146.424 20.7417 146.729 20.1484C147.034 19.5552 147.463 19.0928 148.016 18.7614C148.573 18.4299 149.226 18.2642 149.975 18.2642C150.479 18.2642 150.948 18.3454 151.382 18.5078C151.82 18.6669 152.201 18.9072 152.526 19.2287C152.854 19.5502 153.109 19.9545 153.291 20.4418C153.473 20.9257 153.565 21.4924 153.565 22.142V22.7237H147.116V21.4112H151.571C151.571 21.1063 151.505 20.8362 151.372 20.6009C151.24 20.3655 151.056 20.1816 150.82 20.049C150.588 19.9131 150.318 19.8452 150.01 19.8452C149.688 19.8452 149.403 19.9197 149.155 20.0689C148.91 20.2147 148.717 20.4119 148.578 20.6605C148.439 20.9058 148.368 21.1792 148.364 21.4808V22.7287C148.364 23.1065 148.434 23.433 148.573 23.7081C148.716 23.9832 148.916 24.1953 149.175 24.3445C149.433 24.4936 149.74 24.5682 150.094 24.5682C150.33 24.5682 150.545 24.535 150.741 24.4688C150.936 24.4025 151.104 24.303 151.243 24.1705C151.382 24.0379 151.488 23.8755 151.561 23.6832L153.52 23.8125C153.42 24.2831 153.217 24.6941 152.908 25.0455C152.603 25.3935 152.209 25.6652 151.725 25.8608C151.245 26.053 150.689 26.1491 150.06 26.1491ZM156.049 28.8636C155.781 28.8636 155.529 28.8421 155.294 28.799C155.061 28.7592 154.869 28.7079 154.717 28.6449L155.194 27.0639C155.443 27.1402 155.666 27.1816 155.865 27.1882C156.067 27.1948 156.241 27.1484 156.387 27.049C156.536 26.9496 156.657 26.7805 156.75 26.5419L156.874 26.2188L154.135 18.3636H156.362L157.943 23.9716H158.023L159.619 18.3636H161.861L158.893 26.8253C158.75 27.2363 158.557 27.5942 158.311 27.8991C158.069 28.2074 157.763 28.4444 157.392 28.6101C157.02 28.7791 156.573 28.8636 156.049 28.8636ZM169.298 20.5412L167.36 20.6605C167.326 20.4948 167.255 20.3456 167.146 20.2131C167.036 20.0772 166.892 19.9695 166.713 19.8899C166.538 19.8071 166.327 19.7656 166.082 19.7656C165.754 19.7656 165.477 19.8352 165.252 19.9744C165.026 20.1103 164.914 20.2926 164.914 20.5213C164.914 20.7036 164.986 20.8577 165.132 20.9837C165.278 21.1096 165.528 21.2107 165.883 21.2869L167.265 21.5653C168.008 21.7178 168.561 21.9631 168.926 22.3011C169.29 22.6392 169.472 23.0833 169.472 23.6335C169.472 24.134 169.325 24.5732 169.03 24.951C168.738 25.3288 168.337 25.6238 167.827 25.8359C167.32 26.0447 166.735 26.1491 166.072 26.1491C165.061 26.1491 164.256 25.9387 163.656 25.5178C163.059 25.0935 162.709 24.5168 162.607 23.7876L164.69 23.6783C164.753 23.9865 164.905 24.2218 165.147 24.3842C165.389 24.5433 165.699 24.6229 166.077 24.6229C166.448 24.6229 166.746 24.5516 166.972 24.4091C167.2 24.2633 167.316 24.076 167.32 23.8473C167.316 23.6551 167.235 23.4976 167.076 23.375C166.917 23.2491 166.672 23.1529 166.34 23.0866L165.018 22.8232C164.272 22.674 163.717 22.4155 163.352 22.0476C162.991 21.6797 162.811 21.2107 162.811 20.6406C162.811 20.1501 162.943 19.7275 163.208 19.3729C163.477 19.0182 163.853 18.7448 164.337 18.5526C164.824 18.3603 165.394 18.2642 166.047 18.2642C167.012 18.2642 167.771 18.468 168.324 18.8757C168.881 19.2834 169.206 19.8385 169.298 20.5412Z" fill="white"/>
<path d="M184.746 26.121L184.746 26.121L189.868 21.0001L184.746 15.8791L184.746 15.8791C184.612 15.7454 184.537 15.5641 184.537 15.3751C184.537 15.186 184.612 15.0047 184.746 14.871C184.88 14.7374 185.061 14.6623 185.25 14.6623C185.439 14.6623 185.62 14.7374 185.754 14.871L191.379 20.496L191.379 20.496L184.746 26.121ZM184.746 26.121C184.68 26.1872 184.627 26.2658 184.592 26.3523C184.556 26.4388 184.537 26.5315 184.537 26.6251C184.537 26.7187 184.556 26.8114 184.592 26.8979C184.627 26.9843 184.68 27.0629 184.746 27.1291C184.812 27.1953 184.891 27.2478 184.977 27.2836C185.064 27.3194 185.156 27.3379 185.25 27.3379C185.344 27.3379 185.436 27.3194 185.523 27.2836C185.609 27.2478 185.688 27.1953 185.754 27.1291L191.379 21.5042M184.746 26.121L191.379 21.5042M191.379 21.5042L191.379 21.5041L191.273 21.398L191.379 21.5042Z" fill="white" stroke="white" stroke-width="0.3"/>
</svg>
