<svg height="0" width="0" fill="none" viewBox="0 0 184 24" xmlns="http://www.w3.org/2000/svg"><g clip-path="url(#clip0_1717_842)"><path d="M31.9759 0H10.2829C4.60379 0 0 4.65063 0 10.3875V10.3899C0 16.1268 4.60379 20.7774 10.2829 20.7774H31.9759C37.655 20.7774 42.2588 16.1268 42.2588 10.3899V10.3875C42.2588 4.65063 37.655 0 31.9759 0Z" fill="#006DF9"></path><path d="M32.9592 7.02441C31.1218 7.02441 29.6299 8.53395 29.6299 10.3876C29.6299 12.2412 31.1242 13.7507 32.9592 13.7507C34.7941 13.7507 36.2884 12.2412 36.2884 10.3876C36.2884 8.53395 34.7941 7.02441 32.9592 7.02441V7.02441Z" fill="white"></path><path d="M10.024 7.48952C9.94484 7.36352 9.76254 7.36352 9.68339 7.48952L6.12864 13.0649C6.04229 13.2006 6.13824 13.3799 6.29894 13.3799H13.406C13.5667 13.3799 13.6627 13.2006 13.5763 13.0649L10.0216 7.48952H10.024Z" fill="white"></path><path d="M23.9669 7.26904H18.7715C18.4999 7.26904 18.2798 7.49143 18.2798 7.76576V13.014C18.2798 13.2884 18.4999 13.5107 18.7715 13.5107H23.9669C24.2385 13.5107 24.4586 13.2884 24.4586 13.014V7.76576C24.4586 7.49143 24.2385 7.26904 23.9669 7.26904Z" fill="white"></path><path d="M88.9405 12.9486C88.9405 16.9805 86.4892 19.3842 83.0975 19.3842C81.2218 19.3842 79.5884 18.6064 78.8424 17.3197V23.9976H76.2207V6.70934H78.6241L78.84 8.60414C79.586 7.31752 81.1714 6.46704 83.0951 6.46704C86.3644 6.46704 88.9382 8.77375 88.9382 12.951L88.9405 12.9486ZM86.2229 12.9486C86.2229 10.3996 84.7334 8.81979 82.5674 8.81979C80.4998 8.79556 78.9143 10.3972 78.9143 12.9728C78.9143 15.5485 80.5022 17.029 82.5674 17.029C84.6326 17.029 86.2229 15.5001 86.2229 12.9486Z" fill="#242628"></path><path d="M102.883 13.6538H93.4592C93.5072 15.9847 95.0207 17.1986 96.9444 17.1986C98.386 17.1986 99.5901 16.5178 100.094 15.1585H102.763C102.113 17.6832 99.9019 19.3842 96.8964 19.3842C93.2169 19.3842 90.7896 16.811 90.7896 12.9002C90.7896 8.98945 93.2169 6.44043 96.8724 6.44043C100.528 6.44043 102.883 8.91676 102.883 12.6579V13.6538ZM93.4832 11.8074H100.214C100.07 9.64608 98.6522 8.5533 96.8724 8.5533C95.0927 8.5533 93.6751 9.64608 93.4832 11.8074Z" fill="#242628"></path><path d="M107.525 6.70923C106.302 6.70923 105.311 7.70993 105.311 8.94567V19.1442H107.957V12.5148V9.64835C107.957 9.34063 108.204 9.08863 108.511 9.08863H112.55V6.70923H107.527H107.525Z" fill="#242628"></path><path d="M71.9917 6.68506L68.6024 17.0071L64.9469 6.70929H62.1094L66.7963 18.9746C66.9402 19.3623 67.0121 19.6797 67.0121 19.9947C67.0121 20.1667 66.9953 20.3242 66.9666 20.4696L66.9594 20.4963C66.9426 20.5738 66.9234 20.6465 66.8994 20.7168L66.7219 21.3734C66.6787 21.5357 66.5324 21.6472 66.3669 21.6472H62.6371V24.0024H65.3547C67.1824 24.0024 68.696 23.5662 69.5619 21.1359L74.7309 6.70929L71.9893 6.68506H71.9917Z" fill="#242628"></path><path d="M49.6079 19.1418H52.2272V12.4398C52.2272 10.3511 53.3569 8.8949 55.4485 8.8949C57.2763 8.87067 58.406 9.96346 58.406 12.3671V19.1418H61.0277V11.9528C61.0277 7.70278 58.4564 6.44039 56.1225 6.44039C54.3428 6.44039 52.9492 7.14548 52.2272 8.31096V1.60889H49.6079V19.1418Z" fill="#242628"></path><path d="M116.011 15.3789C116.035 16.6655 117.213 17.4191 118.825 17.4191C120.436 17.4191 121.396 16.8109 121.396 15.7181C121.396 14.7707 120.916 14.2619 119.52 14.0414L117.045 13.6053C114.641 13.1933 113.703 11.9285 113.703 10.1573C113.703 7.92327 115.891 6.46704 118.681 6.46704C121.686 6.46704 123.874 7.92328 123.898 10.402H121.302C121.278 9.13963 120.197 8.43453 118.683 8.43453C117.169 8.43453 116.328 9.04271 116.328 10.0628C116.328 10.9617 116.954 11.3737 118.323 11.616L120.751 12.0521C123.034 12.464 124.092 13.6053 124.092 15.4758C124.092 18.0491 121.736 19.3866 118.875 19.3866C115.63 19.3866 113.442 17.8092 113.394 15.3789H116.016H116.011Z" fill="#242628"></path><path d="M130.05 16.2293L132.839 6.70923H135.581L138.323 16.2293L140.654 6.70923H143.42L139.935 19.1442H136.977L134.188 9.67258L131.374 19.1442H128.392L124.883 6.70923H127.649L130.052 16.2293H130.05Z" fill="#242628"></path><path d="M144.958 1.60889H147.867V4.3784H144.958V1.60889ZM145.101 6.70934H147.721V19.1443H145.101V6.70934Z" fill="#242628"></path><path d="M164.381 8.7496C162.338 8.7496 160.944 10.2543 160.944 12.9027C160.944 15.6964 162.386 17.0557 164.309 17.0557C165.847 17.0557 166.979 16.181 167.483 14.5309H170.272C169.646 17.5427 167.387 19.3891 164.357 19.3891C160.704 19.3891 158.25 16.8158 158.25 12.9051C158.25 8.99433 160.702 6.44531 164.381 6.44531C167.387 6.44531 169.622 8.1705 170.272 11.1799H167.435C167.003 9.62674 165.823 8.75203 164.381 8.75203V8.7496Z" fill="#242628"></path><path d="M154.199 16.7867C154.046 16.7867 153.923 16.6607 153.923 16.508V9.06453H156.785V6.70935H153.923V3.38013H151.304V5.54146C151.304 6.31925 151.064 6.70693 150.294 6.70693H149.236V9.06211H151.304V15.7642C151.304 17.9255 152.482 19.1394 154.621 19.1394H156.761V16.7843H154.201L154.199 16.7867Z" fill="#242628"></path><path d="M178.749 6.44039C176.969 6.44039 175.576 7.14548 174.854 8.31096V1.60889H172.234V19.1418H174.854V12.4398C174.854 10.3511 175.983 8.8949 178.075 8.8949C179.903 8.87067 181.032 9.96346 181.032 12.3671V19.1418H183.654V11.9528C183.654 7.70278 181.083 6.44039 178.749 6.44039Z" fill="#242628"></path></g><defs><clipPath id="clip0_1717_842"><rect height="24" width="183.652" fill="white"></rect></clipPath></defs></svg>
