<svg width="540" height="103" viewBox="0 0 540 103" fill="none" xmlns="http://www.w3.org/2000/svg">
<g clip-path="url(#clip0_1484_2488)">
<path d="M413.393 100.636C412.67 100.656 411.967 100.596 411.245 100.495C409.297 100.213 407.469 99.5893 405.783 98.5625C402.048 96.3077 399.658 93.026 398.674 88.7176C398.453 87.7512 398.353 86.7647 398.353 85.7782C398.333 81.8321 399.618 78.3693 402.228 75.4299C404.497 72.8931 407.309 71.3429 410.622 70.6986C411.546 70.5175 412.469 70.4168 413.393 70.4571V74.9668C413.353 74.9869 413.313 75.0071 413.273 75.0473C412.731 75.4299 412.188 75.8325 411.666 76.2553C410.481 77.2217 409.357 78.2485 408.413 79.4766C407.148 81.1073 406.305 82.8992 406.184 85.0131C406.124 86.0198 406.244 87.0063 406.566 87.9525C407.349 90.3081 409.779 92.7441 413.192 92.8045C413.393 92.8045 413.433 92.8448 413.433 93.0663C413.413 94.093 413.413 96.1466 413.413 96.1466V96.3278C413.393 97.7572 413.393 99.1867 413.393 100.636Z" fill="#0099FF"/>
<path d="M413.394 74.9464V70.4367C414.217 70.4165 415.021 70.4971 415.824 70.6179C417.33 70.8595 418.776 71.3024 420.141 72.007C422.972 73.4767 425.201 75.5706 426.707 78.4294C427.571 80.0803 428.133 81.8319 428.354 83.664C428.615 85.8182 428.414 87.9523 427.772 90.026C427.029 92.3815 425.784 94.4552 424.037 96.2067C421.908 98.3207 419.378 99.6897 416.446 100.314C415.442 100.515 414.418 100.636 413.394 100.616V96.2873V96.1262C413.394 96.1262 413.454 96.086 413.474 96.0658C415.041 94.9585 416.527 93.7505 417.812 92.301C418.655 91.3547 419.378 90.3481 419.88 89.1804C420.583 87.5295 420.864 85.8383 420.503 84.0465C419.86 80.785 416.948 78.3489 413.595 78.2684C413.374 78.2684 413.394 78.0872 413.394 78.0872V74.9464Z" fill="#0561E2"/>
<path d="M445.225 74.6642V90.1262C445.225 90.9718 445.084 91.7771 444.823 92.5623C444.562 93.3475 444.14 94.032 443.618 94.636C443.076 95.24 442.413 95.703 441.61 96.0654C440.807 96.4077 439.863 96.5889 438.819 96.5889C437.132 96.5889 435.747 96.1862 434.682 95.401C433.598 94.6159 432.895 93.3676 432.554 91.6563L436.108 90.8108C436.228 91.5154 436.51 92.0791 436.971 92.5019C437.413 92.9247 437.975 93.126 438.638 93.126C439.722 93.126 440.465 92.7636 440.847 92.0187C441.229 91.2939 441.429 90.2672 441.429 88.9787V74.6642H445.225ZM452.775 74.6642V88.0727C452.775 88.5961 452.855 89.1397 453.016 89.7236C453.177 90.2873 453.438 90.8309 453.819 91.3141C454.181 91.7973 454.683 92.1999 455.305 92.5019C455.907 92.824 456.671 92.965 457.574 92.965C458.478 92.965 459.241 92.8039 459.843 92.5019C460.446 92.1999 460.948 91.7973 461.329 91.3141C461.691 90.8309 461.972 90.3074 462.132 89.7236C462.293 89.1397 462.373 88.5961 462.373 88.0727V74.6642H466.169V88.1935H466.149C466.149 89.482 465.928 90.6497 465.486 91.6765C465.044 92.7234 464.442 93.5891 463.679 94.3139C462.916 95.0387 462.012 95.6024 460.968 95.9849C459.924 96.3876 458.779 96.5688 457.554 96.5688C456.329 96.5688 455.185 96.3674 454.16 95.9849C453.116 95.6024 452.213 95.0387 451.43 94.3139C450.646 93.5891 450.044 92.7032 449.622 91.6765C449.18 90.6497 448.98 89.482 448.98 88.1935V74.6642H452.775ZM477.213 74.1206C478.338 74.1206 479.422 74.3018 480.486 74.6239C481.53 74.9662 482.494 75.5299 483.338 76.3151L480.526 79.2545C480.125 78.6706 479.583 78.2478 478.92 77.966C478.237 77.6841 477.534 77.5633 476.791 77.5633C476.35 77.5633 475.928 77.6237 475.506 77.7244C475.084 77.8251 474.723 77.9861 474.402 78.2076C474.06 78.429 473.799 78.7109 473.599 79.0733C473.398 79.4357 473.297 79.8383 473.297 80.3215C473.297 81.0463 473.538 81.61 474.06 81.9724C474.562 82.3549 475.185 82.6972 475.928 82.9589C476.671 83.2408 477.474 83.5227 478.358 83.7844C479.241 84.0461 480.044 84.4085 480.807 84.8716C481.55 85.3346 482.173 85.9587 482.675 86.7036C483.177 87.4687 483.438 88.4955 483.438 89.7437C483.438 90.8913 483.237 91.8979 482.816 92.7435C482.394 93.6092 481.832 94.3139 481.109 94.8776C480.386 95.4413 479.562 95.8641 478.619 96.146C477.675 96.4278 476.671 96.5688 475.647 96.5688C474.321 96.5688 473.036 96.3473 471.831 95.9044C470.607 95.4614 469.542 94.7165 468.659 93.6696L471.53 90.8913C471.992 91.5959 472.594 92.1395 473.358 92.5422C474.121 92.9448 474.904 93.126 475.747 93.126C476.189 93.126 476.631 93.0656 477.072 92.9448C477.514 92.824 477.916 92.6428 478.277 92.4012C478.639 92.1597 478.92 91.8577 479.141 91.4751C479.362 91.1127 479.482 90.6698 479.482 90.1866C479.482 89.4015 479.221 88.7975 478.719 88.3747C478.217 87.9519 477.595 87.5895 476.852 87.3076C476.109 87.0258 475.285 86.7439 474.402 86.4822C473.518 86.2205 472.695 85.8581 471.972 85.4151C471.229 84.9722 470.607 84.3682 470.104 83.6032C469.602 82.8381 469.341 81.8315 469.341 80.5631C469.341 79.4558 469.562 78.5096 470.024 77.7043C470.466 76.8989 471.068 76.2346 471.811 75.691C472.534 75.1675 473.378 74.7649 474.321 74.5031C475.265 74.2414 476.229 74.1206 477.213 74.1206ZM522.756 74.6642L527.997 83.1804L533.298 74.6642H537.816L529.804 86.905V96.0654H526.009V86.905L517.997 74.6642H522.756ZM493.78 74.6642C494.804 74.6642 495.788 74.7649 496.751 74.9662C497.695 75.1675 498.539 75.5098 499.262 75.9728C499.984 76.456 500.567 77.0801 500.989 77.8653C501.41 78.6706 501.631 79.6571 501.631 80.845C501.631 82.1939 501.39 83.2811 500.928 84.1065C500.466 84.932 499.844 85.5762 499.061 86.0191C498.278 86.4621 497.374 86.7842 496.33 86.9452C495.286 87.1063 494.221 87.1868 493.097 87.1868H490.386V96.0453H486.591V74.6642H493.78ZM512.194 74.6642L521.39 96.0453H517.053L515.065 91.153H505.828L503.9 96.0453H499.643L508.92 74.6642H512.194ZM510.446 79.1941L507.113 87.8915H513.74L510.446 79.1941ZM493.097 77.9257H490.386V83.9454H492.695C493.237 83.9454 493.8 83.9253 494.382 83.885C494.964 83.8448 495.506 83.724 495.988 83.5227C496.47 83.3213 496.872 83.0193 497.193 82.6167C497.494 82.214 497.655 81.6503 497.655 80.9255C497.655 80.2611 497.515 79.7377 497.233 79.335C496.952 78.9324 496.591 78.6304 496.149 78.429C495.707 78.2076 495.205 78.0868 494.663 78.0264C494.121 77.966 493.599 77.9257 493.097 77.9257Z" fill="white"/>
</g>
<path d="M377.022 95.8446C376.683 95.8446 376.374 95.8167 376.096 95.7611C375.818 95.7105 375.611 95.6549 375.474 95.5942L376.02 93.7357C376.435 93.847 376.804 93.895 377.128 93.8798C377.451 93.8647 377.737 93.7433 377.985 93.5157C378.238 93.2881 378.46 92.9164 378.652 92.4006L378.933 91.6268L374.67 79.8232H377.097L380.048 88.8656H380.17L383.121 79.8232H385.556L380.754 93.0302C380.531 93.6371 380.248 94.1504 379.904 94.5701C379.56 94.9949 379.151 95.3136 378.675 95.526C378.2 95.7384 377.649 95.8446 377.022 95.8446Z" fill="#A9A9A9"/>
<path d="M363.436 91.4753V75.9395H365.704V81.7123H365.84C365.972 81.4695 366.161 81.1889 366.409 80.8703C366.657 80.5517 367.001 80.2735 367.441 80.0358C367.881 79.7931 368.462 79.6717 369.186 79.6717C370.126 79.6717 370.966 79.9094 371.704 80.3848C372.442 80.8601 373.022 81.5454 373.441 82.4405C373.866 83.3357 374.078 84.4129 374.078 85.6721C374.078 86.9314 373.869 88.0111 373.449 88.9113C373.029 89.8064 372.453 90.4967 371.719 90.9822C370.986 91.4626 370.149 91.7029 369.208 91.7029C368.5 91.7029 367.921 91.584 367.471 91.3463C367.026 91.1086 366.677 90.8305 366.424 90.5119C366.172 90.1933 365.977 89.9101 365.84 89.6623H365.651V91.4753H363.436ZM365.658 85.6493C365.658 86.4686 365.777 87.1867 366.015 87.8037C366.252 88.4207 366.596 88.9037 367.046 89.2526C367.497 89.5965 368.048 89.7685 368.7 89.7685C369.378 89.7685 369.944 89.5889 370.399 89.2299C370.855 88.8657 371.198 88.3727 371.431 87.7506C371.669 87.1286 371.788 86.4282 371.788 85.6493C371.788 84.8806 371.671 84.1903 371.439 83.5784C371.211 82.9665 370.867 82.4835 370.407 82.1295C369.952 81.7755 369.383 81.5985 368.7 81.5985C368.043 81.5985 367.486 81.7679 367.031 82.1068C366.581 82.4456 366.24 82.9184 366.007 83.5253C365.775 84.1322 365.658 84.8402 365.658 85.6493Z" fill="#A9A9A9"/>
<path d="M349.871 91.7029C348.93 91.7029 348.091 91.4626 347.353 90.9822C346.619 90.4967 346.043 89.8064 345.623 88.9113C345.208 88.0111 345.001 86.9314 345.001 85.6721C345.001 84.4129 345.211 83.3357 345.631 82.4405C346.055 81.5454 346.637 80.8601 347.375 80.3848C348.114 79.9094 348.951 79.6717 349.886 79.6717C350.609 79.6717 351.191 79.7931 351.631 80.0358C352.076 80.2735 352.42 80.5517 352.663 80.8703C352.91 81.1889 353.103 81.4695 353.239 81.7123H353.376V75.9395H355.644V91.4753H353.429V89.6623H353.239C353.103 89.9101 352.905 90.1933 352.648 90.5119C352.395 90.8305 352.046 91.1086 351.601 91.3463C351.156 91.584 350.579 91.7029 349.871 91.7029ZM350.372 89.7685C351.024 89.7685 351.575 89.5965 352.025 89.2526C352.481 88.9037 352.825 88.4207 353.057 87.8037C353.295 87.1867 353.414 86.4686 353.414 85.6493C353.414 84.8402 353.297 84.1322 353.065 83.5253C352.832 82.9184 352.491 82.4456 352.041 82.1068C351.591 81.7679 351.034 81.5985 350.372 81.5985C349.689 81.5985 349.12 81.7755 348.665 82.1295C348.21 82.4835 347.866 82.9665 347.633 83.5784C347.406 84.1903 347.292 84.8806 347.292 85.6493C347.292 86.4282 347.408 87.1286 347.641 87.7506C347.873 88.3727 348.217 88.8657 348.673 89.2299C349.133 89.5889 349.699 89.7685 350.372 89.7685Z" fill="#A9A9A9"/>
<path d="M338.634 91.7106C337.486 91.7106 336.497 91.4653 335.668 90.9748C334.844 90.4792 334.207 89.7838 333.756 88.8887C333.311 87.9885 333.089 86.9341 333.089 85.7254C333.089 84.5319 333.311 83.48 333.756 82.5697C334.207 81.6594 334.834 80.9488 335.638 80.438C336.447 79.9273 337.393 79.6719 338.475 79.6719C339.132 79.6719 339.769 79.7806 340.386 79.9981C341.003 80.2155 341.557 80.5569 342.048 81.0222C342.538 81.4874 342.925 82.0918 343.208 82.8352C343.492 83.5735 343.633 84.4712 343.633 85.5282V86.3323H334.371V84.633H341.411C341.411 84.0363 341.289 83.5078 341.046 83.0476C340.804 82.5823 340.462 82.2157 340.022 81.9476C339.587 81.6796 339.077 81.5456 338.49 81.5456C337.853 81.5456 337.296 81.7024 336.821 82.0159C336.351 82.3244 335.987 82.729 335.729 83.2296C335.476 83.7252 335.349 84.2638 335.349 84.8454V86.173C335.349 86.9518 335.486 87.6143 335.759 88.1604C336.037 88.7066 336.424 89.1238 336.92 89.4121C337.415 89.6953 337.994 89.8369 338.657 89.8369C339.087 89.8369 339.479 89.7762 339.833 89.6549C340.187 89.5284 340.493 89.3413 340.751 89.0935C341.009 88.8457 341.206 88.5397 341.342 88.1756L343.489 88.5625C343.317 89.1946 343.009 89.7484 342.564 90.2238C342.124 90.6941 341.57 91.0608 340.902 91.3237C340.24 91.5817 339.484 91.7106 338.634 91.7106Z" fill="#A9A9A9"/>
<path d="M326.473 91.4753V79.8234H328.665V81.6743H328.786C328.999 81.0473 329.373 80.5542 329.909 80.1951C330.45 79.831 331.062 79.6489 331.745 79.6489C331.886 79.6489 332.053 79.654 332.245 79.6641C332.443 79.6742 332.597 79.6869 332.708 79.702V81.8716C332.617 81.8463 332.455 81.8185 332.223 81.7881C331.99 81.7527 331.757 81.735 331.525 81.735C330.989 81.735 330.511 81.8488 330.091 82.0764C329.676 82.2989 329.348 82.6099 329.105 83.0095C328.862 83.4039 328.741 83.854 328.741 84.3597V91.4753H326.473Z" fill="#A9A9A9"/>
<path d="M319.598 91.7106C318.45 91.7106 317.461 91.4653 316.632 90.9748C315.808 90.4792 315.17 89.7838 314.72 88.8887C314.275 87.9885 314.053 86.9341 314.053 85.7254C314.053 84.5319 314.275 83.48 314.72 82.5697C315.17 81.6594 315.797 80.9488 316.602 80.438C317.411 79.9273 318.356 79.6719 319.439 79.6719C320.096 79.6719 320.733 79.7806 321.35 79.9981C321.967 80.2155 322.521 80.5569 323.012 81.0222C323.502 81.4874 323.889 82.0918 324.172 82.8352C324.455 83.5735 324.597 84.4712 324.597 85.5282V86.3323H315.335V84.633H322.374C322.374 84.0363 322.253 83.5078 322.01 83.0476C321.768 82.5823 321.426 82.2157 320.986 81.9476C320.551 81.6796 320.041 81.5456 319.454 81.5456C318.817 81.5456 318.26 81.7024 317.785 82.0159C317.315 82.3244 316.951 82.729 316.693 83.2296C316.44 83.7252 316.313 84.2638 316.313 84.8454V86.173C316.313 86.9518 316.45 87.6143 316.723 88.1604C317.001 88.7066 317.388 89.1238 317.884 89.4121C318.379 89.6953 318.958 89.8369 319.621 89.8369C320.051 89.8369 320.443 89.7762 320.797 89.6549C321.151 89.5284 321.457 89.3413 321.714 89.0935C321.972 88.8457 322.17 88.5397 322.306 88.1756L324.453 88.5625C324.281 89.1946 323.973 89.7484 323.527 90.2238C323.087 90.6941 322.534 91.0608 321.866 91.3237C321.204 91.5817 320.448 91.7106 319.598 91.7106Z" fill="#A9A9A9"/>
<path d="M300.47 91.4751L297.041 79.8232H299.385L301.668 88.3801H301.782L304.073 79.8232H306.417L308.693 88.3422H308.807L311.075 79.8232H313.419L309.998 91.4751H307.684L305.317 83.0624H305.143L302.776 91.4751H300.47Z" fill="#A9A9A9"/>
<path d="M290.975 91.7106C289.883 91.7106 288.93 91.4603 288.116 90.9596C287.301 90.459 286.669 89.7585 286.219 88.8583C285.769 87.9582 285.544 86.9063 285.544 85.7026C285.544 84.4939 285.769 83.437 286.219 82.5317C286.669 81.6265 287.301 80.9235 288.116 80.4229C288.93 79.9222 289.883 79.6719 290.975 79.6719C292.068 79.6719 293.021 79.9222 293.835 80.4229C294.649 80.9235 295.282 81.6265 295.732 82.5317C296.182 83.437 296.407 84.4939 296.407 85.7026C296.407 86.9063 296.182 87.9582 295.732 88.8583C295.282 89.7585 294.649 90.459 293.835 90.9596C293.021 91.4603 292.068 91.7106 290.975 91.7106ZM290.983 89.8066C291.691 89.8066 292.278 89.6195 292.743 89.2452C293.208 88.871 293.552 88.3728 293.775 87.7508C294.002 87.1288 294.116 86.4435 294.116 85.695C294.116 84.9516 294.002 84.2689 293.775 83.6469C293.552 83.0198 293.208 82.5166 292.743 82.1373C292.278 81.758 291.691 81.5683 290.983 81.5683C290.27 81.5683 289.678 81.758 289.208 82.1373C288.743 82.5166 288.396 83.0198 288.169 83.6469C287.946 84.2689 287.835 84.9516 287.835 85.695C287.835 86.4435 287.946 87.1288 288.169 87.7508C288.396 88.3728 288.743 88.871 289.208 89.2452C289.678 89.6195 290.27 89.8066 290.983 89.8066Z" fill="#A9A9A9"/>
<path d="M273.524 95.8449V79.8236H275.739V81.7125H275.929C276.061 81.4697 276.25 81.189 276.498 80.8704C276.746 80.5518 277.09 80.2737 277.53 80.036C277.97 79.7932 278.551 79.6719 279.274 79.6719C280.215 79.6719 281.055 79.9096 281.793 80.3849C282.531 80.8603 283.11 81.5456 283.53 82.4407C283.955 83.3358 284.167 84.413 284.167 85.6723C284.167 86.9315 283.957 88.0113 283.538 88.9114C283.118 89.8066 282.541 90.4969 281.808 90.9824C281.075 91.4628 280.238 91.703 279.297 91.703C278.589 91.703 278.01 91.5842 277.56 91.3465C277.115 91.1088 276.766 90.8307 276.513 90.5121C276.26 90.1935 276.066 89.9102 275.929 89.6624H275.793V95.8449H273.524ZM275.747 85.6495C275.747 86.4688 275.866 87.1869 276.104 87.8039C276.341 88.4209 276.685 88.9039 277.135 89.2528C277.585 89.5967 278.137 89.7686 278.789 89.7686C279.467 89.7686 280.033 89.5891 280.488 89.2301C280.943 88.8659 281.287 88.3728 281.52 87.7508C281.758 87.1288 281.876 86.4283 281.876 85.6495C281.876 84.8808 281.76 84.1905 281.527 83.5786C281.3 82.9667 280.956 82.4837 280.496 82.1297C280.041 81.7757 279.472 81.5987 278.789 81.5987C278.132 81.5987 277.575 81.7681 277.12 82.1069C276.67 82.4458 276.329 82.9186 276.096 83.5255C275.863 84.1324 275.747 84.8404 275.747 85.6495Z" fill="#A9A9A9"/>
<path d="M266.571 32.9729C266.571 44.125 259.583 50.7735 249.914 50.7735C244.567 50.7735 239.911 48.6221 237.784 45.0633V63.5341H230.311V15.7151H237.162L237.777 20.9561C239.904 17.3973 244.424 15.0449 249.907 15.0449C259.227 15.0449 266.564 21.4253 266.564 32.9796L266.571 32.9729ZM258.824 32.9729C258.824 25.9223 254.578 21.5526 248.403 21.5526C242.509 21.4856 237.989 25.9156 237.989 33.0399C237.989 40.1641 242.516 44.2591 248.403 44.2591C254.29 44.2591 258.824 40.0301 258.824 32.9729Z" fill="white"/>
<path d="M306.324 34.9231H279.459C279.596 41.3705 283.91 44.7282 289.394 44.7282C293.504 44.7282 296.936 42.845 298.372 39.0851H305.982C304.129 46.0686 297.825 50.7735 289.257 50.7735C278.768 50.7735 271.849 43.6559 271.849 32.8388C271.849 22.0217 278.768 14.9712 289.189 14.9712C299.61 14.9712 306.324 21.8207 306.324 32.1686V34.9231V34.9231ZM279.527 29.8162H298.714C298.304 23.838 294.263 20.8154 289.189 20.8154C284.115 20.8154 280.074 23.838 279.527 29.8162Z" fill="white"/>
<path d="M319.549 15.7188C316.062 15.7188 313.238 18.4867 313.238 21.9047V50.1136H320.78V31.7768V23.8483C320.78 22.9972 321.485 22.3001 322.36 22.3001H333.874V15.7188H319.556H319.549Z" fill="white"/>
<path d="M218.26 15.6538L208.599 44.2045L198.178 15.7208H190.089L203.45 49.6465C203.86 50.7188 204.065 51.5968 204.065 52.4681C204.065 52.9439 204.017 53.3795 203.935 53.7817L203.915 53.8554C203.867 54.0699 203.812 54.2709 203.744 54.4653L203.238 56.2815C203.115 56.7306 202.698 57.0389 202.226 57.0389H191.593V63.5532H199.34C204.551 63.5532 208.865 62.3469 211.334 55.6247L226.069 15.7208L218.253 15.6538H218.26Z" fill="white"/>
<path d="M154.45 50.1067H161.917V31.5689C161.917 25.7918 165.138 21.7638 171.1 21.7638C176.31 21.6968 179.531 24.7194 179.531 31.3679V50.1067H187.004V30.2218C187.004 18.4665 179.674 14.9747 173.021 14.9747C167.948 14.9747 163.975 16.925 161.917 20.1487V1.61084H154.45V50.1067V50.1067Z" fill="white"/>
<path d="M343.752 39.695C343.82 43.2538 347.178 45.3381 351.773 45.3381C356.367 45.3381 359.103 43.6559 359.103 40.6333C359.103 38.0128 357.735 36.6054 353.755 35.9955L346.699 34.7891C339.848 33.6498 337.174 30.1513 337.174 25.2521C337.174 19.0728 343.41 15.0449 351.362 15.0449C359.93 15.0449 366.166 19.0728 366.234 25.929H358.836C358.767 22.4373 355.684 20.487 351.369 20.487C347.055 20.487 344.654 22.1692 344.654 24.9907C344.654 27.4772 346.439 28.6165 350.343 29.2867L357.263 30.4931C363.773 31.6325 366.788 34.7891 366.788 39.9631C366.788 47.0806 360.073 50.7802 351.916 50.7802C342.665 50.7802 336.429 46.4171 336.292 39.695H343.766H343.752Z" fill="white"/>
<path d="M383.775 42.0505L391.727 15.7183H399.543L407.358 42.0505L414.005 15.7183H421.889L411.953 50.1131H403.523L395.57 23.9148L387.55 50.1131H379.05L369.047 15.7183H376.931L383.782 42.0505H383.775Z" fill="white"/>
<path d="M426.269 1.60986H434.563V9.27029H426.269V1.60986ZM426.679 15.7176H434.146V50.1125H426.679V15.7176Z" fill="white"/>
<path d="M481.638 21.3629C475.813 21.3629 471.84 25.5249 471.84 32.8502C471.84 40.5776 475.949 44.3375 481.433 44.3375C485.816 44.3375 489.043 41.918 490.479 37.3539H498.432C496.647 45.6846 490.206 50.7915 481.57 50.7915C471.156 50.7915 464.161 43.674 464.161 32.8569C464.161 22.0398 471.149 14.9893 481.638 14.9893C490.206 14.9893 496.579 19.7611 498.432 28.085H490.343C489.112 23.789 485.748 21.3696 481.638 21.3696V21.3629Z" fill="white"/>
<path d="M452.618 43.5926C452.18 43.5926 451.832 43.2441 451.832 42.8219V22.2332H459.989V15.7188H451.832V6.51025H444.365V12.4885C444.365 14.6398 443.681 15.7121 441.486 15.7121H438.471V22.2265H444.365V40.7643C444.365 46.7426 447.722 50.1003 453.821 50.1003H459.921V43.5859H452.625L452.618 43.5926Z" fill="white"/>
<path d="M522.594 14.9747C517.52 14.9747 513.547 16.925 511.489 20.1487V1.61084H504.022V50.1067H511.489V31.5689C511.489 25.7918 514.71 21.7638 520.672 21.7638C525.883 21.6968 529.103 24.7194 529.103 31.3679V50.1067H536.577V30.2218C536.577 18.4665 529.247 14.9747 522.594 14.9747V14.9747Z" fill="white"/>
<path d="M99.661 0H31.467C14.0882 0 0 14.1622 0 31.6322C0 49.1022 14.0882 63.2644 31.467 63.2644H99.661C117.04 63.2644 131.128 49.1022 131.128 31.6322C131.128 14.1622 117.04 0 99.661 0Z" fill="#0070FF"/>
<path d="M102.945 41.6438C108.442 41.6438 112.899 37.1642 112.899 31.6383C112.899 26.1124 108.442 21.6328 102.945 21.6328C97.4484 21.6328 92.9922 26.1124 92.9922 31.6383C92.9922 37.1642 97.4484 41.6438 102.945 41.6438Z" fill="white"/>
<path d="M39.1028 39.4306L28.6927 23.1804C28.4583 22.8149 27.9273 22.8149 27.6928 23.1804L17.2828 39.4306C17.0268 39.8273 17.3115 40.3515 17.7827 40.3515H38.6029C39.0741 40.3515 39.3588 39.8273 39.1028 39.4306V39.4306Z" fill="white"/>
<path d="M73.802 22.3906H57.3377C56.8092 22.3906 56.3809 22.8213 56.3809 23.3525V39.9032C56.3809 40.4344 56.8092 40.8651 57.3377 40.8651H73.802C74.3304 40.8651 74.7588 40.4344 74.7588 39.9032V23.3525C74.7588 22.8213 74.3304 22.3906 73.802 22.3906Z" fill="white"/>
<defs>
<clipPath id="clip0_1484_2488">
<rect width="140.853" height="33.2142" fill="white" transform="translate(398.348 69.228)"/>
</clipPath>
</defs>
</svg>
