<svg width="545" height="58" viewBox="0 0 545 58" fill="none" xmlns="http://www.w3.org/2000/svg">
<path fill-rule="evenodd" clip-rule="evenodd" d="M27.2375 54.3079C25.9366 54.3441 24.6718 54.2355 23.3708 54.0545C19.8655 53.5477 16.577 52.4255 13.5414 50.5792C6.81987 46.5246 2.51952 40.6238 0.748782 32.8766C0.35127 31.139 0.170583 29.3651 0.170583 27.5912C0.134446 20.4957 2.44724 14.2691 7.1451 8.98363C11.2286 4.42224 16.2879 1.63472 22.2505 0.476271C23.9129 0.150457 25.5752 -0.0305508 27.2375 0.0418522C27.2375 2.75697 27.2375 5.43588 27.2375 8.15099C27.1652 8.18719 27.093 8.2234 27.0207 8.2958C26.045 8.98363 25.0693 9.70766 24.1297 10.4679C21.9976 12.2056 19.9739 14.0518 18.2754 16.2601C15.9988 19.1925 14.481 22.4144 14.2642 26.2156C14.1558 28.0256 14.3726 29.7995 14.9508 31.501C16.3601 35.7366 20.7328 40.1169 26.8761 40.2255C27.2375 40.2255 27.3098 40.298 27.3098 40.6962C27.2736 42.5424 27.2736 46.235 27.2736 46.235C27.2736 46.235 27.2736 46.4522 27.2736 46.5608C27.2375 49.1311 27.2375 51.7014 27.2375 54.3079Z" fill="#0099FF"/>
<path fill-rule="evenodd" clip-rule="evenodd" d="M27.2368 8.11469C27.2368 8.11469 27.2368 2.72066 27.2368 0.00554404C28.7184 -0.0306575 30.1639 0.114149 31.6094 0.331358C34.3197 0.765776 36.9216 1.56221 39.379 2.82926C44.4743 5.47197 48.4856 9.23693 51.1959 14.3775C52.7498 17.3461 53.7617 20.4956 54.1592 23.7899C54.6289 27.6635 54.2676 31.5009 53.1112 35.2296C51.7741 39.4652 49.5336 43.194 46.3896 46.3435C42.5591 50.1447 38.0057 52.6064 32.7297 53.7286C30.9228 54.0906 29.0798 54.3078 27.2368 54.2716C27.2368 51.6651 27.2368 49.0948 27.2368 46.4883C27.2368 46.3797 27.2368 46.1987 27.2368 46.1987C27.2368 46.1987 27.3452 46.1263 27.3813 46.0901C30.2001 44.099 32.8742 41.9269 35.187 39.3204C36.7048 37.6189 38.0057 35.8088 38.9092 33.7092C40.174 30.7406 40.6799 27.6997 40.0294 24.4778C38.873 18.6131 33.6331 14.2327 27.5982 14.0879C27.2007 14.0879 27.2368 13.7621 27.2368 13.7621V8.11469Z" fill="#0561E2"/>
<path d="M89.2508 35.5966C89.2508 37.0921 89.0055 38.5164 88.55 39.9051C88.0944 41.2937 87.3586 42.5044 86.4475 43.5726C85.5013 44.6408 84.3449 45.4598 82.9432 46.1007C81.5415 46.7061 79.8945 47.0265 78.0723 47.0265C75.1288 47.0265 72.7109 46.3144 70.8536 44.9257C68.9614 43.537 67.7349 41.3293 67.1392 38.3027L73.3416 36.8072C73.5519 38.0535 74.0425 39.0505 74.8485 39.7982C75.6194 40.546 76.6006 40.9021 77.757 40.9021C79.6492 40.9021 80.9458 40.2611 81.6116 38.9437C82.2774 37.6618 82.6278 35.8458 82.6278 33.5669V8.25005H89.2508V35.5966Z" fill="white"/>
<path d="M125.764 32.1782C125.764 34.4571 125.378 36.5223 124.607 38.3383C123.836 40.1899 122.785 41.721 121.453 43.0029C120.122 44.2848 118.545 45.2818 116.723 45.9583C114.901 46.6705 112.903 46.9909 110.766 46.9909C108.628 46.9909 106.631 46.6349 104.843 45.9583C103.021 45.2818 101.444 44.2848 100.078 43.0029C98.711 41.721 97.6597 40.1543 96.9238 38.3383C96.1529 36.5223 95.8025 34.4571 95.8025 32.1782V8.25005H102.425V31.9646C102.425 32.8904 102.566 33.8518 102.846 34.8844C103.126 35.8814 103.582 36.8428 104.248 37.6974C104.878 38.552 105.754 39.2641 106.841 39.7982C107.892 40.3679 109.224 40.6172 110.801 40.6172C112.377 40.6172 113.709 40.3323 114.76 39.7982C115.812 39.2641 116.688 38.552 117.353 37.6974C117.984 36.8428 118.475 35.917 118.755 34.8844C119.036 33.8518 119.176 32.8904 119.176 31.9646V8.25005H125.799V32.1782H125.764Z" fill="white"/>
<path d="M150.854 16.3685C150.153 15.3358 149.207 14.5881 148.051 14.0896C146.859 13.5911 145.633 13.3774 144.336 13.3774C143.565 13.3774 142.83 13.4843 142.094 13.6623C141.358 13.8403 140.727 14.1252 140.166 14.5169C139.571 14.9086 139.115 15.4071 138.765 16.048C138.414 16.6889 138.239 17.4011 138.239 18.2557C138.239 19.5375 138.66 20.5345 139.571 21.1755C140.447 21.852 141.533 22.4573 142.83 22.9202C144.126 23.4187 145.528 23.9172 147.07 24.3801C148.612 24.843 150.013 25.484 151.345 26.3029C152.641 27.1219 153.728 28.2257 154.604 29.5432C155.48 30.8963 155.935 32.7123 155.935 34.9199C155.935 36.9496 155.585 38.7299 154.849 40.2254C154.113 41.7566 153.132 43.0028 151.871 43.9998C150.609 44.9968 149.172 45.7446 147.525 46.2431C145.878 46.7416 144.126 46.9908 142.339 46.9908C140.026 46.9908 137.784 46.5992 135.681 45.8158C133.543 45.0324 131.686 43.715 130.144 41.8634L135.155 36.9496C135.961 38.1958 137.013 39.1572 138.344 39.8694C139.676 40.5815 141.042 40.902 142.514 40.902C143.285 40.902 144.056 40.7952 144.827 40.5815C145.598 40.3679 146.299 40.0474 146.93 39.6201C147.56 39.1928 148.051 38.6587 148.436 37.9822C148.822 37.3412 149.032 36.5579 149.032 35.7033C149.032 34.3146 148.577 33.2464 147.7 32.4986C146.824 31.7509 145.738 31.1099 144.442 30.6114C143.145 30.1129 141.708 29.6144 140.166 29.1515C138.625 28.6886 137.188 28.0477 135.926 27.2643C134.63 26.481 133.543 25.4127 132.667 24.0597C131.791 22.7066 131.336 20.9262 131.336 18.6829C131.336 16.7245 131.721 15.051 132.527 13.6267C133.298 12.2024 134.349 11.0273 135.646 10.0659C136.907 9.14016 138.379 8.42801 140.026 7.96511C141.673 7.50222 143.355 7.28857 145.072 7.28857C147.035 7.28857 148.927 7.60904 150.784 8.17876C152.606 8.78408 154.288 9.78109 155.76 11.1698L150.854 16.3685Z" fill="white"/>
<path d="M173.983 8.25005C175.77 8.25005 177.487 8.42809 179.169 8.78416C180.816 9.14024 182.288 9.74556 183.549 10.5645C184.811 11.4191 185.827 12.5229 186.563 13.9116C187.299 15.3359 187.684 17.0807 187.684 19.1815C187.684 21.5672 187.264 23.49 186.458 24.9499C185.652 26.4098 184.566 27.5493 183.199 28.3326C181.832 29.116 180.255 29.6857 178.433 29.9706C176.611 30.2554 174.754 30.3979 172.791 30.3979H168.061V46.0651H161.438V8.25005H173.983ZM172.091 24.6651C173.037 24.6651 174.018 24.6295 175.034 24.5583C176.05 24.487 176.997 24.2734 177.838 23.9173C178.679 23.5612 179.379 23.0271 179.94 22.315C180.466 21.6028 180.746 20.6058 180.746 19.324C180.746 18.1489 180.501 17.2231 180.01 16.511C179.52 15.7988 178.889 15.2647 178.118 14.9086C177.347 14.517 176.471 14.3033 175.525 14.1965C174.579 14.0897 173.668 14.0185 172.791 14.0185H168.061V24.6651H172.091Z" fill="white"/>
<path d="M200.404 8.25005H206.116L222.166 46.0651H214.596L211.127 37.4125H195.008L191.644 46.0651H184.215L200.404 8.25005ZM208.814 31.6441L203.068 16.2617L197.251 31.6441H208.814Z" fill="white"/>
<path d="M230.225 29.8994L216.243 8.25005H224.548L233.694 23.312L242.945 8.25005H250.83L236.848 29.8994V46.1007H230.225V29.8994Z" fill="white"/>
<path d="M266.826 46.6572V8.06836H271.566V24.5336L270.7 24.0748C271.379 22.3417 272.467 20.9993 273.962 20.0477C275.492 19.0622 277.276 18.5694 279.315 18.5694C281.286 18.5694 283.036 19.0112 284.565 19.8948C286.129 20.7784 287.352 22.0018 288.236 23.5651C289.153 25.1283 289.612 26.8955 289.612 28.8666V46.6572H284.82V30.3959C284.82 28.8666 284.531 27.5752 283.954 26.5217C283.41 25.4682 282.645 24.6526 281.66 24.0748C280.674 23.4631 279.536 23.1573 278.244 23.1573C276.987 23.1573 275.848 23.4631 274.829 24.0748C273.809 24.6526 273.011 25.4852 272.433 26.5727C271.855 27.6262 271.566 28.9006 271.566 30.3959V46.6572H266.826Z" fill="#B1B0B6"/>
<path d="M295.847 57.872C295.235 57.872 294.624 57.821 294.012 57.719C293.4 57.6171 292.822 57.4472 292.279 57.2093V52.9783C292.652 53.0462 293.111 53.1142 293.655 53.1822C294.233 53.2841 294.793 53.3351 295.337 53.3351C296.934 53.3351 298.141 52.9783 298.956 52.2646C299.806 51.5849 300.605 50.3955 301.352 48.6963L303.086 44.5672L302.984 48.6963L291.259 19.1811H296.408L305.532 42.6301H304.003L313.077 19.1811H318.327L305.94 49.9197C305.362 51.381 304.615 52.7064 303.697 53.8958C302.814 55.1193 301.726 56.0878 300.435 56.8015C299.143 57.5151 297.614 57.872 295.847 57.872Z" fill="#B1B0B6"/>
<path d="M321.016 56.8525V19.1811H325.654V25.0944L325.043 23.9219C326.062 22.2907 327.456 20.9993 329.223 20.0477C330.99 19.0622 333.012 18.5694 335.289 18.5694C337.872 18.5694 340.183 19.1981 342.222 20.4555C344.295 21.713 345.926 23.4291 347.115 25.6041C348.305 27.7451 348.899 30.192 348.899 32.9447C348.899 35.6294 348.305 38.0593 347.115 40.2343C345.926 42.4092 344.295 44.1254 342.222 45.3828C340.183 46.6402 337.855 47.269 335.238 47.269C333.029 47.269 331.007 46.7762 329.172 45.7906C327.371 44.8051 325.977 43.4118 324.992 41.6106L325.756 40.795V56.8525H321.016ZM334.881 42.6811C336.614 42.6811 338.161 42.2563 339.52 41.4067C340.879 40.5571 341.933 39.4016 342.68 37.9403C343.462 36.445 343.853 34.7798 343.853 32.9447C343.853 31.0416 343.462 29.3764 342.68 27.949C341.933 26.4877 340.879 25.3323 339.52 24.4827C338.161 23.5991 336.614 23.1573 334.881 23.1573C333.148 23.1573 331.585 23.5821 330.191 24.4317C328.832 25.2813 327.744 26.4537 326.929 27.949C326.147 29.4103 325.756 31.0756 325.756 32.9447C325.756 34.7798 326.147 36.445 326.929 37.9403C327.744 39.4016 328.832 40.5571 330.191 41.4067C331.585 42.2563 333.148 42.6811 334.881 42.6811Z" fill="#B1B0B6"/>
<path d="M366.229 47.269C363.578 47.269 361.216 46.6402 359.143 45.3828C357.07 44.1254 355.439 42.4092 354.249 40.2343C353.06 38.0253 352.465 35.5614 352.465 32.8427C352.465 30.09 353.043 27.6432 354.198 25.5022C355.388 23.3612 356.985 21.679 358.99 20.4555C361.029 19.1981 363.306 18.5694 365.821 18.5694C367.86 18.5694 369.661 18.9433 371.224 19.6909C372.821 20.4046 374.164 21.3901 375.251 22.6475C376.373 23.8709 377.222 25.2813 377.8 26.8785C378.412 28.4418 378.718 30.073 378.718 31.7722C378.718 32.1461 378.684 32.5709 378.616 33.0466C378.582 33.4884 378.531 33.9132 378.463 34.321H355.931V30.2429H375.71L373.467 32.0781C373.773 30.3109 373.603 28.7307 372.957 27.3373C372.312 25.944 371.36 24.8395 370.103 24.0239C368.845 23.2082 367.418 22.8004 365.821 22.8004C364.223 22.8004 362.762 23.2082 361.437 24.0239C360.111 24.8395 359.075 26.0119 358.327 27.5412C357.614 29.0365 357.325 30.8207 357.461 32.8937C357.325 34.8988 357.631 36.6659 358.378 38.1952C359.16 39.6905 360.247 40.863 361.641 41.7126C363.068 42.5282 364.614 42.936 366.28 42.936C368.115 42.936 369.661 42.5112 370.918 41.6616C372.176 40.812 373.195 39.7245 373.977 38.3991L377.953 40.4382C377.409 41.6956 376.56 42.851 375.404 43.9045C374.283 44.924 372.94 45.7397 371.377 46.3514C369.848 46.9631 368.132 47.269 366.229 47.269Z" fill="#B1B0B6"/>
<path d="M383.37 46.6572V19.1811H388.008V24.2278L387.499 23.5141C388.144 21.9508 389.13 20.7954 390.455 20.0477C391.781 19.2661 393.395 18.8753 395.298 18.8753H396.98V23.3612H394.584C392.647 23.3612 391.084 23.9729 389.895 25.1963C388.705 26.3858 388.11 28.085 388.11 30.2939V46.6572H383.37Z" fill="#B1B0B6"/>
<path d="M409.5 47.269C406.748 47.269 404.352 46.5893 402.313 45.2299C400.274 43.8705 398.829 42.0354 397.98 39.7245L401.752 37.8894C402.534 39.5206 403.604 40.812 404.964 41.7635C406.323 42.7151 407.835 43.1909 409.5 43.1909C410.996 43.1909 412.236 42.834 413.222 42.1204C414.207 41.4067 414.7 40.4721 414.7 39.3167C414.7 38.5011 414.462 37.8554 413.986 37.3796C413.545 36.8698 413.001 36.479 412.355 36.2071C411.709 35.9013 411.115 35.6804 410.571 35.5445L406.442 34.372C403.961 33.6583 402.143 32.6388 400.987 31.3134C399.866 29.9881 399.305 28.4418 399.305 26.6746C399.305 25.0434 399.713 23.633 400.529 22.4436C401.378 21.2202 402.517 20.2686 403.944 19.5889C405.405 18.9093 407.037 18.5694 408.838 18.5694C411.251 18.5694 413.409 19.1811 415.312 20.4046C417.249 21.628 418.625 23.3442 419.441 25.5531L415.567 27.3373C414.955 25.91 414.037 24.7885 412.814 23.9729C411.59 23.1233 410.214 22.6985 408.685 22.6985C407.291 22.6985 406.187 23.0553 405.371 23.769C404.556 24.4487 404.148 25.3153 404.148 26.3688C404.148 27.1504 404.352 27.7961 404.76 28.3059C405.167 28.7816 405.66 29.1555 406.238 29.4273C406.816 29.6652 407.376 29.8691 407.92 30.039L412.406 31.3644C414.649 32.0101 416.382 33.0126 417.606 34.372C418.863 35.7314 419.492 37.3626 419.492 39.2657C419.492 40.795 419.067 42.1713 418.217 43.3948C417.368 44.6182 416.195 45.5697 414.7 46.2494C413.205 46.9291 411.472 47.269 409.5 47.269Z" fill="#B1B0B6"/>
<path d="M429.992 46.6572L420.561 19.1811H425.812L433.305 42.1713L431.47 42.1204L438.81 19.1811H443.296L450.637 42.1204L448.802 42.1713L456.346 19.1811H461.546L452.115 46.6572H447.578L440.34 23.718H441.767L434.528 46.6572H429.992Z" fill="#B1B0B6"/>
<path d="M464.256 46.6572V19.1811H468.997V46.6572H464.256ZM464.256 14.7972V8.68007H468.997V14.7972H464.256Z" fill="#B1B0B6"/>
<path d="M485.988 46.9631C483.303 46.9631 481.23 46.1985 479.769 44.6692C478.341 43.1399 477.628 40.9819 477.628 38.1952V23.718H472.632V19.1811H473.651C474.875 19.1811 475.843 18.8073 476.557 18.0597C477.271 17.312 477.628 16.3265 477.628 15.1031V12.8601H482.368V19.1811H488.536V23.718H482.368V38.0423C482.368 38.9599 482.504 39.7585 482.776 40.4382C483.082 41.1178 483.575 41.6616 484.254 42.0694C484.934 42.4432 485.835 42.6301 486.956 42.6301C487.194 42.6301 487.483 42.6131 487.823 42.5792C488.197 42.5452 488.536 42.5112 488.842 42.4772V46.6572C488.401 46.7592 487.908 46.8272 487.364 46.8611C486.82 46.9291 486.361 46.9631 485.988 46.9631Z" fill="#B1B0B6"/>
<path d="M505.503 47.269C502.818 47.269 500.422 46.6402 498.315 45.3828C496.242 44.1254 494.611 42.4092 493.422 40.2343C492.232 38.0593 491.638 35.6124 491.638 32.8937C491.638 30.141 492.232 27.6941 493.422 25.5531C494.611 23.4122 496.242 21.713 498.315 20.4555C500.422 19.1981 502.818 18.5694 505.503 18.5694C507.304 18.5694 508.986 18.8923 510.55 19.538C512.113 20.1837 513.489 21.0503 514.679 22.1378C515.868 23.2252 516.735 24.4996 517.279 25.961L513.048 28C512.402 26.5727 511.416 25.4172 510.091 24.5336C508.766 23.6161 507.236 23.1573 505.503 23.1573C503.838 23.1573 502.326 23.5821 500.966 24.4317C499.641 25.2813 498.587 26.4367 497.806 27.898C497.024 29.3594 496.633 31.0416 496.633 32.9447C496.633 34.7798 497.024 36.445 497.806 37.9403C498.587 39.4016 499.641 40.5571 500.966 41.4067C502.326 42.2563 503.838 42.6811 505.503 42.6811C507.236 42.6811 508.766 42.2393 510.091 41.3557C511.416 40.4382 512.402 39.2317 513.048 37.7364L517.279 39.8774C516.735 41.3048 515.868 42.5792 514.679 43.7006C513.489 44.7881 512.113 45.6547 510.55 46.3004C508.986 46.9461 507.304 47.269 505.503 47.269Z" fill="#B1B0B6"/>
<path d="M521.945 46.6572V8.06836H526.686V24.5336L525.819 24.0748C526.499 22.3417 527.586 20.9993 529.082 20.0477C530.611 19.0622 532.395 18.5694 534.434 18.5694C536.405 18.5694 538.155 19.0112 539.685 19.8948C541.248 20.7784 542.471 22.0018 543.355 23.5651C544.272 25.1283 544.731 26.8955 544.731 28.8666V46.6572H539.939V30.3959C539.939 28.8666 539.651 27.5752 539.073 26.5217C538.529 25.4682 537.764 24.6526 536.779 24.0748C535.793 23.4631 534.655 23.1573 533.363 23.1573C532.106 23.1573 530.968 23.4631 529.948 24.0748C528.929 24.6526 528.13 25.4852 527.552 26.5727C526.975 27.6262 526.686 28.9006 526.686 30.3959V46.6572H521.945Z" fill="#B1B0B6"/>
</svg>
