<svg width="545" height="58" viewBox="0 0 545 58" fill="none" xmlns="http://www.w3.org/2000/svg">
<path fill-rule="evenodd" clip-rule="evenodd" d="M27.0673 54.3079C25.7664 54.3441 24.5016 54.2355 23.2006 54.0545C19.6953 53.5477 16.4068 52.4255 13.3713 50.5792C6.6497 46.5246 2.34935 40.6238 0.578616 32.8766C0.181104 31.139 0.000416954 29.3651 0.000416954 27.5912C-0.0357205 20.4957 2.27707 14.2691 6.97494 8.98363C11.0585 4.42224 16.1177 1.63472 22.0804 0.476271C23.7427 0.150457 25.405 -0.0305508 27.0673 0.0418522C27.0673 2.75697 27.0673 5.43588 27.0673 8.15099C26.9951 8.18719 26.9228 8.2234 26.8505 8.2958C25.8748 8.98363 24.8991 9.70766 23.9595 10.4679C21.8274 12.2056 19.8037 14.0518 18.1053 16.2601C15.8286 19.1925 14.3108 22.4144 14.094 26.2156C13.9856 28.0256 14.2024 29.7995 14.7806 31.501C16.19 35.7366 20.5626 40.1169 26.706 40.2255C27.0673 40.2255 27.1396 40.298 27.1396 40.6962C27.1035 42.5424 27.1035 46.235 27.1035 46.235C27.1035 46.235 27.1035 46.4522 27.1035 46.5608C27.0673 49.1311 27.0673 51.7014 27.0673 54.3079Z" fill="#0099FF"/>
<path fill-rule="evenodd" clip-rule="evenodd" d="M27.0666 8.11469C27.0666 8.11469 27.0666 2.72066 27.0666 0.00554404C28.5483 -0.0306575 29.9938 0.114149 31.4393 0.331358C34.1496 0.765776 36.7515 1.56221 39.2088 2.82926C44.3042 5.47197 48.3154 9.23693 51.0257 14.3775C52.5796 17.3461 53.5915 20.4956 53.989 23.7899C54.4588 27.6635 54.0974 31.5009 52.941 35.2296C51.6039 39.4652 49.3634 43.194 46.2195 46.3435C42.3889 50.1447 37.8356 52.6064 32.5595 53.7286C30.7526 54.0906 28.9096 54.3078 27.0666 54.2716C27.0666 51.6651 27.0666 49.0948 27.0666 46.4883C27.0666 46.3797 27.0666 46.1987 27.0666 46.1987C27.0666 46.1987 27.175 46.1263 27.2112 46.0901C30.0299 44.099 32.7041 41.9269 35.0169 39.3204C36.5346 37.6189 37.8356 35.8088 38.739 33.7092C40.0038 30.7406 40.5097 27.6997 39.8593 24.4778C38.7029 18.6131 33.463 14.2327 27.428 14.0879C27.0305 14.0879 27.0666 13.7621 27.0666 13.7621V8.11469Z" fill="#0561E2"/>
<path d="M89.0807 35.5966C89.0807 37.0921 88.8354 38.5164 88.3798 39.9051C87.9243 41.2937 87.1884 42.5044 86.2773 43.5726C85.3311 44.6408 84.1748 45.4598 82.7731 46.1007C81.3714 46.7061 79.7244 47.0265 77.9022 47.0265C74.9586 47.0265 72.5407 46.3144 70.6835 44.9257C68.7912 43.537 67.5647 41.3293 66.969 38.3027L73.1715 36.8072C73.3817 38.0535 73.8723 39.0505 74.6783 39.7982C75.4492 40.546 76.4304 40.9021 77.5868 40.9021C79.4791 40.9021 80.7757 40.2611 81.4415 38.9437C82.1073 37.6618 82.4577 35.8458 82.4577 33.5669V8.25005H89.0807V35.5966Z" fill="#1C1C1C"/>
<path d="M125.593 32.1782C125.593 34.4571 125.208 36.5223 124.437 38.3383C123.666 40.1899 122.615 41.721 121.283 43.0029C119.952 44.2848 118.375 45.2818 116.553 45.9583C114.73 46.6705 112.733 46.9909 110.595 46.9909C108.458 46.9909 106.46 46.6349 104.673 45.9583C102.851 45.2818 101.274 44.2848 99.9075 43.0029C98.5408 41.721 97.4895 40.1543 96.7536 38.3383C95.9827 36.5223 95.6323 34.4571 95.6323 32.1782V8.25005H102.255V31.9646C102.255 32.8904 102.395 33.8518 102.676 34.8844C102.956 35.8814 103.412 36.8428 104.077 37.6974C104.708 38.552 105.584 39.2641 106.671 39.7982C107.722 40.3679 109.053 40.6172 110.63 40.6172C112.207 40.6172 113.539 40.3323 114.59 39.7982C115.641 39.2641 116.518 38.552 117.183 37.6974C117.814 36.8428 118.305 35.917 118.585 34.8844C118.865 33.8518 119.006 32.8904 119.006 31.9646V8.25005H125.629V32.1782H125.593Z" fill="#1C1C1C"/>
<path d="M150.684 16.3685C149.983 15.3358 149.037 14.5881 147.881 14.0896C146.689 13.5911 145.463 13.3774 144.166 13.3774C143.395 13.3774 142.659 13.4843 141.924 13.6623C141.188 13.8403 140.557 14.1252 139.996 14.5169C139.4 14.9086 138.945 15.4071 138.595 16.048C138.244 16.6889 138.069 17.4011 138.069 18.2557C138.069 19.5375 138.489 20.5345 139.4 21.1755C140.277 21.852 141.363 22.4573 142.659 22.9202C143.956 23.4187 145.358 23.9172 146.9 24.3801C148.441 24.843 149.843 25.484 151.175 26.3029C152.471 27.1219 153.558 28.2257 154.434 29.5432C155.31 30.8963 155.765 32.7123 155.765 34.9199C155.765 36.9496 155.415 38.7299 154.679 40.2254C153.943 41.7566 152.962 43.0028 151.7 43.9998C150.439 44.9968 149.002 45.7446 147.355 46.2431C145.708 46.7416 143.956 46.9908 142.169 46.9908C139.856 46.9908 137.613 46.5992 135.511 45.8158C133.373 45.0324 131.516 43.715 129.974 41.8634L134.985 36.9496C135.791 38.1958 136.842 39.1572 138.174 39.8694C139.506 40.5815 140.872 40.902 142.344 40.902C143.115 40.902 143.886 40.7952 144.657 40.5815C145.428 40.3679 146.129 40.0474 146.759 39.6201C147.39 39.1928 147.881 38.6587 148.266 37.9822C148.652 37.3412 148.862 36.5579 148.862 35.7033C148.862 34.3146 148.406 33.2464 147.53 32.4986C146.654 31.7509 145.568 31.1099 144.271 30.6114C142.975 30.1129 141.538 29.6144 139.996 29.1515C138.454 28.6886 137.018 28.0477 135.756 27.2643C134.46 26.481 133.373 25.4127 132.497 24.0597C131.621 22.7066 131.166 20.9262 131.166 18.6829C131.166 16.7245 131.551 15.051 132.357 13.6267C133.128 12.2024 134.179 11.0273 135.476 10.0659C136.737 9.14016 138.209 8.42801 139.856 7.96511C141.503 7.50222 143.185 7.28857 144.902 7.28857C146.865 7.28857 148.757 7.60904 150.614 8.17876C152.436 8.78408 154.118 9.78109 155.59 11.1698L150.684 16.3685Z" fill="#1C1C1C"/>
<path d="M173.813 8.25005C175.6 8.25005 177.317 8.42809 178.999 8.78416C180.646 9.14024 182.118 9.74556 183.379 10.5645C184.641 11.4191 185.657 12.5229 186.393 13.9116C187.129 15.3359 187.514 17.0807 187.514 19.1815C187.514 21.5672 187.094 23.49 186.288 24.9499C185.482 26.4098 184.396 27.5493 183.029 28.3326C181.662 29.116 180.085 29.6857 178.263 29.9706C176.441 30.2554 174.584 30.3979 172.621 30.3979H167.891V46.0651H161.268V8.25005H173.813ZM171.92 24.6651C172.867 24.6651 173.848 24.6295 174.864 24.5583C175.88 24.487 176.826 24.2734 177.667 23.9173C178.508 23.5612 179.209 23.0271 179.77 22.315C180.296 21.6028 180.576 20.6058 180.576 19.324C180.576 18.1489 180.331 17.2231 179.84 16.511C179.349 15.7988 178.719 15.2647 177.948 14.9086C177.177 14.517 176.301 14.3033 175.355 14.1965C174.408 14.0897 173.497 14.0185 172.621 14.0185H167.891V24.6651H171.92Z" fill="#1C1C1C"/>
<path d="M200.234 8.25005H205.946L221.995 46.0651H214.426L210.957 37.4125H194.838L191.474 46.0651H184.045L200.234 8.25005ZM208.644 31.6441L202.897 16.2617L197.08 31.6441H208.644Z" fill="#1C1C1C"/>
<path d="M230.055 29.8994L216.073 8.25005H224.378L233.524 23.312L242.775 8.25005H250.66L236.678 29.8994V46.1007H230.055V29.8994Z" fill="#1C1C1C"/>
<path d="M266.655 46.6572V8.06836H271.396V24.5336L270.53 24.0748C271.209 22.3417 272.297 20.9993 273.792 20.0477C275.321 19.0622 277.106 18.5694 279.145 18.5694C281.116 18.5694 282.866 19.0112 284.395 19.8948C285.958 20.7784 287.182 22.0018 288.065 23.5651C288.983 25.1283 289.442 26.8955 289.442 28.8666V46.6572H284.65V30.3959C284.65 28.8666 284.361 27.5752 283.783 26.5217C283.24 25.4682 282.475 24.6526 281.489 24.0748C280.504 23.4631 279.365 23.1573 278.074 23.1573C276.817 23.1573 275.678 23.4631 274.659 24.0748C273.639 24.6526 272.841 25.4852 272.263 26.5727C271.685 27.6262 271.396 28.9006 271.396 30.3959V46.6572H266.655Z" fill="#7D7B86"/>
<path d="M295.677 57.872C295.065 57.872 294.453 57.821 293.842 57.719C293.23 57.6171 292.652 57.4472 292.108 57.2093V52.9783C292.482 53.0462 292.941 53.1142 293.485 53.1822C294.063 53.2841 294.623 53.3351 295.167 53.3351C296.764 53.3351 297.971 52.9783 298.786 52.2646C299.636 51.5849 300.435 50.3955 301.182 48.6963L302.915 44.5672L302.813 48.6963L291.089 19.1811H296.237L305.362 42.6301H303.833L312.907 19.1811H318.157L305.77 49.9197C305.192 51.381 304.445 52.7064 303.527 53.8958C302.643 55.1193 301.556 56.0878 300.265 56.8015C298.973 57.5151 297.444 57.872 295.677 57.872Z" fill="#7D7B86"/>
<path d="M320.845 56.8525V19.1811H325.484V25.0944L324.873 23.9219C325.892 22.2907 327.285 20.9993 329.053 20.0477C330.82 19.0622 332.842 18.5694 335.119 18.5694C337.701 18.5694 340.012 19.1981 342.051 20.4555C344.124 21.713 345.756 23.4291 346.945 25.6041C348.135 27.7451 348.729 30.192 348.729 32.9447C348.729 35.6294 348.135 38.0593 346.945 40.2343C345.756 42.4092 344.124 44.1254 342.051 45.3828C340.012 46.6402 337.684 47.269 335.068 47.269C332.859 47.269 330.837 46.7762 329.002 45.7906C327.2 44.8051 325.807 43.4118 324.822 41.6106L325.586 40.795V56.8525H320.845ZM334.711 42.6811C336.444 42.6811 337.99 42.2563 339.35 41.4067C340.709 40.5571 341.763 39.4016 342.51 37.9403C343.292 36.445 343.683 34.7798 343.683 32.9447C343.683 31.0416 343.292 29.3764 342.51 27.949C341.763 26.4877 340.709 25.3323 339.35 24.4827C337.99 23.5991 336.444 23.1573 334.711 23.1573C332.978 23.1573 331.414 23.5821 330.021 24.4317C328.662 25.2813 327.574 26.4537 326.759 27.949C325.977 29.4103 325.586 31.0756 325.586 32.9447C325.586 34.7798 325.977 36.445 326.759 37.9403C327.574 39.4016 328.662 40.5571 330.021 41.4067C331.414 42.2563 332.978 42.6811 334.711 42.6811Z" fill="#7D7B86"/>
<path d="M366.058 47.269C363.408 47.269 361.046 46.6402 358.973 45.3828C356.9 44.1254 355.268 42.4092 354.079 40.2343C352.89 38.0253 352.295 35.5614 352.295 32.8427C352.295 30.09 352.873 27.6432 354.028 25.5022C355.217 23.3612 356.815 21.679 358.82 20.4555C360.859 19.1981 363.136 18.5694 365.651 18.5694C367.69 18.5694 369.491 18.9433 371.054 19.6909C372.651 20.4046 373.994 21.3901 375.081 22.6475C376.203 23.8709 377.052 25.2813 377.63 26.8785C378.242 28.4418 378.548 30.073 378.548 31.7722C378.548 32.1461 378.514 32.5709 378.446 33.0466C378.412 33.4884 378.361 33.9132 378.293 34.321H355.761V30.2429H375.54L373.297 32.0781C373.603 30.3109 373.433 28.7307 372.787 27.3373C372.142 25.944 371.19 24.8395 369.933 24.0239C368.675 23.2082 367.248 22.8004 365.651 22.8004C364.053 22.8004 362.592 23.2082 361.267 24.0239C359.941 24.8395 358.905 26.0119 358.157 27.5412C357.443 29.0365 357.155 30.8207 357.29 32.8937C357.155 34.8988 357.46 36.6659 358.208 38.1952C358.99 39.6905 360.077 40.863 361.471 41.7126C362.898 42.5282 364.444 42.936 366.109 42.936C367.944 42.936 369.491 42.5112 370.748 41.6616C372.006 40.812 373.025 39.7245 373.807 38.3991L377.783 40.4382C377.239 41.6956 376.39 42.851 375.234 43.9045C374.113 44.924 372.77 45.7397 371.207 46.3514C369.678 46.9631 367.961 47.269 366.058 47.269Z" fill="#7D7B86"/>
<path d="M383.199 46.6572V19.1811H387.838V24.2278L387.329 23.5141C387.974 21.9508 388.96 20.7954 390.285 20.0477C391.611 19.2661 393.225 18.8753 395.128 18.8753H396.81V23.3612H394.414C392.477 23.3612 390.914 23.9729 389.724 25.1963C388.535 26.3858 387.94 28.085 387.94 30.2939V46.6572H383.199Z" fill="#7D7B86"/>
<path d="M409.33 47.269C406.578 47.269 404.182 46.5893 402.143 45.2299C400.104 43.8705 398.659 42.0354 397.81 39.7245L401.582 37.8894C402.364 39.5206 403.434 40.812 404.793 41.7635C406.153 42.7151 407.665 43.1909 409.33 43.1909C410.826 43.1909 412.066 42.834 413.052 42.1204C414.037 41.4067 414.53 40.4721 414.53 39.3167C414.53 38.5011 414.292 37.8554 413.816 37.3796C413.374 36.8698 412.831 36.479 412.185 36.2071C411.539 35.9013 410.945 35.6804 410.401 35.5445L406.272 34.372C403.791 33.6583 401.973 32.6388 400.817 31.3134C399.696 29.9881 399.135 28.4418 399.135 26.6746C399.135 25.0434 399.543 23.633 400.358 22.4436C401.208 21.2202 402.347 20.2686 403.774 19.5889C405.235 18.9093 406.866 18.5694 408.668 18.5694C411.08 18.5694 413.238 19.1811 415.142 20.4046C417.079 21.628 418.455 23.3442 419.271 25.5531L415.396 27.3373C414.785 25.91 413.867 24.7885 412.644 23.9729C411.42 23.1233 410.044 22.6985 408.515 22.6985C407.121 22.6985 406.017 23.0553 405.201 23.769C404.386 24.4487 403.978 25.3153 403.978 26.3688C403.978 27.1504 404.182 27.7961 404.59 28.3059C404.997 28.7816 405.49 29.1555 406.068 29.4273C406.646 29.6652 407.206 29.8691 407.75 30.039L412.236 31.3644C414.479 32.0101 416.212 33.0126 417.435 34.372C418.693 35.7314 419.322 37.3626 419.322 39.2657C419.322 40.795 418.897 42.1713 418.047 43.3948C417.198 44.6182 416.025 45.5697 414.53 46.2494C413.035 46.9291 411.301 47.269 409.33 47.269Z" fill="#7D7B86"/>
<path d="M429.821 46.6572L420.391 19.1811H425.641L433.135 42.1713L431.3 42.1204L438.64 19.1811H443.126L450.467 42.1204L448.632 42.1713L456.176 19.1811H461.376L451.945 46.6572H447.408L440.17 23.718H441.597L434.358 46.6572H429.821Z" fill="#7D7B86"/>
<path d="M464.086 46.6572V19.1811H468.827V46.6572H464.086ZM464.086 14.7972V8.68007H468.827V14.7972H464.086Z" fill="#7D7B86"/>
<path d="M485.817 46.9631C483.133 46.9631 481.06 46.1985 479.598 44.6692C478.171 43.1399 477.457 40.9819 477.457 38.1952V23.718H472.462V19.1811H473.481C474.705 19.1811 475.673 18.8073 476.387 18.0597C477.101 17.312 477.457 16.3265 477.457 15.1031V12.8601H482.198V19.1811H488.366V23.718H482.198V38.0423C482.198 38.9599 482.334 39.7585 482.606 40.4382C482.912 41.1178 483.405 41.6616 484.084 42.0694C484.764 42.4432 485.665 42.6301 486.786 42.6301C487.024 42.6301 487.313 42.6131 487.653 42.5792C488.026 42.5452 488.366 42.5112 488.672 42.4772V46.6572C488.23 46.7592 487.738 46.8272 487.194 46.8611C486.65 46.9291 486.191 46.9631 485.817 46.9631Z" fill="#7D7B86"/>
<path d="M505.333 47.269C502.648 47.269 500.252 46.6402 498.145 45.3828C496.072 44.1254 494.441 42.4092 493.252 40.2343C492.062 38.0593 491.467 35.6124 491.467 32.8937C491.467 30.141 492.062 27.6941 493.252 25.5531C494.441 23.4122 496.072 21.713 498.145 20.4555C500.252 19.1981 502.648 18.5694 505.333 18.5694C507.134 18.5694 508.816 18.8923 510.38 19.538C511.943 20.1837 513.319 21.0503 514.509 22.1378C515.698 23.2252 516.565 24.4996 517.108 25.961L512.877 28C512.232 26.5727 511.246 25.4172 509.921 24.5336C508.595 23.6161 507.066 23.1573 505.333 23.1573C503.668 23.1573 502.155 23.5821 500.796 24.4317C499.471 25.2813 498.417 26.4367 497.636 27.898C496.854 29.3594 496.463 31.0416 496.463 32.9447C496.463 34.7798 496.854 36.445 497.636 37.9403C498.417 39.4016 499.471 40.5571 500.796 41.4067C502.155 42.2563 503.668 42.6811 505.333 42.6811C507.066 42.6811 508.595 42.2393 509.921 41.3557C511.246 40.4382 512.232 39.2317 512.877 37.7364L517.108 39.8774C516.565 41.3048 515.698 42.5792 514.509 43.7006C513.319 44.7881 511.943 45.6547 510.38 46.3004C508.816 46.9461 507.134 47.269 505.333 47.269Z" fill="#7D7B86"/>
<path d="M521.775 46.6572V8.06836H526.515V24.5336L525.649 24.0748C526.329 22.3417 527.416 20.9993 528.911 20.0477C530.441 19.0622 532.225 18.5694 534.264 18.5694C536.235 18.5694 537.985 19.0112 539.514 19.8948C541.078 20.7784 542.301 22.0018 543.185 23.5651C544.102 25.1283 544.561 26.8955 544.561 28.8666V46.6572H539.769V30.3959C539.769 28.8666 539.48 27.5752 538.903 26.5217C538.359 25.4682 537.594 24.6526 536.609 24.0748C535.623 23.4631 534.485 23.1573 533.193 23.1573C531.936 23.1573 530.797 23.4631 529.778 24.0748C528.758 24.6526 527.96 25.4852 527.382 26.5727C526.804 27.6262 526.515 28.9006 526.515 30.3959V46.6572H521.775Z" fill="#7D7B86"/>
</svg>
