<svg xmlns="http://www.w3.org/2000/svg" viewBox="0 0 3048 2016" width="3048" height="2016" style="background-color: transparent;"><defs><style>@import url('https://fonts.googleapis.com/css2?family=Caveat+Brush&amp;family=Source+Code+Pro&amp;family=Source+Sans+Pro&amp;family=Crimson+Pro&amp;display=block');</style></defs><g text-align="center" text-anchor="middle" transform="translate(16.00, 432.00) rotate(0.00, 128.00, 48.00)"><g id="c6054c52-d788-4477-0adf-3c8189f023cb_svg" class="tl-centered-g"><path d="M256.76,65.84 Q256.95,75.00 257.04,80.78 T255.27,90.05 246.54,94.49 231.79,95.60 215.77,95.75 199.41,95.72 182.96,95.64 166.49,95.55 150.01,95.46 133.53,95.41 117.04,95.44 100.56,95.52 84.08,95.60 67.60,95.68 51.11,95.76 34.63,95.84 18.12,95.91 5.75,94.11 0.60,87.01 -0.52,75.86 -0.49,63.94 -0.33,51.84 -0.29,39.69 -0.33,27.53 -0.36,15.33 1.50,5.64 10.23,1.07 24.92,-0.11 40.87,-0.32 57.16,-0.34 73.53,-0.32 89.93,-0.28 106.34,-0.24 122.74,-0.25 139.15,-0.34 155.56,-0.47 171.96,-0.61 188.37,-0.74 204.77,-0.87 221.18,-1.01 237.61,-1.14 249.94,0.62 255.14,7.75 256.39,19.00 256.52,31.03 256.52,43.24 256.65,55.50 256.85,69.89 256.92,78.36 256.77,78.80 256.49,79.18 256.10,79.44 255.65,79.57 255.18,79.54 254.75,79.37 254.39,79.07 254.15,78.67 254.05,78.21 254.10,77.74 254.29,77.32 254.61,76.98 255.03,76.76 255.49,76.68 255.95,76.76 256.36,76.98 256.69,77.32 256.88,77.74 256.93,78.21 256.83,78.66 256.59,79.06 256.24,79.37 255.80,79.54 255.34,79.57 254.88,79.44 254.50,79.18 254.21,78.81 254.06,78.36 254.03,78.13 254.11,69.89 254.27,55.51 254.33,43.26 254.15,31.09 253.68,19.32 252.62,8.98 248.81,3.23 237.57,2.07 221.19,2.03 204.78,1.99 188.38,1.95 171.97,1.91 155.56,1.87 139.16,1.83 122.75,1.84 106.34,1.93 89.94,2.06 73.54,2.20 57.18,2.35 40.93,2.55 25.16,2.92 11.32,3.77 4.04,6.87 2.74,15.43 2.41,27.56 2.08,39.72 1.86,51.86 1.88,63.91 2.20,75.57 3.13,85.81 6.89,91.52 18.17,92.71 34.63,92.80 51.11,92.89 67.60,92.99 84.08,93.08 100.56,93.17 117.04,93.27 133.53,93.32 150.01,93.28 166.49,93.20 182.96,93.12 199.40,93.02 215.73,92.88 231.57,92.57 245.47,91.79 252.75,88.82 253.95,80.70 254.11,70.42 254.22,65.69 254.29,65.40 254.43,65.13 254.63,64.90 254.89,64.72 255.17,64.61 255.48,64.58 255.78,64.61 256.07,64.72 256.32,64.89 256.52,65.12 256.66,65.39 256.74,65.69 Z" fill="#1d1d1d" stroke="#1d1d1d" stroke-width="2" pointer-events="none"/></g><text font-size="28px" font-family="Caveat Brush" font-weight="normal" line-height="28px" letter-spacing="-0.03em" text-align="center" dominant-baseline="mathematical" alignment-baseline="mathematical" text-anchor="middle" transform="translate(44, 29)" fill="#1d1d1d" transform-origin="center center"><tspan y="14px" x="88">ORCA Application
</tspan></text></g><g id="ff402048-bc67-431f-22a6-6691d5a4d6cd_svg" class="tl-centered-g" transform="translate(1456.00, 112.00) rotate(0.00, 592.00, 128.00)"><g pointer-events="none" stroke="#1d1d1d" stroke-width="4.23" stroke-linecap="round"><line x1="2.11" y1="2.11" x2="1181.88" y2="2.11" stroke-dasharray="6.47 6.49" stroke-dashoffset="3.23"/><line x1="1181.88" y1="2.11" x2="1181.88" y2="253.88" stroke-dasharray="6.47 6.77" stroke-dashoffset="3.23"/><line x1="1181.88" y1="253.88" x2="2.11" y2="253.88" stroke-dasharray="6.47 6.49" stroke-dashoffset="3.23"/><line x1="2.11" y1="253.88" x2="2.11" y2="2.11" stroke-dasharray="6.47 6.77" stroke-dashoffset="3.23"/></g></g><text font-size="68.52584741710051px" font-family="Caveat Brush" font-weight="normal" line-height="68.52584741710051px" letter-spacing="-0.03em" text-align="left" dominant-baseline="mathematical" alignment-baseline="mathematical" text-anchor="start" fill="#1d1d1d" transform="translate(1616.00, 16.00) rotate(0.00, 381.50, 39.50)"><tspan y="34.262923708550254px" x="4">System/Developer specific Metrics
</tspan></text><g text-align="center" text-anchor="middle" transform="translate(752.00, 944.00) rotate(0.00, 128.00, 64.00)"><g id="64574d05-3416-46f5-1acd-9308c53448fa_svg" class="tl-centered-g"><path d="M87.26,0.11 Q99.46,0.18 107.11,0.21 T122.81,0.22 139.01,0.15 155.34,0.04 171.70,-0.07 188.07,-0.19 204.44,-0.30 220.81,-0.42 237.20,-0.53 249.53,1.28 254.75,10.16 256.05,25.26 256.25,41.68 256.32,58.45 256.53,75.32 256.81,92.21 257.08,109.13 255.36,121.79 246.67,127.11 231.97,128.42 215.98,128.61 199.66,128.57 183.25,128.47 166.83,128.36 150.39,128.25 133.96,128.17 117.52,128.19 101.08,128.24 84.65,128.30 68.21,128.36 51.77,128.41 35.33,128.47 18.87,128.52 6.51,126.67 1.32,117.82 0.15,102.83 0.08,86.52 0.15,69.87 0.09,53.13 -0.05,36.36 -0.19,19.56 1.62,6.99 10.31,1.68 24.96,0.31 40.89,0.07 57.14,0.05 73.48,0.09 89.84,0.15 106.21,0.21 122.58,0.22 138.95,0.15 158.13,0.03 169.31,0.00 169.68,0.13 169.99,0.36 170.20,0.68 170.31,1.06 170.29,1.45 170.14,1.81 169.89,2.10 169.56,2.30 169.18,2.39 168.80,2.35 168.44,2.18 168.16,1.92 167.98,1.57 167.91,1.19 167.98,0.81 168.16,0.46 168.44,0.20 168.79,0.03 169.18,-0.01 169.56,0.07 169.89,0.27 170.14,0.57 170.29,0.93 170.31,1.32 170.21,1.69 169.99,2.01 169.68,2.25 169.31,2.37 169.12,2.41 158.13,2.38 138.96,2.33 122.59,2.31 106.22,2.38 89.85,2.50 73.49,2.61 57.16,2.75 40.95,2.94 25.23,3.34 11.42,4.34 4.16,8.16 2.92,19.62 2.69,36.37 2.46,53.13 2.33,69.87 2.45,86.48 2.88,102.60 3.91,116.75 7.69,124.15 18.93,125.32 35.34,125.43 51.78,125.55 68.21,125.66 84.65,125.78 101.09,125.90 117.52,126.01 133.96,126.09 150.40,126.07 166.83,126.02 183.26,125.95 199.65,125.88 215.93,125.75 231.71,125.40 245.57,124.43 252.84,120.62 253.98,109.10 254.07,92.22 254.16,75.33 254.14,58.48 253.88,41.74 253.32,25.50 252.18,11.26 248.36,3.81 237.16,2.68 220.81,2.62 204.44,2.56 188.07,2.50 171.70,2.45 155.34,2.39 139.02,2.33 122.82,2.31 107.11,2.38 93.36,2.49 87.12,2.52 86.84,2.46 86.58,2.32 86.36,2.13 86.19,1.89 86.09,1.62 86.05,1.33 86.09,1.04 86.19,0.77 86.36,0.53 86.57,0.33 86.83,0.20 87.11,0.13 Z" fill="#36b24d" stroke="#36b24d" stroke-width="2" pointer-events="none"/></g><text font-size="28px" font-family="Caveat Brush" font-weight="normal" line-height="28px" letter-spacing="-0.03em" text-align="center" dominant-baseline="mathematical" alignment-baseline="mathematical" text-anchor="middle" transform="translate(55.5, 31)" fill="#36b24d" transform-origin="center center"><tspan y="14px" x="76.5">OpenTelemetry
</tspan><tspan y="42px" x="76.5">
Collector
</tspan></text></g><g text-align="center" text-anchor="middle" transform="translate(1552.00, 176.00) rotate(0.00, 224.00, 64.00)"><g id="ffa3784a-ef18-4a24-06ca-730932bb513b_svg" class="tl-centered-g"><path d="M-0.14,38.85 Q-0.28,26.37 -0.34,18.51 T1.47,6.63 10.10,1.48 24.64,0.13 40.42,-0.13 56.53,-0.18 72.73,-0.17 88.94,-0.15 105.16,-0.12 121.39,-0.10 137.61,-0.07 153.83,-0.04 170.06,-0.02 186.28,0.01 202.51,0.04 218.73,0.04 234.95,-0.01 251.18,-0.08 267.40,-0.15 283.62,-0.22 299.85,-0.29 316.07,-0.36 332.30,-0.43 348.52,-0.50 364.74,-0.57 380.97,-0.64 397.19,-0.71 413.41,-0.78 429.66,-0.84 441.90,1.00 447.07,9.91 448.28,25.06 448.39,41.56 448.37,58.41 448.48,75.35 448.68,92.32 448.86,109.31 447.08,122.02 438.45,127.36 423.91,128.71 408.11,128.94 391.98,128.93 375.77,128.87 359.54,128.79 343.30,128.71 327.06,128.62 310.82,128.54 294.58,128.46 278.34,128.37 262.10,128.29 245.86,128.20 229.62,128.14 213.37,128.13 197.13,128.15 180.89,128.16 164.65,128.17 148.41,128.18 132.17,128.20 115.93,128.21 99.69,128.22 83.45,128.23 67.21,128.25 50.97,128.26 34.73,128.27 18.46,128.28 6.22,126.40 1.07,117.56 -0.09,102.59 -0.13,86.30 -0.05,69.68 -0.10,52.95 -0.22,33.34 -0.23,21.86 -0.08,21.42 0.21,21.05 0.60,20.79 1.05,20.67 1.51,20.69 1.95,20.87 2.30,21.17 2.54,21.57 2.64,22.03 2.59,22.50 2.39,22.92 2.07,23.26 1.65,23.47 1.19,23.55 0.73,23.47 0.32,23.25 -0.00,22.91 -0.20,22.48 -0.24,22.02 -0.14,21.56 0.10,21.16 0.46,20.86 0.89,20.69 1.36,20.67 1.81,20.79 2.20,21.06 2.48,21.43 2.63,21.88 2.66,22.11 2.53,33.35 2.27,52.96 2.13,69.67 2.24,86.27 2.64,102.37 3.66,116.49 7.40,123.89 18.52,125.04 34.73,125.12 50.97,125.20 67.22,125.28 83.46,125.37 99.70,125.45 115.94,125.53 132.18,125.62 148.42,125.70 164.66,125.79 180.90,125.87 197.14,125.95 213.38,126.04 229.62,126.10 245.86,126.11 262.10,126.10 278.34,126.08 294.58,126.07 310.82,126.06 327.06,126.05 343.30,126.03 359.54,126.02 375.77,126.00 391.97,125.97 408.05,125.88 423.64,125.58 437.34,124.65 444.55,120.85 445.75,109.27 445.93,92.32 446.11,75.35 446.19,58.42 446.02,41.61 445.55,25.30 444.49,10.98 440.72,3.52 429.62,2.40 413.42,2.38 397.19,2.35 380.97,2.33 364.75,2.30 348.52,2.27 332.30,2.25 316.07,2.22 299.85,2.19 283.63,2.17 267.40,2.14 251.18,2.12 234.96,2.09 218.73,2.09 202.51,2.13 186.28,2.20 170.06,2.27 153.84,2.34 137.61,2.41 121.39,2.48 105.17,2.55 88.95,2.62 72.73,2.70 56.55,2.79 40.48,2.93 24.90,3.27 11.22,4.19 4.01,7.81 2.76,18.57 2.53,32.62 2.39,39.02 2.32,39.31 2.18,39.58 1.97,39.81 1.72,39.98 1.43,40.09 1.13,40.13 0.83,40.09 0.54,39.98 0.29,39.80 0.09,39.57 -0.05,39.30 -0.13,39.01 Z" fill="#ff2133" stroke="#ff2133" stroke-width="2" pointer-events="none"/></g><text font-size="28px" font-family="Caveat Brush" font-weight="normal" line-height="28px" letter-spacing="-0.03em" text-align="center" dominant-baseline="mathematical" alignment-baseline="mathematical" text-anchor="middle" transform="translate(128.5, 45)" fill="#ff2133" transform-origin="center center"><tspan y="14px" x="99.5">Prometheus Metrics
</tspan></text></g><g text-align="center" text-anchor="middle" transform="translate(2192.00, 176.00) rotate(0.00, 192.00, 64.00)"><g id="0985b72e-2922-4cc4-2e6b-c4fceac419da_svg" class="tl-centered-g"><path d="M-0.95,39.10 Q-1.13,26.65 -1.21,18.81 T0.57,6.96 9.22,1.82 23.79,0.50 39.63,0.25 55.79,0.23 72.03,0.26 88.30,0.31 104.57,0.36 120.85,0.41 137.12,0.46 153.40,0.51 169.67,0.56 185.95,0.58 202.23,0.55 218.50,0.49 234.78,0.42 251.05,0.36 267.33,0.30 283.60,0.24 299.88,0.17 316.16,0.11 332.43,0.05 348.71,-0.01 365.01,-0.07 377.28,1.77 382.44,10.58 383.63,25.51 383.71,41.74 383.66,58.31 383.74,74.98 383.90,91.67 384.05,108.39 382.26,120.91 373.61,126.22 359.05,127.59 343.21,127.85 327.06,127.88 310.82,127.85 294.56,127.81 278.29,127.77 262.02,127.72 245.75,127.67 229.48,127.63 213.21,127.58 196.94,127.56 180.67,127.60 164.40,127.67 148.13,127.73 131.86,127.80 115.59,127.87 99.33,127.93 83.06,128.00 66.79,128.07 50.52,128.13 34.25,128.20 17.95,128.26 5.69,126.42 0.52,117.61 -0.69,102.67 -0.79,86.43 -0.76,69.84 -0.86,53.16 -1.04,33.60 -1.09,22.16 -0.94,21.71 -0.65,21.34 -0.27,21.08 0.18,20.95 0.65,20.98 1.09,21.15 1.44,21.45 1.68,21.86 1.78,22.31 1.73,22.78 1.54,23.20 1.21,23.54 0.80,23.76 0.34,23.83 -0.12,23.76 -0.54,23.54 -0.86,23.20 -1.05,22.78 -1.10,22.31 -1.00,21.85 -0.76,21.45 -0.40,21.15 0.03,20.98 0.50,20.95 0.95,21.08 1.33,21.34 1.62,21.71 1.77,22.16 1.80,22.39 1.70,33.60 1.51,53.16 1.43,69.83 1.58,86.38 2.04,102.44 3.10,116.53 6.87,123.90 18.00,125.03 34.25,125.07 50.51,125.12 66.78,125.16 83.05,125.21 99.32,125.26 115.59,125.30 131.86,125.35 148.13,125.40 164.40,125.44 180.67,125.49 196.94,125.51 213.21,125.47 229.48,125.40 245.75,125.33 262.02,125.27 278.29,125.20 294.55,125.13 310.81,125.06 327.04,124.98 343.15,124.83 358.77,124.48 372.50,123.52 379.72,119.74 380.95,108.33 381.16,91.66 381.37,74.97 381.48,58.32 381.34,41.78 380.90,25.74 379.86,11.66 376.10,4.29 364.96,3.16 348.71,3.12 332.43,3.07 316.16,3.02 299.88,2.96 283.61,2.91 267.33,2.86 251.05,2.81 234.78,2.76 218.50,2.71 202.23,2.66 185.95,2.64 169.68,2.67 153.40,2.74 137.12,2.80 120.85,2.86 104.57,2.92 88.30,2.99 72.03,3.06 55.80,3.14 39.68,3.27 24.05,3.61 10.33,4.53 3.10,8.13 1.89,18.87 1.70,32.88 1.59,39.25 1.51,39.55 1.37,39.82 1.17,40.05 0.92,40.22 0.63,40.33 0.33,40.37 0.02,40.33 -0.26,40.22 -0.51,40.05 -0.72,39.82 -0.86,39.55 -0.93,39.25 Z" fill="#7746f1" stroke="#7746f1" stroke-width="2" pointer-events="none"/></g><text font-size="28px" font-family="Caveat Brush" font-weight="normal" line-height="28px" letter-spacing="-0.03em" text-align="center" dominant-baseline="mathematical" alignment-baseline="mathematical" text-anchor="middle" transform="translate(149, 45)" fill="#7746f1" transform-origin="center center"><tspan y="14px" x="47">Grafana
</tspan></text></g><g text-align="center" text-anchor="middle" transform="translate(235.20, 528.00) rotate(0.00, 283.77, 200.00)"><g id="cb27c389-5497-4b15-152e-da060fd7be59_svg" class="tl-centered-g"><defs><mask id="cb27c389-5497-4b15-152e-da060fd7be59_clip"><rect x="-100" y="-100" width="767.55" height="600" fill="white"/><rect x="203.27" y="181" width="161" height="38" rx="4" ry="4" fill="black" opacity="1"/></mask></defs><g pointer-events="none" opacity="1" mask="url(#cb27c389-5497-4b15-152e-da060fd7be59_clip)"><path d="M0,0L567.55,400" fill="#1d1d1d" stroke="#1d1d1d" stroke-width="4.23" stroke-dasharray="none" stroke-dashoffset="none" stroke-linecap="round" stroke-linejoin="round" pointer-events="stroke"/><g><path d="M 560.83,385.4784246263368 L 567.55,400 551.61,398.5566762365858" fill="none" stroke="#1d1d1d" stroke-width="4.23" stroke-linecap="round" stroke-linejoin="round" pointer-events="none"/></g></g></g><text font-size="28px" font-family="Caveat Brush" font-weight="normal" line-height="28px" letter-spacing="-0.03em" text-align="left" dominant-baseline="mathematical" alignment-baseline="mathematical" text-anchor="start" transform="translate(203.26999999999998, 181)" fill="#1d1d1d" transform-origin="center center"><tspan y="14px" x="4">Metrics + Traces
</tspan></text></g><g text-align="center" text-anchor="middle" transform="translate(954.67, 320.00) rotate(0.00, 364.00, 312.00)"><g id="e050078f-e00c-4f00-0aed-22168941e365_svg" class="tl-centered-g"><defs><mask id="e050078f-e00c-4f00-0aed-22168941e365_clip"><rect x="-100" y="-100" width="928.00" height="824" fill="white"/><rect x="262.40" y="220.55" width="79" height="38" rx="4" ry="4" fill="black" opacity="1"/></mask></defs><g pointer-events="none" opacity="1" mask="url(#e050078f-e00c-4f00-0aed-22168941e365_clip)"><path d="M 0 624 A 1252.04 1252.04 0 0 1 728 0" fill="none" stroke="#1d1d1d" stroke-width="4.23" stroke-dasharray="none" stroke-dashoffset="none" stroke-linecap="round" stroke-linejoin="round" pointer-events="none"/><g><path d="M 712.33,-3.2408659849990324 L 728,0 717.35,11.948744976355366" fill="none" stroke="#1d1d1d" stroke-width="4.23" stroke-linecap="round" stroke-linejoin="round" pointer-events="none"/></g></g></g><text font-size="28px" font-family="Caveat Brush" font-weight="normal" line-height="28px" letter-spacing="-0.03em" text-align="left" dominant-baseline="mathematical" alignment-baseline="mathematical" text-anchor="start" transform="translate(262.4, 220.55)" fill="#1d1d1d" transform-origin="center center"><tspan y="14px" x="4">Metrics
</tspan></text></g><g id="94d26c52-3886-4fa7-2ce9-4d15cd51c6dd_svg" class="tl-centered-g" transform="translate(2000.00, 240.00) rotate(0.00, 88.00, 0.50)"><defs><mask id="94d26c52-3886-4fa7-2ce9-4d15cd51c6dd_clip"><rect x="-100" y="-100" width="376" height="201" fill="white"/><rect x="88" y="0" width="0" height="0" rx="4" ry="4" fill="black" opacity="1"/></mask></defs><g pointer-events="none" opacity="1" mask=""><path d="M0,0L176,0" fill="#1d1d1d" stroke="#1d1d1d" stroke-width="4.23" stroke-dasharray="none" stroke-dashoffset="none" stroke-linecap="round" stroke-linejoin="round" pointer-events="stroke"/><g><path d="M 162.14,-7.999999999999999 L 176,0 162.14,7.999999999999999" fill="none" stroke="#1d1d1d" stroke-width="4.23" stroke-linecap="round" stroke-linejoin="round" pointer-events="none"/></g></g></g><g id="0e29a261-bfe4-4854-30d6-98378d12077f_svg" class="tl-centered-g" transform="translate(1456.00, 496.00) rotate(0.00, 592.00, 128.00)"><g pointer-events="none" stroke="#1d1d1d" stroke-width="4.23" stroke-linecap="round"><line x1="2.11" y1="2.11" x2="1181.88" y2="2.11" stroke-dasharray="6.47 6.49" stroke-dashoffset="3.23"/><line x1="1181.88" y1="2.11" x2="1181.88" y2="253.88" stroke-dasharray="6.47 6.77" stroke-dashoffset="3.23"/><line x1="1181.88" y1="253.88" x2="2.11" y2="253.88" stroke-dasharray="6.47 6.49" stroke-dashoffset="3.23"/><line x1="2.11" y1="253.88" x2="2.11" y2="2.11" stroke-dasharray="6.47 6.77" stroke-dashoffset="3.23"/></g></g><g text-align="center" text-anchor="middle" transform="translate(496.00, 528.00) rotate(0.00, 128.00, 64.00)"><g id="e9a575d4-e939-4a0f-35cd-13dfa4d343cc_svg" class="tl-centered-g"><path d="M168.53,127.92 Q156.30,127.90 148.63,127.90 T132.89,127.94 116.65,128.07 100.29,128.25 83.89,128.43 67.48,128.60 51.07,128.78 34.66,128.96 18.23,129.13 5.87,127.34 0.73,118.47 -0.35,103.40 -0.30,86.99 -0.11,70.23 -0.06,53.38 -0.08,36.50 -0.10,19.59 1.78,6.95 10.50,1.64 25.17,0.30 41.13,0.09 57.41,0.11 73.77,0.18 90.16,0.27 106.55,0.36 122.95,0.41 139.34,0.37 155.74,0.29 172.14,0.21 188.53,0.13 204.93,0.05 221.32,-0.03 237.74,-0.11 250.09,1.73 255.23,10.54 256.33,25.45 256.32,41.66 256.16,58.22 256.14,74.86 256.19,91.54 256.24,108.24 254.38,120.75 245.67,126.06 230.98,127.47 215.01,127.78 198.72,127.86 182.34,127.88 165.94,127.89 149.53,127.89 133.12,127.94 116.71,128.07 97.49,128.26 86.29,128.34 85.92,128.22 85.61,127.98 85.39,127.66 85.28,127.29 85.30,126.90 85.44,126.54 85.69,126.24 86.02,126.04 86.40,125.95 86.79,125.99 87.14,126.15 87.43,126.42 87.61,126.76 87.67,127.15 87.61,127.53 87.43,127.87 87.15,128.14 86.80,128.31 86.41,128.35 86.03,128.27 85.70,128.07 85.45,127.78 85.30,127.42 85.28,127.03 85.38,126.65 85.60,126.33 85.91,126.09 86.27,125.97 86.47,125.94 97.48,125.92 116.70,125.90 133.11,125.85 149.52,125.72 165.92,125.54 182.32,125.36 198.69,125.16 214.94,124.91 230.70,124.45 244.54,123.40 251.84,119.57 253.13,108.17 253.45,91.52 253.77,74.85 253.98,58.21 253.94,41.69 253.60,25.67 252.65,11.60 248.90,4.24 237.69,3.09 221.32,3.01 204.93,2.91 188.53,2.82 172.13,2.73 155.74,2.64 139.34,2.54 122.95,2.49 106.55,2.53 90.16,2.61 73.77,2.70 57.42,2.80 41.18,2.96 25.44,3.33 11.61,4.31 4.31,8.14 3.01,19.67 2.66,36.53 2.31,53.40 2.07,70.24 2.07,86.96 2.39,103.19 3.32,117.43 7.05,124.84 18.26,125.92 34.65,125.92 51.06,125.91 67.47,125.91 83.87,125.91 100.27,125.90 116.64,125.90 132.88,125.85 148.62,125.72 162.40,125.56 168.66,125.50 168.94,125.57 169.20,125.70 169.42,125.90 169.59,126.13 169.69,126.41 169.73,126.69 169.70,126.98 169.59,127.26 169.43,127.50 169.21,127.69 168.96,127.83 168.67,127.90 Z" fill="#36b24d" stroke="#36b24d" stroke-width="2" pointer-events="none"/></g><text font-size="28px" font-family="Caveat Brush" font-weight="normal" line-height="28px" letter-spacing="-0.03em" text-align="center" dominant-baseline="mathematical" alignment-baseline="mathematical" text-anchor="middle" transform="translate(84, 45)" fill="#36b24d" transform-origin="center center"><tspan y="14px" x="48">Promtail
</tspan></text></g><g text-align="center" text-anchor="middle" transform="translate(1584.00, 560.00) rotate(0.00, 208.00, 64.00)"><g id="0b9ab56b-afdc-4620-293d-737b46034732_svg" class="tl-centered-g"><path d="M329.54,129.13 Q317.42,129.07 309.82,129.05 T294.22,128.99 278.13,128.94 261.92,128.89 245.67,128.84 229.41,128.78 213.15,128.76 196.89,128.78 180.63,128.83 164.37,128.88 148.11,128.94 131.85,128.99 115.59,129.04 99.33,129.09 83.07,129.14 66.81,129.19 50.55,129.24 34.29,129.29 18.00,129.34 5.74,127.48 0.62,118.53 -0.49,103.30 -0.47,86.72 -0.33,69.79 -0.31,52.76 -0.37,35.70 -0.43,18.62 1.43,5.87 10.08,0.51 24.64,-0.86 40.45,-1.09 56.59,-1.10 72.80,-1.05 89.05,-0.98 105.29,-0.91 121.54,-0.84 137.79,-0.77 154.04,-0.69 170.28,-0.62 186.53,-0.55 202.78,-0.50 219.03,-0.51 235.28,-0.54 251.53,-0.57 267.78,-0.61 284.02,-0.64 300.27,-0.67 316.52,-0.70 332.77,-0.74 349.02,-0.77 365.27,-0.80 381.52,-0.83 397.79,-0.86 410.04,1.01 415.18,9.94 416.32,25.11 416.34,41.63 416.24,58.49 416.26,75.45 416.37,92.44 416.46,109.46 414.63,122.17 405.99,127.52 391.42,128.90 375.60,129.16 359.45,129.18 343.22,129.15 326.97,129.10 310.71,129.05 294.45,128.99 278.19,128.94 261.93,128.89 245.67,128.84 229.41,128.78 213.15,128.76 196.89,128.78 177.85,128.83 166.75,128.83 166.41,128.71 166.12,128.50 165.92,128.20 165.83,127.85 165.84,127.49 165.98,127.15 166.21,126.88 166.52,126.69 166.87,126.61 167.23,126.65 167.56,126.81 167.82,127.05 167.99,127.37 168.05,127.73 167.99,128.08 167.82,128.40 167.56,128.65 167.23,128.80 166.87,128.84 166.52,128.76 166.21,128.58 165.98,128.30 165.84,127.97 165.83,127.61 165.92,127.26 166.12,126.96 166.41,126.74 166.75,126.63 166.93,126.60 177.85,126.62 196.89,126.68 213.15,126.70 229.41,126.68 245.67,126.63 261.93,126.58 278.19,126.53 294.45,126.47 310.71,126.42 326.97,126.37 343.22,126.31 359.44,126.24 375.54,126.12 391.15,125.78 404.87,124.82 412.10,120.99 413.36,109.40 413.63,92.43 413.89,75.44 414.05,58.49 413.97,41.66 413.59,25.33 412.59,11.00 408.86,3.52 397.74,2.38 381.51,2.31 365.26,2.24 349.02,2.17 332.77,2.10 316.52,2.02 300.27,1.95 284.02,1.88 267.77,1.81 251.52,1.74 235.28,1.67 219.03,1.59 202.78,1.55 186.53,1.55 170.28,1.59 154.03,1.62 137.79,1.65 121.54,1.68 105.29,1.72 89.04,1.75 72.80,1.79 56.60,1.84 40.51,1.95 24.91,2.27 11.20,3.21 3.96,7.04 2.68,18.69 2.37,35.72 2.06,52.77 1.86,69.79 1.90,86.69 2.24,103.09 3.20,117.48 6.93,124.98 18.05,126.10 34.29,126.15 50.55,126.20 66.81,126.26 83.07,126.31 99.33,126.36 115.59,126.41 131.85,126.47 148.11,126.52 164.37,126.57 180.63,126.63 196.89,126.68 213.15,126.70 229.41,126.68 245.67,126.63 261.92,126.58 278.13,126.53 294.22,126.47 309.82,126.42 323.48,126.37 329.70,126.37 330.03,126.45 330.32,126.60 330.57,126.82 330.76,127.10 330.88,127.41 330.92,127.74 330.88,128.07 330.76,128.38 330.57,128.65 330.32,128.87 330.03,129.03 329.70,129.11 Z" fill="#ff2133" stroke="#ff2133" stroke-width="2" pointer-events="none"/></g><text font-size="28px" font-family="Caveat Brush" font-weight="normal" line-height="28px" letter-spacing="-0.03em" text-align="center" dominant-baseline="mathematical" alignment-baseline="mathematical" text-anchor="middle" transform="translate(185, 45)" fill="#ff2133" transform-origin="center center"><tspan y="14px" x="27">Loki
</tspan></text></g><g text-align="center" text-anchor="middle" transform="translate(2192.00, 560.00) rotate(0.00, 192.00, 64.00)"><g id="a66be7bd-3db7-4020-347a-39cb1ce8aa8d_svg" class="tl-centered-g"><path d="M298.15,128.01 Q286.01,128.00 278.38,128.00 T262.74,128.00 246.61,128.00 230.35,128.01 214.05,128.01 197.75,128.04 181.44,128.13 165.14,128.25 148.83,128.37 132.53,128.48 116.22,128.60 99.92,128.72 83.61,128.84 67.31,128.95 51.00,129.07 34.70,129.19 18.37,129.30 6.08,127.49 0.92,118.56 -0.23,103.38 -0.28,86.85 -0.19,69.96 -0.23,52.99 -0.34,35.98 -0.45,18.95 1.37,6.22 10.00,0.88 24.53,-0.49 40.33,-0.72 56.44,-0.73 72.64,-0.68 88.86,-0.61 105.09,-0.54 121.32,-0.47 137.54,-0.40 153.77,-0.32 170.00,-0.25 186.23,-0.21 202.45,-0.22 218.68,-0.26 234.91,-0.30 251.14,-0.35 267.37,-0.39 283.59,-0.43 299.82,-0.47 316.05,-0.51 332.28,-0.55 348.51,-0.59 364.76,-0.63 376.99,1.22 382.22,10.05 383.59,25.03 383.88,41.33 384.04,57.96 384.34,74.69 384.71,91.44 385.07,108.23 383.41,120.80 374.79,126.15 360.21,127.57 344.34,127.88 328.15,127.96 311.88,127.98 295.58,127.99 279.28,127.99 262.97,128.00 246.67,128.00 230.36,128.01 214.05,128.01 197.75,128.04 181.44,128.13 162.35,128.26 151.22,128.30 150.88,128.18 150.59,127.97 150.38,127.66 150.28,127.31 150.30,126.95 150.43,126.61 150.67,126.33 150.98,126.14 151.34,126.06 151.70,126.10 152.03,126.25 152.30,126.50 152.47,126.82 152.53,127.18 152.47,127.54 152.30,127.87 152.04,128.12 151.71,128.27 151.34,128.31 150.99,128.24 150.67,128.05 150.44,127.77 150.30,127.43 150.28,127.07 150.38,126.72 150.58,126.42 150.87,126.19 151.21,126.08 151.40,126.05 162.34,126.03 181.44,126.02 197.74,125.99 214.05,125.90 230.35,125.78 246.66,125.66 262.96,125.55 279.27,125.43 295.57,125.31 311.86,125.19 328.13,125.05 344.27,124.86 359.93,124.46 373.67,123.45 380.88,119.65 381.97,108.21 381.97,91.48 381.97,74.72 381.86,58.00 381.51,41.40 380.87,25.29 379.66,11.16 375.82,3.76 364.71,2.60 348.50,2.54 332.28,2.47 316.05,2.39 299.82,2.32 283.59,2.25 267.36,2.18 251.14,2.11 234.91,2.03 218.68,1.96 202.45,1.89 186.22,1.85 170.00,1.86 153.77,1.90 137.54,1.94 121.31,1.98 105.09,2.03 88.86,2.07 72.64,2.11 56.46,2.17 40.39,2.29 24.81,2.62 11.12,3.57 3.90,7.40 2.65,19.01 2.40,35.99 2.15,52.99 2.00,69.96 2.09,86.81 2.50,103.16 3.51,117.50 7.25,124.98 18.40,126.07 34.69,126.06 50.99,126.05 67.30,126.05 83.60,126.04 99.91,126.04 116.21,126.04 132.52,126.03 148.82,126.03 165.13,126.02 181.44,126.02 197.74,125.99 214.04,125.90 230.34,125.78 246.60,125.66 262.73,125.55 278.37,125.43 292.07,125.33 298.31,125.29 298.63,125.37 298.92,125.52 299.16,125.74 299.35,126.01 299.47,126.31 299.51,126.64 299.47,126.96 299.35,127.27 299.17,127.54 298.92,127.76 298.64,127.91 298.32,127.99 Z" fill="#7746f1" stroke="#7746f1" stroke-width="2" pointer-events="none"/></g><text font-size="28px" font-family="Caveat Brush" font-weight="normal" line-height="28px" letter-spacing="-0.03em" text-align="center" dominant-baseline="mathematical" alignment-baseline="mathematical" text-anchor="middle" transform="translate(149, 45)" fill="#7746f1" transform-origin="center center"><tspan y="14px" x="47">Grafana
</tspan></text></g><g text-align="center" text-anchor="middle" transform="translate(272.00, 490.16) rotate(0.00, 104.00, 44.07)"><g id="49d36352-0907-4b69-1b2a-0660f843c953_svg" class="tl-centered-g"><defs><mask id="49d36352-0907-4b69-1b2a-0660f843c953_clip"><rect x="-100" y="-100" width="408" height="288.14" fill="white"/><rect x="81.5" y="25.07" width="45" height="38" rx="4" ry="4" fill="black" opacity="1"/></mask></defs><g pointer-events="none" opacity="1" mask="url(#49d36352-0907-4b69-1b2a-0660f843c953_clip)"><path d="M0.39,-0.92 Q51.91,20.97 77.67,31.92 T129.19,53.79 180.72,75.66 206.60,86.66 206.80,86.84 206.93,87.07 206.98,87.33 206.95,87.60 206.83,87.84 206.64,88.03 206.40,88.15 206.14,88.18 205.88,88.13 205.65,88.00 205.47,87.81 205.36,87.56 205.34,87.30 205.40,87.04 205.54,86.81 205.75,86.64 206.00,86.55 206.27,86.54 206.52,86.62 206.74,86.77 206.89,86.99 206.97,87.24 206.97,87.51 206.88,87.76 206.71,87.97 206.49,88.12 206.23,88.18 205.96,88.16 205.83,88.13 180.06,77.22 128.51,55.41 76.95,33.60 25.39,11.81 -0.50,0.86 -0.69,0.72 -0.84,0.53 -0.94,0.32 -0.99,0.08 -0.98,-0.16 -0.92,-0.39 -0.80,-0.60 -0.63,-0.77 -0.43,-0.90 -0.20,-0.98 0.04,-0.99 0.28,-0.96 Z" fill="#1d1d1d" stroke="#1d1d1d" stroke-width="2.11" stroke-dasharray="none" stroke-dashoffset="none" stroke-linecap="round" stroke-linejoin="round" pointer-events="stroke"/><g><path d="M 198.36,75.36774954285242 L 208,88.14 192.12,90.09966494940936" fill="none" stroke="#1d1d1d" stroke-width="4.23" stroke-linecap="round" stroke-linejoin="round" pointer-events="none"/></g></g></g><text font-size="28px" font-family="Caveat Brush" font-weight="normal" line-height="28px" letter-spacing="-0.03em" text-align="left" dominant-baseline="mathematical" alignment-baseline="mathematical" text-anchor="start" transform="translate(81.5, 25.07)" fill="#1d1d1d" transform-origin="center center"><tspan y="14px" x="4">logs
</tspan></text></g><g id="f345775e-659e-45b5-2ef7-39bd0f577538_svg" class="tl-centered-g" transform="translate(660.03, 656.00) rotate(0.00, 76.57, 136.00)"><defs><mask id="f345775e-659e-45b5-2ef7-39bd0f577538_clip"><rect x="-100" y="-100" width="353.14" height="472" fill="white"/><rect x="76.57" y="136" width="0" height="0" rx="4" ry="4" fill="black" opacity="1"/></mask></defs><g pointer-events="none" opacity="1" mask=""><path d="M0.82,-0.46 Q38.80,67.14 57.80,100.93 T95.80,168.52 133.81,236.10 152.86,270.00 152.90,270.24 152.87,270.48 152.76,270.69 152.59,270.86 152.38,270.97 152.14,271.00 151.90,270.95 151.69,270.83 151.53,270.66 151.44,270.43 151.42,270.20 151.48,269.96 151.61,269.76 151.80,269.61 152.02,269.53 152.26,269.52 152.49,269.59 152.68,269.73 152.82,269.93 152.89,270.16 152.89,270.40 152.80,270.62 152.65,270.81 152.45,270.94 152.22,271.00 151.98,270.98 151.76,270.88 151.58,270.72 151.50,270.63 132.47,236.85 94.40,169.30 56.32,101.76 18.23,34.23 -0.86,0.36 -0.92,0.14 -0.93,-0.09 -0.88,-0.31 -0.79,-0.51 -0.64,-0.68 -0.46,-0.82 -0.25,-0.90 -0.03,-0.94 0.20,-0.91 0.41,-0.84 0.60,-0.72 0.75,-0.55 Z" fill="#1d1d1d" stroke="#1d1d1d" stroke-width="2.11" stroke-dasharray="none" stroke-dashoffset="none" stroke-linecap="round" stroke-linejoin="round" pointer-events="stroke"/><g><path d="M 153.31,256.0009362944967 L 153.14,272 139.37,263.85056681158073" fill="none" stroke="#1d1d1d" stroke-width="4.23" stroke-linecap="round" stroke-linejoin="round" pointer-events="none"/></g></g></g><g id="670563a3-2c47-4438-1a8a-86b5c9626a87_svg" class="tl-centered-g" transform="translate(2000.00, 624.00) rotate(0.00, 88.00, 0.50)"><defs><mask id="670563a3-2c47-4438-1a8a-86b5c9626a87_clip"><rect x="-100" y="-100" width="376" height="201" fill="white"/><rect x="88" y="0" width="0" height="0" rx="4" ry="4" fill="black" opacity="1"/></mask></defs><g pointer-events="none" opacity="1" mask=""><path d="M0.00,-0.98 Q43.50,-0.91 65.25,-0.89 T108.75,-0.85 152.25,-0.82 174.13,-0.78 174.37,-0.70 174.58,-0.55 174.72,-0.33 174.79,-0.09 174.77,0.17 174.68,0.41 174.51,0.60 174.29,0.74 174.04,0.79 173.79,0.76 173.56,0.66 173.37,0.48 173.25,0.25 173.21,-0.00 173.25,-0.25 173.37,-0.48 173.56,-0.66 173.79,-0.76 174.04,-0.79 174.29,-0.74 174.51,-0.60 174.68,-0.41 174.77,-0.17 174.79,0.09 174.72,0.33 174.58,0.55 174.37,0.70 174.13,0.78 174.00,0.80 152.25,0.82 108.75,0.85 65.25,0.89 21.75,0.95 -0.12,0.97 -0.34,0.91 -0.55,0.80 -0.73,0.64 -0.86,0.45 -0.94,0.23 -0.97,-0.00 -0.94,-0.23 -0.86,-0.45 -0.73,-0.64 -0.55,-0.80 -0.34,-0.91 -0.12,-0.97 Z" fill="#1d1d1d" stroke="#1d1d1d" stroke-width="2.11" stroke-dasharray="none" stroke-dashoffset="none" stroke-linecap="round" stroke-linejoin="round" pointer-events="stroke"/><g><path d="M 162.14,-7.999999999999999 L 176,0 162.14,7.999999999999999" fill="none" stroke="#1d1d1d" stroke-width="4.23" stroke-linecap="round" stroke-linejoin="round" pointer-events="none"/></g></g></g><text font-size="68.52584741710051px" font-family="Caveat Brush" font-weight="normal" line-height="68.52584741710051px" letter-spacing="-0.03em" text-align="left" dominant-baseline="mathematical" alignment-baseline="mathematical" text-anchor="start" fill="#1d1d1d" transform="translate(1584.00, 400.00) rotate(0.00, 220.00, 39.50)"><tspan y="34.262923708550254px" x="4">Application Logging
</tspan></text><g id="14c489f0-1beb-4f10-2006-41dcfb955c24_svg" class="tl-centered-g" transform="translate(1200.00, 880.00) rotate(0.00, 720.00, 240.00)"><g pointer-events="none" stroke="#1d1d1d" stroke-width="4.23" stroke-linecap="round"><line x1="2.11" y1="2.11" x2="1437.88" y2="2.11" stroke-dasharray="6.47 6.58" stroke-dashoffset="3.23"/><line x1="1437.88" y1="2.11" x2="1437.88" y2="477.88" stroke-dasharray="6.47 6.74" stroke-dashoffset="3.23"/><line x1="1437.88" y1="477.88" x2="2.11" y2="477.88" stroke-dasharray="6.47 6.58" stroke-dashoffset="3.23"/><line x1="2.11" y1="477.88" x2="2.11" y2="2.11" stroke-dasharray="6.47 6.74" stroke-dashoffset="3.23"/></g></g><g text-align="center" text-anchor="middle" transform="translate(1584.00, 944.00) rotate(0.00, 208.00, 64.00)"><g id="30344a64-05a4-4091-065f-efc855077046_svg" class="tl-centered-g"><path d="M-0.73,38.88 Q-0.98,26.31 -1.11,18.40 T0.62,6.44 9.24,1.28 23.80,-0.07 39.62,-0.32 55.76,-0.36 72.00,-0.34 88.25,-0.30 104.51,-0.27 120.77,-0.23 137.03,-0.19 153.29,-0.15 169.55,-0.12 185.82,-0.08 202.08,-0.07 218.34,-0.11 234.60,-0.17 250.86,-0.24 267.12,-0.31 283.38,-0.37 299.65,-0.44 315.91,-0.50 332.17,-0.57 348.43,-0.64 364.69,-0.70 380.95,-0.77 397.24,-0.83 409.50,1.01 414.66,9.92 415.84,25.06 415.92,41.53 415.86,58.36 415.94,75.28 416.09,92.22 416.24,109.19 414.44,121.88 405.81,127.23 391.28,128.60 375.48,128.85 359.37,128.86 343.17,128.82 326.95,128.77 310.73,128.71 294.50,128.65 278.27,128.59 262.05,128.53 245.82,128.47 229.59,128.41 213.37,128.37 197.14,128.39 180.91,128.43 164.68,128.48 148.46,128.52 132.23,128.57 116.00,128.61 99.77,128.65 83.55,128.70 67.32,128.74 51.09,128.78 34.86,128.83 18.61,128.87 6.38,127.02 1.18,118.14 -0.11,103.07 -0.30,86.67 -0.37,69.92 -0.56,53.08 -0.85,33.33 -0.97,21.78 -0.82,21.33 -0.54,20.96 -0.15,20.70 0.30,20.57 0.76,20.59 1.20,20.76 1.56,21.06 1.80,21.46 1.90,21.92 1.85,22.38 1.66,22.81 1.34,23.15 0.93,23.37 0.47,23.45 0.01,23.38 -0.41,23.16 -0.73,22.82 -0.93,22.40 -0.98,21.93 -0.88,21.48 -0.65,21.07 -0.29,20.77 0.14,20.59 0.61,20.57 1.06,20.69 1.45,20.95 1.73,21.32 1.89,21.76 1.92,22.00 1.89,33.32 1.81,53.07 1.82,69.90 2.07,86.61 2.62,102.82 3.75,117.05 7.55,124.49 18.66,125.63 34.87,125.68 51.09,125.74 67.32,125.80 83.55,125.86 99.78,125.92 116.00,125.99 132.23,126.05 148.46,126.11 164.68,126.17 180.91,126.23 197.14,126.29 213.37,126.32 229.59,126.30 245.82,126.26 262.05,126.22 278.28,126.17 294.50,126.13 310.73,126.08 326.95,126.04 343.17,125.99 359.36,125.93 375.43,125.81 391.00,125.47 404.69,124.52 411.91,120.71 413.13,109.14 413.35,92.22 413.57,75.27 413.68,58.36 413.55,41.57 413.11,25.28 412.08,10.99 408.32,3.53 397.19,2.41 380.96,2.37 364.69,2.34 348.43,2.30 332.17,2.26 315.91,2.22 299.65,2.19 283.39,2.15 267.13,2.11 250.86,2.07 234.60,2.03 218.34,2.00 202.08,1.98 185.82,2.02 169.56,2.09 153.29,2.16 137.03,2.22 120.77,2.29 104.51,2.36 88.25,2.42 72.00,2.49 55.78,2.58 39.68,2.72 24.06,3.06 10.35,3.98 3.15,7.61 1.99,18.44 1.89,32.58 1.81,39.02 1.73,39.32 1.59,39.59 1.39,39.82 1.14,40.00 0.86,40.11 0.55,40.15 0.25,40.11 -0.04,40.00 -0.29,39.83 -0.50,39.60 -0.64,39.33 -0.71,39.04 Z" fill="#ff2133" stroke="#ff2133" stroke-width="2" pointer-events="none"/></g><text font-size="28px" font-family="Caveat Brush" font-weight="normal" line-height="28px" letter-spacing="-0.03em" text-align="center" dominant-baseline="mathematical" alignment-baseline="mathematical" text-anchor="middle" transform="translate(185, 45)" fill="#ff2133" transform-origin="center center"><tspan y="14px" x="27">Loki
</tspan></text></g><g text-align="center" text-anchor="middle" transform="translate(2192.00, 944.00) rotate(0.00, 192.00, 64.00)"><g id="bae4f8e9-36aa-4b49-34e8-56fe551c936a_svg" class="tl-centered-g"><path d="M86.40,0.06 Q98.48,0.09 106.07,0.10 T121.63,0.12 137.69,0.14 153.87,0.16 170.09,0.18 186.31,0.17 202.53,0.10 218.76,0.01 234.98,-0.09 251.21,-0.18 267.43,-0.27 283.66,-0.37 299.88,-0.46 316.11,-0.56 332.33,-0.65 348.56,-0.74 364.81,-0.83 377.05,0.99 382.21,9.91 383.41,25.07 383.52,41.58 383.49,58.44 383.59,75.39 383.77,92.37 383.94,109.38 382.16,122.09 373.52,127.43 358.96,128.77 343.12,128.98 326.97,128.96 310.74,128.89 294.48,128.80 278.22,128.70 261.95,128.61 245.69,128.51 229.42,128.41 213.15,128.32 196.89,128.25 180.62,128.24 164.36,128.26 148.09,128.28 131.82,128.29 115.56,128.31 99.29,128.33 83.02,128.35 66.76,128.36 50.49,128.38 34.23,128.40 17.94,128.41 5.67,126.53 0.55,117.70 -0.54,102.74 -0.51,86.47 -0.35,69.86 -0.32,53.16 -0.36,36.43 -0.40,19.67 1.46,7.13 10.11,1.81 24.64,0.41 40.43,0.12 56.54,0.07 72.74,0.07 88.96,0.08 105.18,0.10 121.41,0.12 137.63,0.14 153.86,0.16 170.08,0.18 186.31,0.17 202.53,0.10 221.53,0.00 232.61,-0.02 232.95,0.09 233.24,0.31 233.45,0.61 233.54,0.96 233.53,1.33 233.39,1.67 233.16,1.95 232.84,2.13 232.49,2.21 232.13,2.17 231.80,2.02 231.53,1.77 231.36,1.45 231.30,1.09 231.36,0.73 231.53,0.41 231.79,0.16 232.12,0.00 232.48,-0.04 232.84,0.04 233.15,0.23 233.39,0.51 233.52,0.84 233.55,1.21 233.45,1.56 233.24,1.86 232.95,2.08 232.61,2.20 232.43,2.23 221.54,2.23 202.54,2.21 186.31,2.22 170.09,2.29 153.86,2.38 137.64,2.48 121.41,2.57 105.19,2.66 88.96,2.76 72.75,2.86 56.57,2.97 40.50,3.14 24.92,3.52 11.23,4.50 4.00,8.31 2.70,19.74 2.38,36.45 2.06,53.17 1.84,69.87 1.86,86.45 2.19,102.53 3.14,116.64 6.86,124.02 17.99,125.18 34.23,125.27 50.50,125.36 66.77,125.46 83.03,125.55 99.30,125.65 115.56,125.75 131.83,125.84 148.10,125.94 164.36,126.03 180.63,126.13 196.89,126.19 213.16,126.21 229.43,126.19 245.69,126.17 261.96,126.15 278.22,126.14 294.49,126.12 310.74,126.09 326.97,126.06 343.07,125.96 358.69,125.65 372.41,124.72 379.63,120.92 380.84,109.33 381.03,92.37 381.22,75.39 381.30,58.45 381.15,41.62 380.69,25.30 379.63,10.98 375.87,3.51 364.76,2.40 348.56,2.39 332.34,2.37 316.11,2.35 299.89,2.33 283.66,2.31 267.44,2.29 251.21,2.27 234.99,2.25 218.76,2.23 202.54,2.21 186.31,2.22 170.09,2.29 153.88,2.38 137.69,2.48 121.64,2.57 106.07,2.66 92.45,2.75 86.24,2.77 85.92,2.69 85.63,2.54 85.39,2.33 85.20,2.06 85.08,1.75 85.04,1.43 85.08,1.10 85.20,0.80 85.38,0.53 85.63,0.31 85.92,0.16 86.23,0.08 Z" fill="#7746f1" stroke="#7746f1" stroke-width="2" pointer-events="none"/></g><text font-size="28px" font-family="Caveat Brush" font-weight="normal" line-height="28px" letter-spacing="-0.03em" text-align="center" dominant-baseline="mathematical" alignment-baseline="mathematical" text-anchor="middle" transform="translate(149, 45)" fill="#7746f1" transform-origin="center center"><tspan y="14px" x="47">Grafana
</tspan></text></g><g id="c1273747-2024-43cb-3ff9-f5e285e818cf_svg" class="tl-centered-g" transform="translate(2000.00, 1008.00) rotate(0.00, 88.00, 0.50)"><defs><mask id="c1273747-2024-43cb-3ff9-f5e285e818cf_clip"><rect x="-100" y="-100" width="376" height="201" fill="white"/><rect x="88" y="0" width="0" height="0" rx="4" ry="4" fill="black" opacity="1"/></mask></defs><g pointer-events="none" opacity="1" mask=""><path d="M0.00,-0.95 Q43.50,-0.88 65.25,-0.85 T108.75,-0.81 152.25,-0.78 174.12,-0.74 174.35,-0.66 174.55,-0.52 174.68,-0.32 174.75,-0.08 174.73,0.16 174.64,0.39 174.49,0.57 174.28,0.70 174.04,0.75 173.80,0.73 173.58,0.62 173.40,0.46 173.29,0.24 173.25,-0.00 173.29,-0.24 173.40,-0.46 173.58,-0.62 173.80,-0.73 174.04,-0.75 174.28,-0.70 174.49,-0.57 174.64,-0.39 174.73,-0.16 174.75,0.08 174.68,0.32 174.55,0.52 174.35,0.66 174.12,0.74 174.00,0.76 152.25,0.78 108.75,0.81 65.25,0.85 21.75,0.92 -0.11,0.94 -0.33,0.88 -0.54,0.78 -0.71,0.63 -0.84,0.44 -0.92,0.23 -0.94,-0.00 -0.92,-0.23 -0.84,-0.44 -0.71,-0.63 -0.54,-0.78 -0.33,-0.88 -0.11,-0.94 Z" fill="#1d1d1d" stroke="#1d1d1d" stroke-width="2.11" stroke-dasharray="none" stroke-dashoffset="none" stroke-linecap="round" stroke-linejoin="round" pointer-events="stroke"/><g><path d="M 162.14,-7.999999999999999 L 176,0 162.14,7.999999999999999" fill="none" stroke="#1d1d1d" stroke-width="4.23" stroke-linecap="round" stroke-linejoin="round" pointer-events="none"/></g></g></g><text font-size="68.52584741710051px" font-family="Caveat Brush" font-weight="normal" line-height="68.52584741710051px" letter-spacing="-0.03em" text-align="left" dominant-baseline="mathematical" alignment-baseline="mathematical" text-anchor="start" fill="#1d1d1d" transform="translate(1584.00, 784.00) rotate(0.00, 190.00, 39.50)"><tspan y="34.262923708550254px" x="4">Business Metrics
</tspan></text><g text-align="center" text-anchor="middle" transform="translate(1616.00, 1200.00) rotate(0.00, 208.00, 64.00)"><g id="5b585d52-09f4-425e-01b9-0f8ee18bf3ff_svg" class="tl-centered-g"><path d="M416.39,89.91 Q416.52,102.46 416.57,110.36 T414.75,122.29 406.10,127.43 391.54,128.74 375.71,128.95 359.56,128.94 343.33,128.88 327.07,128.80 310.81,128.72 294.54,128.64 278.28,128.56 262.02,128.48 245.75,128.39 229.49,128.31 213.22,128.26 196.96,128.25 180.69,128.28 164.43,128.30 148.16,128.32 131.90,128.34 115.63,128.37 99.37,128.39 83.10,128.41 66.84,128.43 50.57,128.46 34.31,128.48 18.02,128.50 5.76,126.63 0.61,117.72 -0.56,102.61 -0.61,86.16 -0.53,69.36 -0.59,52.47 -0.72,35.55 -0.84,18.60 0.98,5.93 9.62,0.61 24.19,-0.73 40.03,-0.93 56.18,-0.90 72.42,-0.81 88.68,-0.71 104.94,-0.61 121.21,-0.51 137.48,-0.40 153.75,-0.30 170.02,-0.19 186.28,-0.09 202.55,-0.01 218.82,0.02 235.09,0.02 251.36,0.02 267.63,0.02 283.90,0.02 300.17,0.02 316.43,0.02 332.70,0.03 348.97,0.03 365.24,0.03 381.51,0.03 397.80,0.03 410.06,1.92 415.21,10.79 416.36,25.84 416.40,42.21 416.31,58.93 416.35,75.74 416.46,95.45 416.46,106.99 416.31,107.43 416.03,107.80 415.64,108.06 415.19,108.18 414.72,108.16 414.29,107.98 413.93,107.68 413.69,107.28 413.60,106.82 413.65,106.36 413.85,105.93 414.17,105.59 414.58,105.38 415.04,105.30 415.51,105.38 415.92,105.60 416.24,105.94 416.43,106.37 416.48,106.83 416.38,107.29 416.14,107.69 415.78,107.99 415.34,108.16 414.88,108.18 414.43,108.06 414.04,107.79 413.76,107.42 413.61,106.98 413.57,106.74 413.71,95.44 413.98,75.73 414.13,58.93 414.03,42.25 413.63,26.07 412.62,11.86 408.88,4.43 397.74,3.27 381.50,3.17 365.23,3.07 348.96,2.96 332.69,2.86 316.42,2.75 300.16,2.65 283.89,2.54 267.62,2.44 251.35,2.33 235.08,2.23 218.81,2.12 202.55,2.04 186.28,2.02 170.01,2.02 153.74,2.02 137.47,2.01 121.20,2.01 104.94,2.01 88.67,2.01 72.41,2.02 56.18,2.04 40.07,2.11 24.46,2.40 10.73,3.31 3.50,7.11 2.27,18.66 2.03,35.56 1.79,52.47 1.65,69.36 1.76,86.12 2.17,102.38 3.19,116.66 6.94,124.11 18.07,125.26 34.31,125.33 50.58,125.42 66.84,125.50 83.11,125.58 99.37,125.66 115.64,125.74 131.90,125.82 148.17,125.90 164.43,125.99 180.70,126.07 196.96,126.15 213.22,126.20 229.49,126.21 245.75,126.19 262.02,126.16 278.28,126.14 294.55,126.12 310.81,126.10 327.08,126.07 343.33,126.04 359.55,126.00 375.66,125.91 391.28,125.61 405.00,124.72 412.23,121.10 413.47,110.29 413.71,96.17 413.85,89.75 413.93,89.45 414.07,89.18 414.27,88.95 414.53,88.78 414.81,88.67 415.12,88.64 415.42,88.68 415.71,88.78 415.96,88.96 416.16,89.19 416.30,89.46 416.37,89.76 Z" fill="#ff2133" stroke="#ff2133" stroke-width="2" pointer-events="none"/></g><text font-size="28px" font-family="Caveat Brush" font-weight="normal" line-height="28px" letter-spacing="-0.03em" text-align="center" dominant-baseline="mathematical" alignment-baseline="mathematical" text-anchor="middle" transform="translate(156, 45)" fill="#ff2133" transform-origin="center center"><tspan y="14px" x="56">Clickhouse
</tspan></text></g><g text-align="center" text-anchor="middle" transform="translate(2192.00, 1200.00) rotate(0.00, 192.00, 64.00)"><g id="c0ea3ffa-230c-4216-3706-26a112f863d4_svg" class="tl-centered-g"><path d="M-0.26,38.42 Q-0.47,25.87 -0.57,17.97 T1.19,6.03 9.82,0.88 24.37,-0.44 40.18,-0.68 56.31,-0.69 72.53,-0.65 88.77,-0.59 105.02,-0.53 121.27,-0.47 137.52,-0.41 153.77,-0.35 170.02,-0.29 186.27,-0.26 202.52,-0.28 218.76,-0.33 235.01,-0.39 251.26,-0.44 267.51,-0.49 283.76,-0.55 300.01,-0.60 316.26,-0.65 332.51,-0.70 348.76,-0.76 365.03,-0.80 377.28,1.05 382.45,9.91 383.66,24.95 383.77,41.32 383.75,58.03 383.86,74.84 384.05,91.67 384.23,108.53 382.45,121.15 373.82,126.48 359.28,127.84 343.48,128.09 327.35,128.11 311.14,128.07 294.91,128.02 278.67,127.96 262.43,127.90 246.19,127.84 229.95,127.79 213.71,127.73 197.47,127.70 181.23,127.72 164.99,127.78 148.75,127.83 132.51,127.89 116.27,127.94 100.03,128.00 83.79,128.05 67.55,128.11 51.31,128.16 35.07,128.22 18.81,128.27 6.57,126.42 1.39,117.55 0.15,102.50 0.01,86.13 0.00,69.41 -0.14,52.60 -0.36,32.88 -0.44,21.34 -0.29,20.90 -0.01,20.53 0.38,20.26 0.83,20.14 1.30,20.16 1.73,20.33 2.09,20.64 2.33,21.04 2.43,21.49 2.38,21.96 2.19,22.38 1.87,22.72 1.45,22.94 0.99,23.02 0.53,22.94 0.12,22.72 -0.20,22.39 -0.40,21.96 -0.45,21.50 -0.35,21.04 -0.11,20.64 0.24,20.34 0.68,20.16 1.14,20.14 1.59,20.26 1.98,20.52 2.27,20.89 2.42,21.34 2.45,21.57 2.38,32.87 2.23,52.59 2.19,69.40 2.38,86.08 2.88,102.27 3.96,116.47 7.74,123.89 18.86,125.03 35.07,125.09 51.31,125.14 67.55,125.20 83.79,125.26 100.03,125.32 116.27,125.38 132.51,125.44 148.75,125.49 164.99,125.55 181.23,125.61 197.47,125.64 213.71,125.61 229.95,125.56 246.19,125.50 262.43,125.45 278.67,125.39 294.91,125.34 311.14,125.28 327.34,125.20 343.42,125.07 359.01,124.73 372.71,123.78 379.92,119.98 381.12,108.48 381.31,91.67 381.49,74.84 381.57,58.04 381.40,41.37 380.93,25.19 379.87,10.99 376.10,3.57 364.98,2.43 348.76,2.38 332.51,2.31 316.26,2.25 300.01,2.19 283.76,2.13 267.51,2.07 251.26,2.01 235.01,1.95 218.76,1.89 202.51,1.83 186.27,1.80 170.02,1.82 153.77,1.88 137.52,1.93 121.27,1.98 105.02,2.03 88.77,2.09 72.54,2.15 56.33,2.22 40.24,2.34 24.63,2.67 10.93,3.58 3.72,7.21 2.54,18.02 2.38,32.14 2.28,38.57 2.21,38.87 2.06,39.14 1.86,39.37 1.61,39.54 1.32,39.65 1.02,39.69 0.72,39.65 0.43,39.54 0.18,39.37 -0.03,39.14 -0.17,38.87 -0.24,38.57 Z" fill="#7746f1" stroke="#7746f1" stroke-width="2" pointer-events="none"/></g><text font-size="28px" font-family="Caveat Brush" font-weight="normal" line-height="28px" letter-spacing="-0.03em" text-align="center" dominant-baseline="mathematical" alignment-baseline="mathematical" text-anchor="middle" transform="translate(147, 45)" fill="#7746f1" transform-origin="center center"><tspan y="14px" x="49">Superset
</tspan></text></g><g id="b8191198-89b8-4ed5-27dc-af585bb206b6_svg" class="tl-centered-g" transform="translate(2032.00, 1264.00) rotate(0.00, 72.00, 0.50)"><defs><mask id="b8191198-89b8-4ed5-27dc-af585bb206b6_clip"><rect x="-100" y="-100" width="344" height="201" fill="white"/><rect x="72" y="0" width="0" height="0" rx="4" ry="4" fill="black" opacity="1"/></mask></defs><g pointer-events="none" opacity="1" mask=""><path d="M0.00,-1.03 Q35.50,-0.97 53.25,-0.95 T88.75,-0.91 124.25,-0.88 142.14,-0.84 142.40,-0.76 142.62,-0.59 142.78,-0.36 142.85,-0.09 142.84,0.18 142.73,0.44 142.55,0.65 142.32,0.80 142.05,0.85 141.77,0.82 141.52,0.71 141.32,0.52 141.19,0.27 141.14,-0.00 141.19,-0.27 141.32,-0.52 141.52,-0.71 141.77,-0.82 142.05,-0.85 142.32,-0.79 142.55,-0.65 142.73,-0.44 142.84,-0.18 142.85,0.09 142.78,0.36 142.62,0.59 142.40,0.76 142.14,0.84 142.00,0.87 124.25,0.88 88.75,0.91 53.25,0.95 17.75,1.00 -0.12,1.01 -0.36,0.95 -0.58,0.84 -0.76,0.68 -0.90,0.47 -0.99,0.24 -1.02,-0.00 -0.99,-0.24 -0.90,-0.47 -0.76,-0.68 -0.58,-0.84 -0.36,-0.95 -0.12,-1.01 Z" fill="#1d1d1d" stroke="#1d1d1d" stroke-width="2.11" stroke-dasharray="none" stroke-dashoffset="none" stroke-linecap="round" stroke-linejoin="round" pointer-events="stroke"/><g><path d="M 130.14,-7.999999999999999 L 144,0 130.14,7.999999999999999" fill="none" stroke="#1d1d1d" stroke-width="4.23" stroke-linecap="round" stroke-linejoin="round" pointer-events="none"/></g></g></g><g id="6d0ed028-ad21-41a5-16e4-edfd7357e386_svg" class="tl-centered-g" transform="translate(1941.44, 1011.47) rotate(0.00, 117.28, 94.27)"><defs><mask id="6d0ed028-ad21-41a5-16e4-edfd7357e386_clip"><rect x="-100" y="-100" width="434.56" height="388.53" fill="white"/><rect x="117.28" y="94.26" width="0" height="0" rx="4" ry="4" fill="black" opacity="1"/></mask></defs><g pointer-events="none" opacity="1" mask=""><path d="M-0.60,187.78 Q57.69,141.01 86.83,117.62 T145.11,70.84 203.38,24.04 232.62,0.58 232.86,0.50 233.11,0.49 233.34,0.56 233.55,0.71 233.69,0.91 233.77,1.15 233.76,1.40 233.67,1.63 233.52,1.83 233.31,1.96 233.06,2.02 232.81,2.00 232.59,1.90 232.40,1.74 232.28,1.52 232.23,1.27 232.26,1.03 232.37,0.80 232.55,0.63 232.77,0.52 233.02,0.48 233.27,0.53 233.48,0.65 233.65,0.84 233.75,1.07 233.77,1.32 233.71,1.56 233.57,1.77 233.49,1.86 204.37,25.28 146.14,72.13 87.92,118.98 29.71,165.85 0.51,189.34 0.30,189.44 0.07,189.48 -0.16,189.47 -0.38,189.41 -0.58,189.29 -0.75,189.13 -0.87,188.93 -0.94,188.71 -0.96,188.48 -0.92,188.26 -0.83,188.05 -0.68,187.86 Z" fill="#1d1d1d" stroke="#1d1d1d" stroke-width="2.11" stroke-dasharray="none" stroke-dashoffset="none" stroke-linecap="round" stroke-linejoin="round" pointer-events="stroke"/><g><path d="M 218.74,2.4452721812590292 L 234.56,0 228.77,14.91626537470431" fill="none" stroke="#1d1d1d" stroke-width="4.23" stroke-linecap="round" stroke-linejoin="round" pointer-events="none"/></g></g></g><g text-align="center" text-anchor="middle" transform="translate(16.00, 1424.00) rotate(0.00, 128.00, 48.00)"><g id="4f4c62c2-989b-466a-1cbb-b45fb4c234de_svg" class="tl-centered-g"><path d="M168.73,96.28 Q156.57,96.24 148.93,96.22 T133.28,96.24 117.13,96.34 100.85,96.48 84.54,96.63 68.22,96.77 51.90,96.92 35.57,97.06 19.23,97.21 6.95,95.46 1.72,88.31 0.36,76.98 0.11,64.87 -0.01,52.57 -0.25,40.22 -0.58,27.85 -0.90,15.44 0.79,5.61 9.49,1.03 24.21,-0.09 40.19,-0.22 56.52,-0.16 72.94,-0.05 89.38,0.07 105.82,0.20 122.27,0.28 138.72,0.28 155.17,0.23 171.62,0.18 188.07,0.13 204.52,0.09 220.97,0.04 237.44,-0.00 249.80,1.82 254.94,8.92 256.07,20.07 256.06,31.98 255.91,44.08 255.89,56.22 255.95,68.38 255.99,80.58 254.14,90.26 245.45,94.83 230.82,96.02 214.96,96.25 198.75,96.28 182.46,96.27 166.15,96.25 149.83,96.22 133.51,96.23 117.18,96.34 98.07,96.49 86.92,96.54 86.55,96.42 86.24,96.19 86.02,95.87 85.92,95.49 85.94,95.10 86.08,94.74 86.33,94.45 86.66,94.25 87.04,94.16 87.43,94.20 87.78,94.36 88.06,94.63 88.25,94.97 88.31,95.35 88.25,95.74 88.07,96.08 87.79,96.35 87.44,96.51 87.05,96.56 86.67,96.48 86.34,96.28 86.08,95.98 85.94,95.62 85.92,95.23 86.02,94.86 86.24,94.54 86.54,94.30 86.91,94.17 87.11,94.14 98.06,94.15 117.18,94.16 133.50,94.15 149.82,94.05 166.14,93.90 182.45,93.75 198.73,93.59 214.90,93.38 230.59,92.99 244.35,92.14 251.60,89.03 252.90,80.47 253.21,68.35 253.52,56.20 253.73,44.07 253.69,32.02 253.35,20.36 252.41,10.12 248.65,4.41 237.39,3.20 220.96,3.08 204.51,2.95 188.06,2.83 171.61,2.70 155.17,2.58 138.72,2.45 122.27,2.37 105.82,2.37 89.37,2.42 72.93,2.47 56.52,2.54 40.23,2.65 24.42,2.94 10.56,3.72 3.31,6.81 2.20,15.48 2.16,27.82 2.12,40.19 2.18,52.53 2.48,64.78 3.08,76.64 4.24,87.05 8.07,92.84 19.27,94.00 35.56,94.02 51.89,94.05 68.21,94.08 84.53,94.11 100.84,94.14 117.12,94.16 133.27,94.15 148.93,94.05 162.64,93.91 168.86,93.87 169.15,93.93 169.40,94.07 169.62,94.26 169.79,94.50 169.89,94.77 169.93,95.06 169.90,95.35 169.79,95.62 169.63,95.86 169.41,96.06 169.15,96.19 168.87,96.26 Z" fill="#1d1d1d" stroke="#1d1d1d" stroke-width="2" pointer-events="none"/></g><text font-size="28px" font-family="Caveat Brush" font-weight="normal" line-height="28px" letter-spacing="-0.03em" text-align="center" dominant-baseline="mathematical" alignment-baseline="mathematical" text-anchor="middle" transform="translate(67, 29)" fill="#1d1d1d" transform-origin="center center"><tspan y="14px" x="65">PostGres DB
</tspan></text></g><g text-align="center" text-anchor="middle" transform="translate(144.00, 528.00) rotate(0.00, 0.50, 440.00)"><g id="5dbc0ba2-e571-448a-11cd-872941e40de0_svg" class="tl-centered-g"><defs><mask id="5dbc0ba2-e571-448a-11cd-872941e40de0_clip"><rect x="-100" y="-100" width="201" height="1080" fill="white"/><rect x="-48.5" y="407" width="97" height="66" rx="4" ry="4" fill="black" opacity="1"/></mask></defs><g pointer-events="none" opacity="1" mask="url(#5dbc0ba2-e571-448a-11cd-872941e40de0_clip)"><path d="M0.99,0.00 Q0.93,219.50 0.91,329.25 T0.87,548.75 0.84,768.25 0.80,878.13 0.72,878.38 0.56,878.59 0.34,878.74 0.09,878.81 -0.17,878.79 -0.42,878.70 -0.62,878.53 -0.75,878.30 -0.81,878.04 -0.78,877.78 -0.67,877.54 -0.49,877.35 -0.26,877.23 0.00,877.19 0.26,877.23 0.49,877.35 0.67,877.54 0.78,877.78 0.81,878.04 0.75,878.30 0.62,878.53 0.42,878.70 0.17,878.79 -0.09,878.81 -0.34,878.74 -0.56,878.59 -0.72,878.38 -0.80,878.13 -0.82,878.00 -0.84,768.25 -0.87,548.75 -0.91,329.25 -0.96,109.75 -0.98,-0.12 -0.92,-0.35 -0.81,-0.56 -0.65,-0.74 -0.46,-0.87 -0.24,-0.96 0.00,-0.99 0.24,-0.96 0.46,-0.87 0.65,-0.74 0.81,-0.56 0.92,-0.35 0.98,-0.12 Z" fill="#1d1d1d" stroke="#1d1d1d" stroke-width="2.11" stroke-dasharray="none" stroke-dashoffset="none" stroke-linecap="round" stroke-linejoin="round" pointer-events="stroke"/><g><path d="M 7.99,866.143593539449 L 0,880 -7.999999999999999,866.143593539449" fill="none" stroke="#1d1d1d" stroke-width="4.23" stroke-linecap="round" stroke-linejoin="round" pointer-events="none"/></g></g></g><text font-size="28px" font-family="Caveat Brush" font-weight="normal" line-height="28px" letter-spacing="-0.03em" text-align="left" dominant-baseline="mathematical" alignment-baseline="mathematical" text-anchor="start" transform="translate(-48.5, 407)" fill="#1d1d1d" transform-origin="center center"><tspan y="14px" x="4">Database
</tspan><tspan y="42px" x="4">
Objects
</tspan></text></g><g id="595e12c5-c275-4c02-287f-d432f2adeb96_svg" class="tl-centered-g" transform="translate(272.00, 1312.10) rotate(0.00, 664.00, 64.14)"><defs><mask id="595e12c5-c275-4c02-287f-d432f2adeb96_clip"><rect x="-100" y="-100" width="1528" height="328.28" fill="white"/><rect x="664" y="64.14" width="0" height="0" rx="4" ry="4" fill="black" opacity="1"/></mask></defs><g pointer-events="none" opacity="1" mask=""><path d="M-0.09,127.34 Q331.42,95.39 497.17,79.40 T828.68,47.43 1160.18,15.44 1326.06,-0.55 1326.29,-0.50 1326.50,-0.37 1326.65,-0.18 1326.74,0.04 1326.75,0.28 1326.68,0.51 1326.54,0.71 1326.35,0.85 1326.12,0.93 1325.88,0.93 1325.65,0.85 1325.46,0.70 1325.33,0.50 1325.27,0.26 1325.28,0.02 1325.38,-0.20 1325.53,-0.38 1325.74,-0.50 1325.98,-0.55 1326.22,-0.52 1326.43,-0.42 1326.61,-0.25 1326.72,-0.04 1326.75,0.20 1326.71,0.44 1326.60,0.65 1326.42,0.81 1326.20,0.91 1326.08,0.94 1160.33,16.97 828.83,49.02 497.33,81.09 165.84,113.17 -0.02,129.22 -0.25,129.18 -0.46,129.10 -0.64,128.97 -0.78,128.79 -0.88,128.59 -0.93,128.37 -0.93,128.14 -0.87,127.93 -0.76,127.73 -0.60,127.56 -0.42,127.44 -0.20,127.36 Z" fill="#1d1d1d" stroke="#1d1d1d" stroke-width="2.11" stroke-dasharray="none" stroke-dashoffset="none" stroke-linecap="round" stroke-linejoin="round" pointer-events="stroke"/><g><path d="M 1313.43,-6.630658169675435 L 1328,0 1314.97,9.295213297537819" fill="none" stroke="#1d1d1d" stroke-width="4.23" stroke-linecap="round" stroke-linejoin="round" pointer-events="none"/></g></g></g><g id="94a12c0a-5ce9-4210-307d-ec8115fc1f3e_svg" class="tl-centered-g" transform="translate(1456.00, 1584.00) rotate(0.00, 592.00, 128.00)"><g pointer-events="none" stroke="#1d1d1d" stroke-width="4.23" stroke-linecap="round"><line x1="2.11" y1="2.11" x2="1181.88" y2="2.11" stroke-dasharray="6.47 6.49" stroke-dashoffset="3.23"/><line x1="1181.88" y1="2.11" x2="1181.88" y2="253.88" stroke-dasharray="6.47 6.77" stroke-dashoffset="3.23"/><line x1="1181.88" y1="253.88" x2="2.11" y2="253.88" stroke-dasharray="6.47 6.49" stroke-dashoffset="3.23"/><line x1="2.11" y1="253.88" x2="2.11" y2="2.11" stroke-dasharray="6.47 6.77" stroke-dashoffset="3.23"/></g></g><g text-align="center" text-anchor="middle" transform="translate(1584.00, 1648.00) rotate(0.00, 208.00, 64.00)"><g id="cf688a39-0d33-4110-27f5-9efb18d06ef2_svg" class="tl-centered-g"><path d="M416.03,89.46 Q416.24,102.10 416.35,110.06 T414.59,122.07 405.96,127.23 391.42,128.53 375.61,128.73 359.48,128.71 343.26,128.63 327.02,128.54 310.77,128.45 294.53,128.35 278.28,128.25 262.03,128.16 245.78,128.06 229.54,127.97 213.29,127.90 197.04,127.88 180.79,127.89 164.55,127.90 148.30,127.90 132.05,127.91 115.80,127.92 99.56,127.93 83.31,127.94 67.06,127.94 50.81,127.95 34.57,127.96 18.29,127.96 6.04,126.08 0.93,117.21 -0.17,102.18 -0.14,85.83 0.02,69.14 0.05,52.35 -0.00,35.54 -0.04,18.70 1.82,6.10 10.46,0.78 24.97,-0.60 40.74,-0.85 56.82,-0.87 72.99,-0.84 89.18,-0.79 105.37,-0.74 121.57,-0.68 137.77,-0.63 153.96,-0.58 170.16,-0.52 186.36,-0.47 202.56,-0.44 218.75,-0.47 234.95,-0.52 251.15,-0.57 267.35,-0.62 283.54,-0.67 299.74,-0.72 315.94,-0.77 332.14,-0.82 348.33,-0.87 364.53,-0.92 380.73,-0.97 396.95,-1.02 409.17,0.83 414.35,9.74 415.59,24.90 415.74,41.39 415.75,58.24 415.90,75.18 416.13,95.04 416.21,106.66 416.07,107.11 415.78,107.48 415.40,107.74 414.95,107.87 414.48,107.84 414.05,107.67 413.69,107.37 413.45,106.97 413.35,106.51 413.39,106.05 413.59,105.62 413.91,105.28 414.32,105.06 414.79,104.99 415.25,105.06 415.66,105.28 415.98,105.62 416.18,106.04 416.23,106.51 416.13,106.96 415.89,107.37 415.54,107.67 415.10,107.84 414.63,107.87 414.18,107.75 413.80,107.48 413.51,107.11 413.36,106.67 413.32,106.44 413.39,95.05 413.53,75.18 413.57,58.25 413.36,41.44 412.86,25.14 411.77,10.83 407.99,3.35 396.90,2.22 380.73,2.17 364.53,2.12 348.33,2.07 332.14,2.01 315.94,1.96 299.74,1.90 283.54,1.85 267.35,1.80 251.15,1.74 234.95,1.69 218.75,1.64 202.56,1.61 186.36,1.63 170.16,1.68 153.96,1.73 137.77,1.79 121.57,1.84 105.37,1.89 89.18,1.94 72.99,1.99 56.83,2.06 40.79,2.19 25.24,2.53 11.58,3.48 4.36,7.28 3.06,18.77 2.74,35.56 2.42,52.37 2.20,69.15 2.23,85.81 2.57,101.97 3.52,116.16 7.23,123.57 18.35,124.73 34.57,124.82 50.82,124.91 67.07,125.01 83.32,125.10 99.56,125.20 115.81,125.30 132.06,125.39 148.31,125.49 164.55,125.58 180.80,125.68 197.05,125.77 213.30,125.84 229.54,125.86 245.79,125.85 262.04,125.85 278.29,125.84 294.53,125.83 310.78,125.82 327.02,125.81 343.26,125.80 359.47,125.77 375.56,125.69 391.16,125.40 404.86,124.52 412.06,120.90 413.24,110.02 413.39,95.79 413.49,89.31 413.56,89.01 413.71,88.74 413.91,88.51 414.16,88.34 414.45,88.23 414.75,88.19 415.05,88.23 415.34,88.34 415.59,88.51 415.79,88.74 415.94,89.01 416.01,89.31 Z" fill="#ff2133" stroke="#ff2133" stroke-width="2" pointer-events="none"/></g><text font-size="28px" font-family="Caveat Brush" font-weight="normal" line-height="28px" letter-spacing="-0.03em" text-align="center" dominant-baseline="mathematical" alignment-baseline="mathematical" text-anchor="middle" transform="translate(185, 45)" fill="#ff2133" transform-origin="center center"><tspan y="14px" x="27">Loki
</tspan></text></g><g text-align="center" text-anchor="middle" transform="translate(2192.00, 1648.00) rotate(0.00, 192.00, 64.00)"><g id="0735376f-13f2-4f0d-034b-fc85abcfd0d1_svg" class="tl-centered-g"><path d="M86.33,-0.23 Q98.46,-0.19 106.06,-0.18 T121.67,-0.15 137.77,-0.12 154.00,-0.10 170.26,-0.07 186.53,-0.07 202.80,-0.13 219.07,-0.22 235.34,-0.31 251.61,-0.40 267.88,-0.48 284.15,-0.57 300.42,-0.66 316.69,-0.74 332.96,-0.83 349.24,-0.92 365.53,-1.00 377.80,0.83 382.93,9.73 384.03,24.83 384.02,41.28 383.88,58.07 383.86,74.95 383.92,91.86 383.98,108.80 382.12,121.46 373.47,126.80 358.91,128.18 343.09,128.44 326.95,128.46 310.72,128.43 294.48,128.38 278.22,128.33 261.97,128.28 245.71,128.23 229.46,128.18 213.20,128.13 196.95,128.11 180.69,128.14 164.44,128.20 148.18,128.26 131.93,128.33 115.67,128.39 99.42,128.45 83.16,128.51 66.90,128.58 50.65,128.64 34.39,128.70 18.11,128.76 5.86,126.91 0.71,118.05 -0.44,103.01 -0.47,86.64 -0.38,69.93 -0.41,53.13 -0.53,36.30 -0.63,19.44 1.19,6.83 9.84,1.50 24.41,0.10 40.24,-0.18 56.40,-0.23 72.64,-0.22 88.90,-0.20 105.17,-0.18 121.44,-0.15 137.71,-0.12 153.99,-0.10 170.26,-0.07 186.53,-0.07 202.80,-0.13 221.85,-0.23 232.96,-0.25 233.30,-0.13 233.59,0.09 233.80,0.39 233.90,0.74 233.88,1.11 233.74,1.45 233.51,1.72 233.19,1.91 232.84,1.99 232.48,1.95 232.15,1.80 231.88,1.55 231.71,1.23 231.65,0.87 231.71,0.51 231.88,0.19 232.14,-0.06 232.47,-0.22 232.83,-0.26 233.19,-0.18 233.50,0.01 233.74,0.28 233.88,0.62 233.90,0.99 233.80,1.34 233.59,1.64 233.30,1.86 232.96,1.98 232.78,2.01 221.86,2.00 202.80,1.98 186.53,1.98 170.26,2.04 153.99,2.13 137.72,2.21 121.45,2.30 105.18,2.39 88.91,2.48 72.65,2.57 56.42,2.68 40.31,2.84 24.69,3.21 10.96,4.19 3.72,8.01 2.47,19.50 2.21,36.31 1.96,53.14 1.81,69.93 1.90,86.61 2.29,102.78 3.30,116.98 7.04,124.40 18.16,125.52 34.39,125.57 50.65,125.62 66.90,125.67 83.16,125.72 99.41,125.77 115.67,125.82 131.93,125.87 148.18,125.93 164.44,125.98 180.69,126.03 196.95,126.05 213.20,126.02 229.46,125.95 245.71,125.89 261.97,125.83 278.22,125.77 294.48,125.71 310.72,125.64 326.94,125.56 343.03,125.42 358.64,125.07 372.35,124.10 379.59,120.28 380.87,108.73 381.18,91.84 381.49,74.94 381.69,58.06 381.65,41.30 381.30,25.05 380.34,10.78 376.62,3.34 365.49,2.23 349.24,2.21 332.97,2.19 316.70,2.16 300.43,2.13 284.16,2.11 267.89,2.08 251.62,2.06 235.34,2.03 219.07,2.01 202.80,1.98 186.53,1.98 170.26,2.04 154.00,2.13 137.78,2.21 121.67,2.30 106.07,2.39 92.40,2.47 86.18,2.49 85.86,2.41 85.57,2.26 85.32,2.04 85.14,1.77 85.02,1.47 84.98,1.14 85.02,0.82 85.13,0.51 85.32,0.24 85.56,0.03 85.85,-0.13 86.17,-0.21 Z" fill="#7746f1" stroke="#7746f1" stroke-width="2" pointer-events="none"/></g><text font-size="28px" font-family="Caveat Brush" font-weight="normal" line-height="28px" letter-spacing="-0.03em" text-align="center" dominant-baseline="mathematical" alignment-baseline="mathematical" text-anchor="middle" transform="translate(149, 45)" fill="#7746f1" transform-origin="center center"><tspan y="14px" x="47">Grafana
</tspan></text></g><g id="416ebb91-2648-4b54-3d60-9d07f8571216_svg" class="tl-centered-g" transform="translate(2000.00, 1712.00) rotate(0.00, 88.00, 0.50)"><defs><mask id="416ebb91-2648-4b54-3d60-9d07f8571216_clip"><rect x="-100" y="-100" width="376" height="201" fill="white"/><rect x="88" y="0" width="0" height="0" rx="4" ry="4" fill="black" opacity="1"/></mask></defs><g pointer-events="none" opacity="1" mask=""><path d="M0.00,-1.00 Q43.50,-0.94 65.25,-0.92 T108.75,-0.88 152.25,-0.85 174.13,-0.82 174.39,-0.73 174.60,-0.57 174.75,-0.35 174.82,-0.09 174.81,0.18 174.71,0.43 174.54,0.63 174.31,0.77 174.04,0.83 173.78,0.80 173.54,0.68 173.34,0.50 173.22,0.26 173.17,-0.00 173.22,-0.26 173.34,-0.50 173.54,-0.68 173.78,-0.80 174.04,-0.83 174.31,-0.77 174.54,-0.63 174.71,-0.43 174.81,-0.18 174.82,0.09 174.75,0.35 174.60,0.57 174.39,0.73 174.13,0.82 174.00,0.84 152.25,0.85 108.75,0.88 65.25,0.92 21.75,0.97 -0.12,0.99 -0.35,0.93 -0.57,0.82 -0.75,0.66 -0.88,0.46 -0.97,0.24 -1.00,-0.00 -0.97,-0.24 -0.88,-0.46 -0.75,-0.66 -0.57,-0.82 -0.35,-0.93 -0.12,-0.99 Z" fill="#1d1d1d" stroke="#1d1d1d" stroke-width="2.11" stroke-dasharray="none" stroke-dashoffset="none" stroke-linecap="round" stroke-linejoin="round" pointer-events="stroke"/><g><path d="M 162.14,-7.999999999999999 L 176,0 162.14,7.999999999999999" fill="none" stroke="#1d1d1d" stroke-width="4.23" stroke-linecap="round" stroke-linejoin="round" pointer-events="none"/></g></g></g><text font-size="68.52584741710051px" font-family="Caveat Brush" font-weight="normal" line-height="68.52584741710051px" letter-spacing="-0.03em" text-align="left" dominant-baseline="mathematical" alignment-baseline="mathematical" text-anchor="start" fill="#1d1d1d" transform="translate(1584.00, 1488.00) rotate(0.00, 218.00, 39.50)"><tspan y="34.262923708550254px" x="4">LogViewer For Apps
</tspan></text><g text-align="center" text-anchor="middle" transform="translate(997.67, 633.79) rotate(0.00, 285.17, 155.11)"><g id="19b28a05-6c6d-45cd-34ae-f5f07e55653e_svg" class="tl-centered-g"><defs><mask id="19b28a05-6c6d-45cd-34ae-f5f07e55653e_clip"><rect x="-100" y="-100" width="770.33" height="510.21" fill="white"/><rect x="196.81" y="83.06" width="119" height="38" rx="4" ry="4" fill="black" opacity="1"/></mask></defs><g pointer-events="none" opacity="1" mask="url(#19b28a05-6c6d-45cd-34ae-f5f07e55653e_clip)"><path d="M-1.38,309.03 Q0.01,306.74 0.83,305.78 T2.88,303.39 5.85,299.98 9.89,295.38 15.22,289.42 22.04,281.95 30.56,272.84 41.02,261.99 53.71,249.31 68.91,234.76 86.96,218.33 108.21,200.09 133.06,180.16 161.92,158.72 195.26,136.08 233.56,112.64 275.04,89.99 315.47,70.45 352.55,54.65 386.20,41.96 416.41,31.84 443.26,23.82 466.84,17.53 487.31,12.61 504.85,8.79 519.65,5.85 531.92,3.61 541.89,1.92 549.79,0.66 555.86,-0.25 560.33,-0.90 564.86,-1.53 567.88,-1.85 568.57,-1.66 569.16,-1.25 569.60,-0.68 569.83,0.00 569.83,0.72 569.59,1.40 569.16,1.97 568.56,2.37 567.87,2.57 567.15,2.53 566.49,2.26 565.94,1.79 565.57,1.18 565.42,0.47 565.50,-0.24 565.80,-0.89 566.29,-1.41 566.93,-1.75 567.64,-1.86 568.35,-1.75 568.98,-1.41 569.47,-0.89 569.77,-0.23 569.85,0.48 569.70,1.18 569.32,1.80 568.78,2.26 568.11,2.53 567.75,2.60 565.29,2.95 560.98,3.55 556.53,4.19 550.50,5.11 542.64,6.36 532.73,8.04 520.52,10.27 505.80,13.19 488.36,16.98 468.00,21.87 444.54,28.14 417.84,36.10 387.78,46.17 354.31,58.79 317.42,74.51 277.19,93.94 235.91,116.47 197.80,139.80 164.61,162.33 135.87,183.66 111.14,203.51 89.99,221.66 72.03,238.00 56.90,252.49 44.27,265.11 33.84,275.92 25.36,284.99 18.58,292.42 13.28,298.35 9.24,302.94 6.30,306.33 4.25,308.70 2.40,310.52 1.21,311.53 0.86,311.79 0.46,311.95 0.03,312.01 -0.40,311.96 -0.81,311.82 -1.17,311.58 -1.46,311.26 -1.67,310.88 -1.78,310.46 -1.79,310.02 -1.69,309.60 -1.50,309.21 Z" fill="#1d1d1d" stroke="#1d1d1d" stroke-width="0" stroke-dasharray="none" stroke-dashoffset="none" stroke-linecap="round" stroke-linejoin="round" pointer-events="none"/><g><path d="M 555.51,-6.049250701386985 L 570.33,0 557.68,9.803270987515095" fill="none" stroke="#1d1d1d" stroke-width="4.23" stroke-linecap="round" stroke-linejoin="round" pointer-events="none"/></g></g></g><text font-size="28px" font-family="Caveat Brush" font-weight="normal" line-height="28px" letter-spacing="-0.03em" text-align="left" dominant-baseline="mathematical" alignment-baseline="mathematical" text-anchor="start" transform="translate(196.82, 83.07)" fill="#1d1d1d" transform-origin="center center"><tspan y="14px" x="4">Normal Logs
</tspan></text></g><g text-align="center" text-anchor="middle" transform="translate(1008.00, 983.85) rotate(0.00, 280.00, 20.64)"><g id="24b44b2a-c28e-40b5-0251-70966509c4da_svg" class="tl-centered-g"><defs><mask id="24b44b2a-c28e-40b5-0251-70966509c4da_clip"><rect x="-100" y="-100" width="760" height="241.28" fill="white"/><rect x="223" y="1.64" width="114" height="38" rx="4" ry="4" fill="black" opacity="1"/></mask></defs><g pointer-events="none" opacity="1" mask="url(#24b44b2a-c28e-40b5-0251-70966509c4da_clip)"><path d="M-0.07,40.38 Q139.44,30.17 209.19,25.06 T348.70,14.83 488.20,4.58 558.07,-0.54 558.28,-0.48 558.47,-0.36 558.61,-0.19 558.68,0.02 558.68,0.24 558.62,0.46 558.49,0.64 558.31,0.76 558.09,0.83 557.87,0.82 557.66,0.74 557.49,0.60 557.37,0.41 557.32,0.20 557.34,-0.02 557.43,-0.23 557.58,-0.39 557.77,-0.50 557.99,-0.54 558.21,-0.51 558.41,-0.41 558.57,-0.25 558.66,-0.05 558.69,0.17 558.65,0.39 558.54,0.58 558.37,0.73 558.17,0.81 558.06,0.84 488.31,6.00 348.81,16.32 209.31,26.65 69.81,37.00 -0.04,42.17 -0.26,42.14 -0.45,42.05 -0.62,41.92 -0.76,41.75 -0.85,41.56 -0.89,41.35 -0.88,41.13 -0.82,40.92 -0.71,40.74 -0.56,40.58 -0.38,40.47 -0.17,40.40 Z" fill="#1d1d1d" stroke="#1d1d1d" stroke-width="2.11" stroke-dasharray="none" stroke-dashoffset="none" stroke-linecap="round" stroke-linejoin="round" pointer-events="stroke"/><g><path d="M 545.59,-6.959701712900695 L 560,0 546.76,8.997004278181308" fill="none" stroke="#1d1d1d" stroke-width="4.23" stroke-linecap="round" stroke-linejoin="round" pointer-events="none"/></g></g></g><text font-size="28px" font-family="Caveat Brush" font-weight="normal" line-height="28px" letter-spacing="-0.03em" text-align="left" dominant-baseline="mathematical" alignment-baseline="mathematical" text-anchor="start" transform="translate(223, 1.64)" fill="#1d1d1d" transform-origin="center center"><tspan y="14px" x="4">Metric Logs
</tspan></text></g><g text-align="center" text-anchor="middle" transform="translate(943.81, 1072.00) rotate(0.00, 312.10, 313.04)"><g id="2f9c8b59-fa42-4ff4-2b54-a05801131b78_svg" class="tl-centered-g"><defs><mask id="2f9c8b59-fa42-4ff4-2b54-a05801131b78_clip"><rect x="-100" y="-100" width="824.19" height="826.08" fill="white"/><rect x="240.59" y="294.04" width="143" height="38" rx="4" ry="4" fill="black" opacity="1"/></mask></defs><g pointer-events="none" opacity="1" mask="url(#2f9c8b59-fa42-4ff4-2b54-a05801131b78_clip)"><path d="M0.69,-0.69 Q156.34,155.53 234.17,233.63 T389.83,389.82 545.50,546.01 623.41,624.21 623.53,624.43 623.56,624.69 623.51,624.93 623.39,625.16 623.20,625.32 622.97,625.42 622.71,625.44 622.47,625.38 622.25,625.25 622.10,625.05 622.01,624.81 622.00,624.56 622.08,624.31 622.22,624.11 622.43,623.96 622.67,623.89 622.93,623.89 623.16,623.98 623.36,624.14 623.50,624.36 623.56,624.60 623.54,624.85 623.44,625.09 623.27,625.28 623.05,625.40 622.80,625.45 622.55,625.41 622.32,625.30 622.22,625.22 544.36,547.15 388.64,391.01 232.92,234.87 77.18,78.75 -0.76,0.59 -0.88,0.40 -0.95,0.17 -0.96,-0.06 -0.92,-0.29 -0.83,-0.50 -0.68,-0.68 -0.50,-0.83 -0.29,-0.92 -0.06,-0.96 0.18,-0.95 0.40,-0.88 0.60,-0.76 Z" fill="#1d1d1d" stroke="#1d1d1d" stroke-width="2.11" stroke-dasharray="none" stroke-dashoffset="none" stroke-linecap="round" stroke-linejoin="round" pointer-events="stroke"/><g><path d="M 620.07,610.6189444466528 L 624.19,626.08 608.74,621.9155374053206" fill="none" stroke="#1d1d1d" stroke-width="4.23" stroke-linecap="round" stroke-linejoin="round" pointer-events="none"/></g></g></g><text font-size="28px" font-family="Caveat Brush" font-weight="normal" line-height="28px" letter-spacing="-0.03em" text-align="left" dominant-baseline="mathematical" alignment-baseline="mathematical" text-anchor="start" transform="translate(240.60000000000002, 294.04)" fill="#1d1d1d" transform-origin="center center"><tspan y="14px" x="4">LogViewer Logs
</tspan></text></g><g text-align="center" text-anchor="middle" transform="translate(1264.00, 1200.00) rotate(0.00, 112.00, 64.00)"><g id="7be9afae-68ee-45d0-2a93-a99171ce61ab_svg" class="tl-centered-g"><path d="M136.55,127.90 Q124.34,127.80 116.68,127.80 T100.96,127.86 84.73,127.96 68.39,128.07 52.01,128.17 35.62,128.27 19.21,128.37 6.87,126.55 1.65,117.66 0.39,102.54 0.23,86.08 0.19,69.27 0.03,52.37 -0.21,35.45 -0.44,18.50 1.31,5.82 10.01,0.53 24.72,-0.73 40.73,-0.84 57.06,-0.73 73.47,-0.56 89.91,-0.37 106.36,-0.23 122.81,-0.19 139.26,-0.20 155.71,-0.21 172.16,-0.22 188.61,-0.23 205.08,-0.23 217.46,1.65 222.63,10.50 223.81,25.48 223.87,41.77 223.79,58.40 223.85,75.12 223.98,91.87 224.11,108.65 222.29,121.21 213.60,126.50 198.93,127.83 182.98,128.04 166.71,128.02 150.35,127.94 133.96,127.85 117.57,127.80 101.18,127.86 81.99,127.96 70.79,127.98 70.41,127.85 70.09,127.61 69.87,127.28 69.76,126.90 69.78,126.50 69.93,126.13 70.19,125.82 70.53,125.62 70.92,125.53 71.32,125.58 71.68,125.74 71.97,126.02 72.16,126.37 72.22,126.76 72.16,127.16 71.97,127.51 71.68,127.79 71.32,127.95 70.92,128.00 70.53,127.91 70.19,127.71 69.93,127.40 69.78,127.03 69.76,126.63 69.87,126.25 70.09,125.92 70.41,125.68 70.79,125.55 70.99,125.52 81.99,125.56 101.18,125.66 117.57,125.70 133.96,125.65 150.34,125.54 166.69,125.42 182.92,125.24 198.66,124.85 212.49,123.84 219.76,120.03 221.00,108.59 221.24,91.86 221.48,75.12 221.61,58.40 221.50,41.80 221.08,25.71 220.05,11.57 216.27,4.17 205.02,2.96 188.59,2.77 172.14,2.58 155.70,2.39 139.25,2.20 122.80,2.01 106.35,1.87 89.90,1.83 73.46,1.84 57.05,1.87 40.77,1.96 24.97,2.26 11.10,3.19 3.82,6.99 2.66,18.54 2.53,35.44 2.40,52.37 2.38,69.26 2.60,86.03 3.12,102.29 4.23,116.57 8.04,124.03 19.25,125.18 35.62,125.27 52.01,125.37 68.39,125.47 84.73,125.56 100.95,125.66 116.68,125.70 130.44,125.65 136.69,125.62 136.96,125.68 137.20,125.81 137.41,125.99 137.56,126.22 137.66,126.48 137.69,126.75 137.66,127.02 137.56,127.28 137.41,127.51 137.20,127.69 136.96,127.82 136.69,127.88 Z" fill="#36b24d" stroke="#36b24d" stroke-width="2" pointer-events="none"/></g><text font-size="28px" font-family="Caveat Brush" font-weight="normal" line-height="28px" letter-spacing="-0.03em" text-align="center" dominant-baseline="mathematical" alignment-baseline="mathematical" text-anchor="middle" transform="translate(79.5, 45)" fill="#36b24d" transform-origin="center center"><tspan y="14px" x="36.5">Kafka
</tspan></text></g><g text-align="center" text-anchor="middle" transform="translate(1000.69, 1072.00) rotate(0.00, 123.66, 73.44)"><g id="5308523f-eed3-4a68-075f-97b819d9bb01_svg" class="tl-centered-g"><defs><mask id="5308523f-eed3-4a68-075f-97b819d9bb01_clip"><rect x="-100" y="-100" width="447.31" height="346.87" fill="white"/><rect x="44.15" y="54.43" width="159" height="38" rx="4" ry="4" fill="black" opacity="1"/></mask></defs><g pointer-events="none" opacity="1" mask="url(#5308523f-eed3-4a68-075f-97b819d9bb01_clip)"><path d="M0.46,-0.77 Q61.82,35.76 92.50,54.01 T153.87,90.52 215.25,127.01 246.03,145.33 246.17,145.49 246.25,145.70 246.27,145.92 246.21,146.13 246.09,146.31 245.91,146.45 245.70,146.52 245.48,146.52 245.27,146.45 245.10,146.32 244.97,146.14 244.91,145.93 244.92,145.71 245.00,145.50 245.15,145.33 245.33,145.22 245.55,145.17 245.77,145.19 245.97,145.28 246.13,145.43 246.23,145.63 246.27,145.85 246.24,146.06 246.13,146.26 245.98,146.41 245.78,146.50 245.56,146.53 245.34,146.48 245.24,146.44 214.53,128.22 153.11,91.79 91.69,55.37 30.26,18.97 -0.54,0.71 -0.70,0.56 -0.81,0.37 -0.88,0.17 -0.89,-0.05 -0.85,-0.26 -0.77,-0.46 -0.64,-0.63 -0.47,-0.76 -0.27,-0.85 -0.06,-0.89 0.15,-0.88 0.36,-0.82 Z" fill="#1d1d1d" stroke="#1d1d1d" stroke-width="2.11" stroke-dasharray="none" stroke-dashoffset="none" stroke-linecap="round" stroke-linejoin="round" pointer-events="stroke"/><g><path d="M 239.48,132.91623469829068 L 247.31,146.87 231.31,146.67318559574946" fill="none" stroke="#1d1d1d" stroke-width="4.23" stroke-linecap="round" stroke-linejoin="round" pointer-events="none"/></g></g></g><text font-size="28px" font-family="Caveat Brush" font-weight="normal" line-height="28px" letter-spacing="-0.03em" text-align="left" dominant-baseline="mathematical" alignment-baseline="mathematical" text-anchor="start" transform="translate(44.16, 54.44)" fill="#1d1d1d" transform-origin="center center"><tspan y="14px" x="4">Log derived data
</tspan></text></g><g id="26e37cfa-ce32-4bef-2486-fc3c47befba2_svg" class="tl-centered-g" transform="translate(1488.00, 1264.00) rotate(0.00, 56.00, 0.50)"><defs><mask id="26e37cfa-ce32-4bef-2486-fc3c47befba2_clip"><rect x="-100" y="-100" width="312" height="201" fill="white"/><rect x="56" y="0" width="0" height="0" rx="3.5" ry="3.5" fill="black" opacity="1"/></mask></defs><g pointer-events="none" opacity="1" mask=""><path d="M0.00,-1.56 Q27.13,-1.42 40.69,-1.37 T67.81,-1.28 94.94,-1.22 108.69,-1.16 109.05,-1.04 109.35,-0.81 109.57,-0.49 109.67,-0.13 109.65,0.25 109.51,0.61 109.26,0.90 108.93,1.09 108.56,1.17 108.19,1.13 107.84,0.97 107.57,0.71 107.39,0.37 107.33,-0.00 107.39,-0.38 107.57,-0.71 107.84,-0.97 108.19,-1.13 108.56,-1.17 108.93,-1.09 109.26,-0.89 109.51,-0.61 109.65,-0.25 109.67,0.13 109.57,0.49 109.35,0.81 109.05,1.04 108.69,1.16 108.50,1.19 94.94,1.22 67.81,1.28 40.69,1.37 13.56,1.49 -0.19,1.54 -0.55,1.45 -0.88,1.27 -1.16,1.03 -1.37,0.72 -1.50,0.37 -1.55,-0.00 -1.50,-0.37 -1.37,-0.72 -1.16,-1.03 -0.88,-1.27 -0.55,-1.45 -0.19,-1.54 Z" fill="#1d1d1d" stroke="#1d1d1d" stroke-width="3.33" stroke-dasharray="none" stroke-dashoffset="none" stroke-linecap="round" stroke-linejoin="round" pointer-events="stroke"/><g><path d="M 87.75,-13.999999999999998 L 112,0 87.75,13.999999999999998" fill="none" stroke="#1d1d1d" stroke-width="6.66" stroke-linecap="round" stroke-linejoin="round" pointer-events="none"/></g></g></g><g transform="translate(2672.00, 976.00) rotate(0.00, 100.00, 112.00)"><rect width="200" height="224" fill="#fddf8e" rx="3" ry="3"/><text font-size="24px" font-family="Caveat Brush" font-weight="normal" line-height="24px" letter-spacing="-0.03em" text-align="center" dominant-baseline="mathematical" alignment-baseline="mathematical" text-anchor="middle" fill="#0d0d0d" transform="translate(16, 16)"><tspan y="12px" x="88">Grafana-Loki +
</tspan><tspan y="36px" x="88">Superset-Clickhouse
</tspan><tspan y="60px" x="88">will both derive
</tspan><tspan y="84px" x="88">business metrics 
 
</tspan><tspan y="108px" x="88">

</tspan><tspan y="132px" x="88">We'll be comparing
</tspan><tspan y="156px" x="88">these for latency &amp;
</tspan><tspan y="180px" x="88">performance
</tspan></text></g><g transform="translate(2832.00, 464.00) rotate(0.00, 100.00, 124.00)"><rect width="200" height="248" fill="#fddf8e" rx="3" ry="3"/><text font-size="24px" font-family="Caveat Brush" font-weight="normal" line-height="24px" letter-spacing="-0.03em" text-align="center" dominant-baseline="mathematical" alignment-baseline="mathematical" text-anchor="middle" fill="#0d0d0d" transform="translate(16, 16)"><tspan y="12px" x="88">Each of the separate
</tspan><tspan y="36px" x="88">loki box shown here
</tspan><tspan y="60px" x="88">can be a single
</tspan><tspan y="84px" x="88">instance but it will be
</tspan><tspan y="108px" x="88">different data series
</tspan><tspan y="132px" x="88">(tables) due the
</tspan><tspan y="156px" x="88">labels we'll be
</tspan><tspan y="180px" x="88">assigning. 
 
</tspan></text></g><g id="c9f67597-78f8-4608-08fd-34554d81945a_svg" class="tl-centered-g" transform="translate(1856.94, 702.88) rotate(0.00, 479.53, 472.56)"><defs><mask id="c9f67597-78f8-4608-08fd-34554d81945a_clip"><rect x="-100" y="-100" width="1159.06" height="1145.12" fill="white"/><rect x="479.53" y="472.56" width="0" height="0" rx="4" ry="4" fill="black" opacity="1"/></mask></defs><g pointer-events="none" opacity="1" mask=""><path d="M0,945.12L959.06,0" fill="#1d1d1d" stroke="#1d1d1d" stroke-width="4.23" stroke-dasharray="0.03 6.47" stroke-dashoffset="0" stroke-linecap="round" stroke-linejoin="round" pointer-events="stroke"/><g><path d="M 943.57,4.027856175257493 L 959.06,0 954.80,15.424083976863564" fill="none" stroke="#1d1d1d" stroke-width="4.23" stroke-linecap="round" stroke-linejoin="round" pointer-events="none"/></g></g></g><g id="22b8d2f8-4364-4ce9-3e92-ab467e7ef399_svg" class="tl-centered-g" transform="translate(1957.93, 613.03) rotate(0.00, 429.04, 165.49)"><defs><mask id="22b8d2f8-4364-4ce9-3e92-ab467e7ef399_clip"><rect x="-100" y="-100" width="1058.07" height="530.97" fill="white"/><rect x="429.03" y="165.48" width="0" height="0" rx="4" ry="4" fill="black" opacity="1"/></mask></defs><g pointer-events="none" opacity="1" mask=""><path d="M0,330.97L858.07,0" fill="#1d1d1d" stroke="#1d1d1d" stroke-width="4.23" stroke-dasharray="0.03 6.49" stroke-dashoffset="0" stroke-linecap="round" stroke-linejoin="round" pointer-events="stroke"/><g><path d="M 842.26,-2.4774773249354034 L 858.07,0 848.02,12.450548374420821" fill="none" stroke="#1d1d1d" stroke-width="4.23" stroke-linecap="round" stroke-linejoin="round" pointer-events="none"/></g></g></g><g id="cd47b335-1d8c-4aab-1819-94916a24a073_svg" class="tl-centered-g" transform="translate(2000.00, 579.98) rotate(0.00, 408.00, 17.54)"><defs><mask id="cd47b335-1d8c-4aab-1819-94916a24a073_clip"><rect x="-100" y="-100" width="1016" height="235.07" fill="white"/><rect x="408" y="17.54" width="0" height="0" rx="4" ry="4" fill="black" opacity="1"/></mask></defs><g pointer-events="none" opacity="1" mask=""><path d="M0,35.08L816,0" fill="#1d1d1d" stroke="#1d1d1d" stroke-width="4.23" stroke-dasharray="0.03 6.50" stroke-dashoffset="0" stroke-linecap="round" stroke-linejoin="round" pointer-events="stroke"/><g><path d="M 801.81,-7.397477674912619 L 816,0 802.49,8.587757532008666" fill="none" stroke="#1d1d1d" stroke-width="4.23" stroke-linecap="round" stroke-linejoin="round" pointer-events="none"/></g></g></g><g text-align="center" text-anchor="middle" transform="translate(16.00, 1616.00) rotate(0.00, 128.00, 64.00)"><g id="7c3e2a53-cac6-452d-2f0d-359de3569531_svg" class="tl-centered-g"><path d="M87.09,-0.53 Q99.26,-0.45 106.90,-0.41 T122.58,-0.37 138.76,-0.43 155.06,-0.52 171.39,-0.62 187.73,-0.72 204.08,-0.81 220.42,-0.91 236.79,-1.00 249.10,0.82 254.30,9.68 255.54,24.71 255.68,41.07 255.68,57.77 255.82,74.56 256.04,91.38 256.25,108.23 254.49,120.84 245.82,126.16 231.16,127.51 215.23,127.75 198.97,127.76 182.63,127.71 166.26,127.65 149.89,127.58 133.51,127.56 117.14,127.62 100.77,127.72 84.39,127.83 68.02,127.94 51.64,128.04 35.27,128.15 18.87,128.25 6.54,126.43 1.36,117.56 0.17,102.51 0.09,86.14 0.15,69.42 0.08,52.61 -0.08,35.77 -0.22,18.90 1.58,6.28 10.25,0.97 24.88,-0.38 40.79,-0.61 57.02,-0.61 73.33,-0.55 89.67,-0.48 106.01,-0.41 122.35,-0.37 138.70,-0.43 157.84,-0.53 169.00,-0.54 169.37,-0.42 169.68,-0.19 169.90,0.14 170.00,0.51 169.98,0.90 169.84,1.26 169.59,1.56 169.25,1.76 168.88,1.84 168.49,1.80 168.14,1.63 167.85,1.37 167.67,1.02 167.61,0.64 167.67,0.26 167.85,-0.09 168.14,-0.35 168.49,-0.52 168.87,-0.56 169.25,-0.48 169.59,-0.27 169.84,0.02 169.98,0.38 170.00,0.77 169.90,1.14 169.68,1.47 169.37,1.70 169.00,1.83 168.81,1.86 157.84,1.82 138.70,1.75 122.35,1.71 106.01,1.77 89.67,1.86 73.33,1.97 57.03,2.08 40.85,2.25 25.15,2.64 11.37,3.64 4.11,7.46 2.88,18.96 2.67,35.78 2.45,52.61 2.34,69.42 2.47,86.10 2.90,102.29 3.94,116.49 7.71,123.91 18.91,125.04 35.26,125.11 51.64,125.17 68.01,125.24 84.39,125.31 100.76,125.38 117.14,125.45 133.51,125.47 149.89,125.41 166.26,125.30 182.62,125.19 198.96,125.06 215.17,124.88 230.89,124.49 244.70,123.49 251.96,119.67 253.14,108.18 253.30,91.38 253.45,74.57 253.50,57.78 253.31,41.11 252.81,24.95 251.72,10.76 247.92,3.34 236.74,2.20 220.42,2.13 204.08,2.05 187.73,1.98 171.39,1.90 155.06,1.82 138.76,1.75 122.58,1.71 106.90,1.77 93.18,1.86 86.94,1.89 86.66,1.82 86.40,1.69 86.18,1.49 86.02,1.25 85.91,0.98 85.88,0.69 85.91,0.40 86.02,0.13 86.18,-0.11 86.40,-0.30 86.66,-0.44 86.94,-0.51 Z" fill="#1d1d1d" stroke="#1d1d1d" stroke-width="2" pointer-events="none"/></g><text font-size="28px" font-family="Caveat Brush" font-weight="normal" line-height="28px" letter-spacing="-0.03em" text-align="center" dominant-baseline="mathematical" alignment-baseline="mathematical" text-anchor="middle" transform="translate(70.5, 45)" fill="#1d1d1d" transform-origin="center center"><tspan y="14px" x="61.5">ORCA SDK's
</tspan></text></g><g text-align="center" text-anchor="middle" transform="translate(528.00, 1520.00) rotate(0.00, 112.00, 48.00)"><g id="1da70a74-0099-4057-2f5c-317b455ec9c3_svg" class="tl-centered-g"><path d="M87.01,-0.20 Q99.32,-0.12 107.05,-0.14 T122.91,-0.21 139.27,-0.34 155.75,-0.47 172.27,-0.60 188.80,-0.72 205.35,-0.85 217.76,0.92 222.98,8.04 224.25,19.30 224.39,31.33 224.39,43.55 224.52,55.81 224.73,68.10 224.93,80.42 223.17,90.19 214.46,94.77 199.74,95.94 183.76,96.14 167.44,96.14 151.03,96.10 134.60,96.05 118.16,96.04 101.71,96.13 85.27,96.27 68.83,96.41 52.39,96.55 35.94,96.70 19.48,96.83 7.13,95.09 1.87,87.96 0.46,76.68 0.16,64.62 -0.00,52.38 -0.30,40.09 -0.67,27.79 -1.04,15.44 0.62,5.64 9.34,1.05 24.13,-0.11 40.19,-0.29 56.60,-0.28 73.09,-0.22 89.62,-0.16 106.15,-0.14 122.68,-0.21 142.04,-0.35 153.33,-0.38 153.71,-0.26 154.03,-0.01 154.25,0.32 154.36,0.70 154.34,1.10 154.19,1.47 153.93,1.77 153.59,1.98 153.20,2.07 152.80,2.02 152.44,1.86 152.15,1.58 151.96,1.23 151.90,0.84 151.96,0.44 152.15,0.09 152.44,-0.18 152.80,-0.35 153.20,-0.40 153.59,-0.31 153.93,-0.11 154.19,0.20 154.34,0.57 154.36,0.97 154.25,1.35 154.03,1.68 153.71,1.92 153.33,2.05 153.13,2.09 142.04,2.05 122.68,1.99 106.15,1.96 89.62,2.04 73.10,2.18 56.61,2.32 40.24,2.51 24.35,2.88 10.42,3.73 3.15,6.84 2.06,15.47 2.07,27.75 2.07,40.05 2.18,52.34 2.53,64.53 3.17,76.33 4.37,86.69 8.25,92.46 19.52,93.64 35.94,93.70 52.38,93.75 68.82,93.81 85.27,93.87 101.71,93.93 118.15,93.94 134.59,93.85 151.02,93.70 167.43,93.54 183.71,93.34 199.52,92.95 213.37,92.10 220.64,88.98 221.84,80.35 221.99,68.10 222.15,55.82 222.20,43.56 222.02,31.40 221.53,19.62 220.46,9.28 216.63,3.52 205.31,2.34 188.81,2.28 172.28,2.20 155.76,2.13 139.27,2.06 122.91,1.99 107.05,1.96 93.17,2.04 86.87,2.08 86.61,2.01 86.36,1.89 86.16,1.70 86.00,1.48 85.90,1.22 85.87,0.95 85.90,0.68 86.00,0.42 86.15,0.19 86.36,0.01 86.60,-0.12 86.87,-0.19 Z" fill="#36b24d" stroke="#36b24d" stroke-width="2" pointer-events="none"/></g><text font-size="28px" font-family="Caveat Brush" font-weight="normal" line-height="28px" letter-spacing="-0.03em" text-align="center" dominant-baseline="mathematical" alignment-baseline="mathematical" text-anchor="middle" transform="translate(79.5, 29)" fill="#36b24d" transform-origin="center center"><tspan y="14px" x="36.5">Kafka
</tspan></text></g><g id="dba66ca0-8cca-4704-013c-4bd293c69a79_svg" class="tl-centered-g" transform="translate(272.00, 1599.62) rotate(0.00, 120.00, 26.21)"><defs><mask id="dba66ca0-8cca-4704-013c-4bd293c69a79_clip"><rect x="-100" y="-100" width="440" height="252.42" fill="white"/><rect x="120" y="26.21" width="0" height="0" rx="4" ry="4" fill="black" opacity="1"/></mask></defs><g pointer-events="none" opacity="1" mask=""><path d="M-0.20,51.52 Q59.33,38.59 89.09,32.12 T148.61,19.17 208.13,6.21 238.01,-0.28 238.24,-0.26 238.45,-0.16 238.61,-0.00 238.72,0.20 238.76,0.43 238.72,0.66 238.61,0.86 238.44,1.02 238.24,1.11 238.01,1.14 237.78,1.09 237.58,0.97 237.43,0.79 237.35,0.58 237.34,0.35 237.40,0.13 237.53,-0.06 237.71,-0.20 237.93,-0.28 238.16,-0.28 238.38,-0.20 238.56,-0.06 238.69,0.13 238.75,0.35 238.74,0.58 238.66,0.80 238.51,0.97 238.31,1.09 238.20,1.13 208.45,7.65 148.94,20.68 89.44,33.72 29.94,46.78 0.09,53.33 -0.13,53.32 -0.35,53.27 -0.54,53.16 -0.70,53.01 -0.82,52.82 -0.89,52.62 -0.91,52.40 -0.88,52.18 -0.80,51.97 -0.67,51.80 -0.50,51.65 -0.30,51.56 Z" fill="#1d1d1d" stroke="#1d1d1d" stroke-width="2.11" stroke-dasharray="none" stroke-dashoffset="none" stroke-linecap="round" stroke-linejoin="round" pointer-events="stroke"/><g><path d="M 224.75,-4.8589793100848535 L 240,0 228.16,10.772507922904829" fill="none" stroke="#1d1d1d" stroke-width="4.23" stroke-linecap="round" stroke-linejoin="round" pointer-events="none"/></g></g></g><g text-align="center" text-anchor="middle" transform="translate(659.96, 1088.00) rotate(0.00, 89.83, 216.00)"><g id="12d69ddd-880d-48af-3748-8da308fa7492_svg" class="tl-centered-g"><defs><mask id="12d69ddd-880d-48af-3748-8da308fa7492_clip"><rect x="-100" y="-100" width="379.66" height="632" fill="white"/><rect x="-29.165000000000006" y="183" width="238" height="66" rx="4" ry="4" fill="black" opacity="1"/></mask></defs><g pointer-events="none" opacity="1" mask="url(#12d69ddd-880d-48af-3748-8da308fa7492_clip)"><path d="M-0.97,431.60 Q43.80,324.08 66.19,270.32 T110.94,162.79 155.69,55.26 178.14,1.37 178.33,1.16 178.58,1.01 178.87,0.95 179.15,0.99 179.41,1.12 179.62,1.32 179.75,1.57 179.79,1.86 179.74,2.14 179.60,2.40 179.39,2.59 179.13,2.71 178.84,2.74 178.56,2.67 178.31,2.52 178.13,2.30 178.03,2.03 178.02,1.74 178.10,1.46 178.26,1.22 178.50,1.05 178.77,0.96 179.06,0.97 179.33,1.06 179.56,1.24 179.72,1.48 179.79,1.76 179.77,2.05 179.74,2.19 157.38,55.97 112.68,163.52 67.99,271.07 23.31,378.62 0.91,432.52 0.76,432.72 0.57,432.88 0.34,432.99 0.09,433.04 -0.16,433.03 -0.40,432.97 -0.62,432.84 -0.80,432.67 -0.94,432.46 -1.02,432.22 -1.05,431.97 -1.01,431.72 Z" fill="#1d1d1d" stroke="#1d1d1d" stroke-width="2.11" stroke-dasharray="none" stroke-dashoffset="none" stroke-linecap="round" stroke-linejoin="round" pointer-events="stroke"/><g><path d="M 166.96,9.721881534260655 L 179.67,0 181.73,15.86611066928773" fill="none" stroke="#1d1d1d" stroke-width="4.23" stroke-linecap="round" stroke-linejoin="round" pointer-events="none"/></g></g></g><text font-size="28px" font-family="Caveat Brush" font-weight="normal" line-height="28px" letter-spacing="-0.03em" text-align="left" dominant-baseline="mathematical" alignment-baseline="mathematical" text-anchor="start" transform="translate(-29.159999999999997, 183)" fill="#1d1d1d" transform-origin="center center"><tspan y="14px" x="4">Logs for Logviewer
</tspan><tspan y="42px" x="4">
(+ Metrics or other data)
</tspan></text></g><g transform="translate(752.00, 1680.00) rotate(0.00, 100.00, 160.00)"><rect width="200" height="320" fill="#fddf8e" rx="3" ry="3"/><text font-size="24px" font-family="Caveat Brush" font-weight="normal" line-height="24px" letter-spacing="-0.03em" text-align="center" dominant-baseline="mathematical" alignment-baseline="mathematical" text-anchor="middle" fill="#0d0d0d" transform="translate(16, 16)"><tspan y="12px" x="88">Can think of
</tspan><tspan y="36px" x="88">alternative solutions
</tspan><tspan y="60px" x="88">to kafka, based on
</tspan><tspan y="84px" x="88">what the sdk
</tspan><tspan y="108px" x="88">supports, 
 
</tspan><tspan y="132px" x="88">

</tspan><tspan y="156px" x="88">But the rest of the
</tspan><tspan y="180px" x="88">pipeline would be
</tspan><tspan y="204px" x="88">mostly unaffected
</tspan><tspan y="228px" x="88">since it ingests into
</tspan><tspan y="252px" x="88">opentel collector any
</tspan><tspan y="276px" x="88">way
</tspan></text></g><g id="27e6df4e-27fc-44ef-3de9-439f9c5c302e_svg" class="tl-centered-g" transform="translate(697.55, 1616.00) rotate(0.00, 28.77, 24.00)"><defs><mask id="27e6df4e-27fc-44ef-3de9-439f9c5c302e_clip"><rect x="-100" y="-100" width="257.55" height="248" fill="white"/><rect x="28.77" y="24" width="0" height="0" rx="2.34" ry="2.34" fill="black" opacity="1"/></mask></defs><g pointer-events="none" opacity="1" mask=""><path d="M0,0L57.55,48" fill="#1d1d1d" stroke="#1d1d1d" stroke-width="4.23" stroke-dasharray="0.03 8.29" stroke-dashoffset="0" stroke-linecap="round" stroke-linejoin="round" pointer-events="stroke"/><g><path d="M 52.03,32.981216702263424 L 57.55,48 41.78,45.268380969384026" fill="none" stroke="#1d1d1d" stroke-width="4.23" stroke-linecap="round" stroke-linejoin="round" pointer-events="none"/></g></g></g></svg>