<svg width="280" height="41" viewBox="0 0 280 41" fill="none" xmlns="http://www.w3.org/2000/svg">
<rect width="280" height="41" rx="4" fill="#006DF9"/>
<path d="M72.9506 18.2646C72.9137 17.8922 72.7552 17.6029 72.4751 17.3967C72.1951 17.1905 71.815 17.0874 71.3349 17.0874C71.0086 17.0874 70.7332 17.1335 70.5085 17.2259C70.2839 17.3151 70.1115 17.4397 69.9915 17.5998C69.8745 17.7598 69.8161 17.9414 69.8161 18.1445C69.8099 18.3138 69.8453 18.4615 69.9222 18.5877C70.0022 18.7139 70.1115 18.8232 70.25 18.9155C70.3885 19.0047 70.5485 19.0832 70.7301 19.1509C70.9117 19.2156 71.1056 19.271 71.3118 19.3171L72.1612 19.5202C72.5736 19.6126 72.9522 19.7357 73.2969 19.8896C73.6416 20.0434 73.9401 20.2327 74.1925 20.4574C74.4448 20.6821 74.6403 20.9467 74.7788 21.2514C74.9203 21.5561 74.9927 21.9054 74.9957 22.2994C74.9927 22.878 74.8449 23.3796 74.5526 23.8043C74.2633 24.226 73.8447 24.5537 73.2969 24.7876C72.7521 25.0185 72.0951 25.1339 71.3256 25.1339C70.5624 25.1339 69.8976 25.0169 69.3313 24.783C68.7681 24.5491 68.328 24.2029 68.011 23.7443C67.6971 23.2827 67.5324 22.7118 67.517 22.0316H69.4513C69.4729 22.3486 69.5637 22.6133 69.7237 22.8256C69.8868 23.0349 70.1038 23.1934 70.3746 23.3011C70.6486 23.4058 70.9579 23.4581 71.3026 23.4581C71.6411 23.4581 71.935 23.4089 72.1843 23.3104C72.4367 23.2119 72.6321 23.0749 72.7706 22.8995C72.9091 22.7241 72.9783 22.5225 72.9783 22.2947C72.9783 22.0824 72.9152 21.9039 72.7891 21.7592C72.666 21.6146 72.4844 21.4915 72.2443 21.3899C72.0073 21.2884 71.7165 21.196 71.3718 21.1129L70.3423 20.8544C69.5452 20.6605 68.9158 20.3574 68.4542 19.945C67.9925 19.5326 67.7633 18.977 67.7663 18.2784C67.7633 17.706 67.9156 17.2058 68.2234 16.7781C68.5342 16.3503 68.9605 16.0163 69.5021 15.7763C70.0438 15.5362 70.6593 15.4162 71.3487 15.4162C72.0504 15.4162 72.6629 15.5362 73.1861 15.7763C73.7124 16.0163 74.1217 16.3503 74.4141 16.7781C74.7064 17.2058 74.8572 17.7013 74.8665 18.2646H72.9506ZM76.3034 25V17.9091H78.27V25H76.3034ZM77.2913 16.995C76.9989 16.995 76.7481 16.8981 76.5388 16.7042C76.3326 16.5072 76.2295 16.2718 76.2295 15.9979C76.2295 15.727 76.3326 15.4947 76.5388 15.3008C76.7481 15.1038 76.9989 15.0053 77.2913 15.0053C77.5837 15.0053 77.8329 15.1038 78.0392 15.3008C78.2484 15.4947 78.3531 15.727 78.3531 15.9979C78.3531 16.2718 78.2484 16.5072 78.0392 16.7042C77.8329 16.8981 77.5837 16.995 77.2913 16.995ZM83.04 27.8068C82.4029 27.8068 81.8566 27.7191 81.4011 27.5437C80.9487 27.3713 80.5886 27.1359 80.3208 26.8374C80.0531 26.5388 79.8792 26.2034 79.7992 25.831L81.6181 25.5863C81.6735 25.7279 81.7612 25.8602 81.8812 25.9833C82.0012 26.1064 82.1597 26.2049 82.3567 26.2788C82.5568 26.3557 82.7999 26.3942 83.0861 26.3942C83.5139 26.3942 83.8663 26.2895 84.1433 26.0803C84.4234 25.8741 84.5634 25.5278 84.5634 25.0415V23.7443H84.4803C84.3941 23.9413 84.2649 24.1275 84.0925 24.3029C83.9202 24.4783 83.6986 24.6214 83.4277 24.7322C83.1569 24.843 82.8337 24.8984 82.4583 24.8984C81.9258 24.8984 81.4411 24.7753 81.0041 24.5291C80.5701 24.2798 80.2239 23.8997 79.9654 23.3888C79.7099 22.8749 79.5822 22.2255 79.5822 21.4407C79.5822 20.6374 79.713 19.9665 79.9746 19.4279C80.2362 18.8893 80.584 18.4862 81.0179 18.2184C81.455 17.9506 81.9335 17.8168 82.4537 17.8168C82.8507 17.8168 83.1831 17.8845 83.4508 18.0199C83.7186 18.1522 83.934 18.3184 84.0971 18.5185C84.2633 18.7154 84.391 18.9093 84.4803 19.1001H84.5542V17.9091H86.5069V25.0692C86.5069 25.6725 86.3592 26.1772 86.0637 26.5835C85.7683 26.9897 85.359 27.2944 84.8358 27.4975C84.3156 27.7037 83.717 27.8068 83.04 27.8068ZM83.0815 23.4212C83.3985 23.4212 83.6663 23.3427 83.8848 23.1857C84.1064 23.0257 84.2756 22.7979 84.3926 22.5025C84.5126 22.204 84.5726 21.8469 84.5726 21.4315C84.5726 21.016 84.5141 20.6559 84.3972 20.3512C84.2802 20.0434 84.111 19.8049 83.8894 19.6357C83.6678 19.4664 83.3985 19.3817 83.0815 19.3817C82.7583 19.3817 82.486 19.4695 82.2644 19.6449C82.0428 19.8172 81.8751 20.0573 81.7612 20.3651C81.6473 20.6728 81.5904 21.0283 81.5904 21.4315C81.5904 21.8408 81.6473 22.1947 81.7612 22.4933C81.8781 22.7887 82.0459 23.018 82.2644 23.1811C82.486 23.3411 82.7583 23.4212 83.0815 23.4212ZM90.0385 20.9006V25H88.0719V17.9091H89.9462V19.1602H90.0293C90.1863 18.7478 90.4494 18.4215 90.8187 18.1815C91.188 17.9383 91.6358 17.8168 92.1621 17.8168C92.6545 17.8168 93.0839 17.9245 93.4501 18.1399C93.8163 18.3554 94.101 18.6631 94.3042 19.0632C94.5073 19.4602 94.6088 19.9342 94.6088 20.4851V25H92.6422V20.8359C92.6453 20.402 92.5345 20.0634 92.3098 19.8203C92.0852 19.5741 91.7759 19.451 91.3819 19.451C91.1172 19.451 90.8833 19.5079 90.6802 19.6218C90.4802 19.7357 90.3232 19.9019 90.2093 20.1204C90.0985 20.3358 90.0416 20.5959 90.0385 20.9006ZM103.715 21.9808V17.9091H105.681V25H103.793V23.712H103.719C103.559 24.1275 103.293 24.4614 102.921 24.7138C102.551 24.9661 102.101 25.0923 101.568 25.0923C101.094 25.0923 100.677 24.9846 100.317 24.7692C99.957 24.5537 99.6754 24.2475 99.4723 23.8505C99.2723 23.4535 99.1707 22.978 99.1676 22.424V17.9091H101.134V22.0732C101.137 22.4917 101.25 22.8226 101.471 23.0657C101.693 23.3088 101.99 23.4304 102.362 23.4304C102.599 23.4304 102.821 23.3765 103.027 23.2688C103.233 23.158 103.399 22.9949 103.526 22.7795C103.655 22.564 103.718 22.2978 103.715 21.9808ZM107.255 27.6591V17.9091H109.193V19.1001H109.281C109.367 18.9093 109.492 18.7154 109.655 18.5185C109.821 18.3184 110.037 18.1522 110.301 18.0199C110.569 17.8845 110.902 17.8168 111.299 17.8168C111.816 17.8168 112.293 17.9522 112.73 18.223C113.167 18.4908 113.516 18.8955 113.778 19.4371C114.039 19.9757 114.17 20.6513 114.17 21.4638C114.17 22.2547 114.042 22.9226 113.787 23.4673C113.534 24.009 113.19 24.4199 112.753 24.6999C112.319 24.9769 111.833 25.1154 111.294 25.1154C110.912 25.1154 110.588 25.0523 110.32 24.9261C110.055 24.8 109.838 24.6415 109.669 24.4506C109.5 24.2567 109.37 24.0613 109.281 23.8643H109.221V27.6591H107.255ZM109.18 21.4545C109.18 21.8762 109.238 22.244 109.355 22.5579C109.472 22.8718 109.641 23.1165 109.863 23.2919C110.084 23.4643 110.354 23.5504 110.671 23.5504C110.991 23.5504 111.262 23.4627 111.483 23.2873C111.705 23.1088 111.873 22.8626 111.986 22.5487C112.103 22.2317 112.162 21.867 112.162 21.4545C112.162 21.0452 112.105 20.6851 111.991 20.3743C111.877 20.0634 111.709 19.8203 111.488 19.6449C111.266 19.4695 110.994 19.3817 110.671 19.3817C110.351 19.3817 110.08 19.4664 109.858 19.6357C109.64 19.8049 109.472 20.045 109.355 20.3558C109.238 20.6667 109.18 21.0329 109.18 21.4545ZM122.262 17.9091V19.3864H117.991V17.9091H122.262ZM118.961 16.2102H120.927V22.821C120.927 23.0026 120.955 23.1442 121.01 23.2457C121.066 23.3442 121.143 23.4135 121.241 23.4535C121.343 23.4935 121.46 23.5135 121.592 23.5135C121.684 23.5135 121.777 23.5058 121.869 23.4904C121.961 23.4719 122.032 23.4581 122.081 23.4489L122.391 24.9123C122.292 24.9431 122.154 24.9785 121.975 25.0185C121.797 25.0616 121.58 25.0877 121.324 25.0969C120.85 25.1154 120.435 25.0523 120.078 24.9077C119.724 24.763 119.449 24.5384 119.252 24.2337C119.055 23.929 118.958 23.5443 118.961 23.0795V16.2102ZM126.67 25.1385C125.953 25.1385 125.333 24.9862 124.81 24.6815C124.29 24.3737 123.888 23.9459 123.605 23.3981C123.322 22.8472 123.18 22.2086 123.18 21.4822C123.18 20.7498 123.322 20.1096 123.605 19.5618C123.888 19.0109 124.29 18.5831 124.81 18.2784C125.333 17.9706 125.953 17.8168 126.67 17.8168C127.387 17.8168 128.006 17.9706 128.526 18.2784C129.049 18.5831 129.452 19.0109 129.736 19.5618C130.019 20.1096 130.16 20.7498 130.16 21.4822C130.16 22.2086 130.019 22.8472 129.736 23.3981C129.452 23.9459 129.049 24.3737 128.526 24.6815C128.006 24.9862 127.387 25.1385 126.67 25.1385ZM126.68 23.6151C127.006 23.6151 127.278 23.5227 127.497 23.3381C127.715 23.1503 127.88 22.8949 127.991 22.5717C128.104 22.2486 128.161 21.8808 128.161 21.4684C128.161 21.056 128.104 20.6882 127.991 20.3651C127.88 20.0419 127.715 19.7865 127.497 19.5987C127.278 19.411 127.006 19.3171 126.68 19.3171C126.35 19.3171 126.073 19.411 125.849 19.5987C125.627 19.7865 125.459 20.0419 125.345 20.3651C125.235 20.6882 125.179 21.056 125.179 21.4684C125.179 21.8808 125.235 22.2486 125.345 22.5717C125.459 22.8949 125.627 23.1503 125.849 23.3381C126.073 23.5227 126.35 23.6151 126.68 23.6151Z" fill="white"/>
<path d="M158.297 21.7882C158.297 24.0542 156.889 25.405 154.942 25.405C153.865 25.405 152.927 24.9679 152.498 24.2448V27.9978H150.993V18.2817H152.373L152.497 19.3466C152.925 18.6235 153.836 18.1455 154.94 18.1455C156.817 18.1455 158.295 19.4419 158.295 21.7896L158.297 21.7882ZM156.736 21.7882C156.736 20.3556 155.881 19.4678 154.637 19.4678C153.45 19.4542 152.54 20.3543 152.54 21.8018C152.54 23.2494 153.451 24.0814 154.637 24.0814C155.823 24.0814 156.736 23.2221 156.736 21.7882Z" fill="white"/>
<path d="M166.303 22.1841H160.892C160.919 23.4941 161.788 24.1763 162.893 24.1763C163.721 24.1763 164.412 23.7937 164.701 23.0297H166.234C165.861 24.4487 164.591 25.4046 162.865 25.4046C160.753 25.4046 159.359 23.9584 159.359 21.7606C159.359 19.5627 160.753 18.1301 162.852 18.1301C164.951 18.1301 166.303 19.5218 166.303 21.6244V22.1841V22.1841ZM160.906 21.1464H164.77C164.688 19.9317 163.874 19.3176 162.852 19.3176C161.83 19.3176 161.016 19.9317 160.906 21.1464Z" fill="white"/>
<path d="M168.968 18.281C168.266 18.281 167.697 18.8434 167.697 19.5379V25.2695H169.216V21.5438V19.9328C169.216 19.7599 169.358 19.6182 169.534 19.6182H171.853V18.281H168.969H168.968Z" fill="white"/>
<path d="M148.565 18.2673L146.619 24.0684L144.52 18.281H142.89L145.582 25.1741C145.664 25.392 145.706 25.5704 145.706 25.7474C145.706 25.8441 145.696 25.9326 145.679 26.0143L145.675 26.0293C145.666 26.0729 145.655 26.1138 145.641 26.1532L145.539 26.5223C145.514 26.6135 145.43 26.6762 145.335 26.6762H143.193V27.9998H144.754C145.803 27.9998 146.672 27.7547 147.17 26.3888L150.138 18.281L148.563 18.2673H148.565Z" fill="white"/>
<path d="M135.712 25.2684H137.216V21.5018C137.216 20.328 137.865 19.5096 139.066 19.5096C140.115 19.496 140.764 20.1101 140.764 21.461V25.2684H142.269V21.2281C142.269 18.8396 140.793 18.1301 139.453 18.1301C138.431 18.1301 137.631 18.5264 137.216 19.1814V15.4148H135.712V25.2684V25.2684Z" fill="white"/>
<path d="M173.841 23.154C173.855 23.8771 174.531 24.3006 175.456 24.3006C176.382 24.3006 176.933 23.9588 176.933 23.3447C176.933 22.8122 176.657 22.5263 175.856 22.4023L174.434 22.1572C173.054 21.9257 172.516 21.2149 172.516 20.2195C172.516 18.9639 173.772 18.1455 175.374 18.1455C177.099 18.1455 178.355 18.9639 178.369 20.357H176.879C176.865 19.6475 176.244 19.2513 175.375 19.2513C174.506 19.2513 174.023 19.5931 174.023 20.1663C174.023 20.6716 174.382 20.9031 175.168 21.0392L176.562 21.2843C177.873 21.5158 178.481 22.1572 178.481 23.2085C178.481 24.6547 177.128 25.4064 175.485 25.4064C173.622 25.4064 172.366 24.5199 172.338 23.154H173.844H173.841Z" fill="white"/>
<path d="M181.902 23.6313L183.503 18.281H185.078L186.652 23.6313L187.991 18.281H189.579L187.578 25.2695H185.879L184.278 19.9464L182.662 25.2695H180.95L178.935 18.281H180.523L181.903 23.6313H181.902Z" fill="white"/>
<path d="M190.462 15.4148H192.132V16.9713H190.462V15.4148ZM190.544 18.2813H192.048V25.2698H190.544V18.2813Z" fill="white"/>
<path d="M201.615 19.4274C200.441 19.4274 199.641 20.273 199.641 21.7614C199.641 23.3315 200.469 24.0954 201.573 24.0954C202.456 24.0954 203.106 23.6038 203.396 22.6765H204.997C204.638 24.3692 203.341 25.4068 201.601 25.4068C199.503 25.4068 198.094 23.9606 198.094 21.7628C198.094 19.5649 199.502 18.1323 201.615 18.1323C203.341 18.1323 204.624 19.1019 204.997 20.7932H203.368C203.12 19.9203 202.443 19.4287 201.615 19.4287V19.4274Z" fill="white"/>
<path d="M195.769 23.9442C195.68 23.9442 195.61 23.8734 195.61 23.7876V19.6043H197.253V18.2807H195.61V16.4097H194.106V17.6244C194.106 18.0615 193.968 18.2794 193.526 18.2794H192.919V19.603H194.106V23.3696C194.106 24.5843 194.782 25.2665 196.011 25.2665H197.239V23.9429H195.77L195.769 23.9442Z" fill="white"/>
<path d="M209.865 18.1301C208.843 18.1301 208.043 18.5264 207.628 19.1814V15.4148H206.124V25.2684H207.628V21.5018C207.628 20.328 208.277 19.5096 209.478 19.5096C210.527 19.496 211.176 20.1101 211.176 21.461V25.2684H212.681V21.2281C212.681 18.8396 211.205 18.1301 209.865 18.1301V18.1301Z" fill="white"/>
</svg>
