<?xml version="1.0" encoding="UTF-8"?>
<svg version="1.1" xmlns="http://www.w3.org/2000/svg" width="545" height="58">
<path d="M0 0 C6.63052309 4.08905921 10.90246237 9.43065197 13.19921875 16.9375 C14.84204557 25.08783501 13.34191681 32.70016343 9.32421875 39.90234375 C4.52910273 47.0076068 -2.00799998 50.01489105 -10.17578125 52.125 C-17.45324818 53.45310383 -24.79475115 50.71128037 -31.03515625 47.02734375 C-35.90416092 43.32539432 -39.26221491 37.86569902 -41.17578125 32.125 C-41.95842141 22.90102664 -41.97984763 14.7697078 -36.17578125 7.125 C-26.64862098 -3.26030522 -13.01486366 -6.92843019 0 0 Z M-22.17578125 12.125 C-25.93871136 16.59483895 -26.87093929 20.95948772 -26.6328125 26.75390625 C-25.86406047 30.74221806 -24.16634191 32.4063085 -21.17578125 35.125 C-18.09587813 37.17826875 -17.07739953 37.125 -13.17578125 37.125 C-13.17578125 38.445 -13.17578125 39.765 -13.17578125 41.125 C-7.85000533 38.78488634 -4.64966887 34.62420074 -1.73828125 29.6875 C-0.77072121 25.2797265 -1.04338593 21.30521339 -3.1171875 17.3125 C-5.48134839 14.06665535 -7.0734793 13.14847914 -10.98828125 12.25 C-12.04015625 12.20875 -13.09203125 12.1675 -14.17578125 12.125 C-14.17578125 10.145 -14.17578125 8.165 -14.17578125 6.125 C-17.05369493 6.125 -20.25153703 10.23016562 -22.17578125 12.125 Z " fill="#0561E2" transform="translate(41.17578125,2.875)"/>
<path d="M0 0 C0.43424752 3.10176801 0.58422925 5.91120536 0 9 C-1.55875721 10.85504991 -3.2336947 12.11289505 -5.17578125 13.5546875 C-8.88440305 16.492996 -10.67116129 19.83712271 -11.37890625 24.4921875 C-11.56592983 28.55844206 -11.36669891 31.2818813 -9.5 34.9375 C-6.17338148 37.68196028 -3.1061432 38.69972132 1 40 C0.67 44.95 0.34 49.9 0 55 C-8.21508945 54.4132079 -15.00286927 51.83504611 -21 46 C-27.01716292 37.59642686 -27.87416779 30.18148372 -27 20 C-24.8313796 12.06602293 -19.59045473 6.68238347 -13 2 C-8.59389259 -0.11493156 -4.85558591 -0.19422344 0 0 Z " fill="#2A8EFE" transform="translate(27,0)"/>
<path d="M0 0 C1.134375 0.020625 2.26875 0.04125 3.4375 0.0625 C5.58053203 5.13168268 7.716585 10.20372688 9.84619141 15.27856445 C10.57181233 17.00495786 11.29934213 18.73055022 12.02880859 20.45532227 C13.07630893 22.93298122 14.11693627 25.41342908 15.15625 27.89453125 C15.48435669 28.66650345 15.81246338 29.43847565 16.1505127 30.23384094 C18.4375 35.72088488 18.4375 35.72088488 18.4375 39.0625 C15.7975 39.0625 13.1575 39.0625 10.4375 39.0625 C8.9525 34.6075 8.9525 34.6075 7.4375 30.0625 C2.1575 30.0625 -3.1225 30.0625 -8.5625 30.0625 C-9.5525 33.0325 -10.5425 36.0025 -11.5625 39.0625 C-14.2025 39.0625 -16.8425 39.0625 -19.5625 39.0625 C-18.97115897 34.1559805 -17.4399809 29.9870781 -15.4375 25.51171875 C-15.13054199 24.81230667 -14.82358398 24.11289459 -14.50732422 23.39228821 C-13.86159956 21.92441975 -13.21261741 20.45798039 -12.56054688 18.99291992 C-11.55918016 16.7425393 -10.56784173 14.48794711 -9.578125 12.23242188 C-8.94849183 10.80443376 -8.31830321 9.3766904 -7.6875 7.94921875 C-7.38956543 7.27324142 -7.09163086 6.5972641 -6.78466797 5.90080261 C-4.18639725 0.07344557 -4.18639725 0.07344557 0 0 Z M-1.5625 11.0625 C-2.2333712 12.6857687 -2.89907029 14.31117578 -3.5625 15.9375 C-3.93375 16.84242187 -4.305 17.74734375 -4.6875 18.6796875 C-5.67740226 20.95233858 -5.67740226 20.95233858 -5.5625 23.0625 C-2.2625 23.0625 1.0375 23.0625 4.4375 23.0625 C3.1175 19.1025 1.7975 15.1425 0.4375 11.0625 C-0.2225 11.0625 -0.8825 11.0625 -1.5625 11.0625 Z " fill="#FFFFFF" transform="translate(203.5625,7.9375)"/>
<path d="M0 0 C2.64 0 5.28 0 8 0 C8.01458252 0.83249268 8.02916504 1.66498535 8.04418945 2.52270508 C8.1052863 5.61489653 8.17944556 8.70642082 8.26245117 11.7980957 C8.31201319 13.7929063 8.34651133 15.78807257 8.38085938 17.78320312 C8.41630859 19.03681641 8.45175781 20.29042969 8.48828125 21.58203125 C8.51446533 22.73936768 8.54064941 23.8967041 8.56762695 25.08911133 C8.77500753 27.97582245 8.77500753 27.97582245 10.31323242 29.87768555 C13.16583105 31.77570203 15.69492914 31.35411473 19 31 C21.61593153 29.16884793 21.96989455 28.09031634 23 25 C23.14939774 23.08234406 23.24810283 21.16053478 23.31640625 19.23828125 C23.35830078 18.12001953 23.40019531 17.00175781 23.44335938 15.84960938 C23.48267578 14.68236328 23.52199219 13.51511719 23.5625 12.3125 C23.60568359 11.13365234 23.64886719 9.95480469 23.69335938 8.74023438 C23.79951176 5.82694117 23.90156242 2.91356243 24 0 C26.31 0 28.62 0 31 0 C31.09957372 4.00171468 31.17179608 8.00294042 31.21972656 12.00561523 C31.23972628 13.36446713 31.26693576 14.72323424 31.30175781 16.08178711 C31.65964784 30.41317734 31.65964784 30.41317734 27 36 C22.49774017 39.61511504 18.46147778 39.49939009 12.8828125 39.35546875 C7.9840908 38.75142583 5.35361988 36.54032607 2.1875 32.9375 C-0.14453731 29.13259702 -0.11739217 25.94366957 -0.09765625 21.58203125 C-0.09443359 20.32841797 -0.09121094 19.07480469 -0.08789062 17.78320312 C-0.07951172 16.47287109 -0.07113281 15.16253906 -0.0625 13.8125 C-0.05748317 12.47721519 -0.05292059 11.14192859 -0.04882812 9.80664062 C-0.03702695 6.53771527 -0.02056297 3.26888009 0 0 Z " fill="#FFFFFF" transform="translate(95,8)"/>
<path d="M0 0 C0.78375 0.495 1.5675 0.99 2.375 1.5 C0.98167426 4.86720387 -0.6039286 6.4859524 -3.625 8.5 C-4.285 7.84 -4.945 7.18 -5.625 6.5 C-9.20843976 6.33322718 -9.20843976 6.33322718 -12.625 6.5 C-13.285 8.48 -13.945 10.46 -14.625 12.5 C-13.98433594 12.64695312 -13.34367188 12.79390625 -12.68359375 12.9453125 C-6.76685963 14.47960719 -1.11247167 16.15180063 2.375 21.5 C3.51221858 26.39396135 3.15568213 30.16168777 0.625 34.5 C-4.22632903 38.81229247 -8.35682594 38.91342511 -14.6953125 38.8359375 C-18.73719231 38.37246862 -20.62219709 37.16915815 -23.625 34.5 C-22.57625002 31.87812506 -21.97568687 30.70628639 -19.5 29.25 C-18.88125 29.0025 -18.2625 28.755 -17.625 28.5 C-16.635 29.16 -15.645 29.82 -14.625 30.5 C-11.04142759 30.75015873 -11.04142759 30.75015873 -7.625 30.5 C-6.32866379 29.43354885 -6.32866379 29.43354885 -6.5625 26.9375 C-6.583125 26.133125 -6.60375 25.32875 -6.625 24.5 C-7.44484375 24.19707031 -8.2646875 23.89414062 -9.109375 23.58203125 C-10.18703125 23.16308594 -11.2646875 22.74414062 -12.375 22.3125 C-13.44234375 21.90644531 -14.5096875 21.50039063 -15.609375 21.08203125 C-19.00690411 19.29964875 -20.58905735 17.73327082 -22.625 14.5 C-23.65583044 10.07349283 -23.19049828 6.4843859 -20.9375 2.5625 C-15.01430407 -2.72035043 -7.17189323 -2.96767996 0 0 Z " fill="#FFFFFF" transform="translate(153.625,8.5)"/>
<path d="M0 0 C19 0 19 0 25 4 C27.48133339 7.72200009 27.52296148 10.68978518 27 15 C25.59204084 18.72695073 24.37925558 19.77554261 20.9375 21.8125 C16.35339055 23.56351177 11.84283209 23.1990205 7 23 C7 28.28 7 33.56 7 39 C4.69 39 2.38 39 0 39 C0 26.13 0 13.26 0 0 Z M7 6 C7 9.3 7 12.6 7 16 C13.39825263 16.47326369 13.39825263 16.47326369 19 14 C19.41666667 11.5 19.41666667 11.5 19 9 C16.50494038 6.50494038 15.32671112 6.64051624 11.875 6.375 C10.26625 6.25125 8.6575 6.1275 7 6 Z " fill="#FFFFFF" transform="translate(161,8)"/>
<path d="M0 0 C1.98 0 3.96 0 6 0 C6.62958174 1.51894235 7.25340464 3.04027195 7.875 4.5625 C8.39707031 5.83287109 8.39707031 5.83287109 8.9296875 7.12890625 C10.13334763 10.35770257 11.05335056 13.68672696 12 17 C13.98 11.39 15.96 5.78 18 0 C19.98 0 21.96 0 24 0 C24.34933594 1.07121094 24.69867188 2.14242188 25.05859375 3.24609375 C25.51807145 4.64328104 25.97771546 6.04041365 26.4375 7.4375 C26.66759766 8.14455078 26.89769531 8.85160156 27.13476562 9.58007812 C28.07421147 13.06306795 28.07421147 13.06306795 30 16 C30.34933594 14.92878906 30.69867188 13.85757813 31.05859375 12.75390625 C31.51807145 11.35671896 31.97771546 9.95958635 32.4375 8.5625 C32.66759766 7.85544922 32.89769531 7.14839844 33.13476562 6.41992188 C34.88671875 1.11328125 34.88671875 1.11328125 36 0 C37.98 0 39.96 0 42 0 C39.03 9.24 36.06 18.48 33 28 C31.02 28 29.04 28 27 28 C25.02 22.39 23.04 16.78 21 11 C19.02 16.61 17.04 22.22 15 28 C13.02 28 11.04 28 9 28 C7.49500991 23.71006667 5.99685363 19.41777842 4.5 15.125 C4.07074219 13.90167969 3.64148438 12.67835937 3.19921875 11.41796875 C2.79316406 10.25136719 2.38710938 9.08476562 1.96875 7.8828125 C1.59169922 6.80402832 1.21464844 5.72524414 0.82617188 4.61376953 C0 2 0 2 0 0 Z " fill="#CBCACF" transform="translate(420,19)"/>
<path d="M0 0 C4.77923201 2.43647122 7.66932175 5.15936055 10 10 C10.81031875 15.07689504 10.5956419 18.82998912 8.25 23.4375 C4.15521941 28.10100011 1.43747666 29.54101444 -4.73828125 30.08203125 C-8.00687756 29.96348112 -10.28386381 28.74111294 -13 27 C-13 30.96 -13 34.92 -13 39 C-14.98 39 -16.96 39 -19 39 C-19 26.46 -19 13.92 -19 1 C-16 1 -13 1 -10 1 C-6.38069302 -0.20643566 -3.80768995 -0.32268559 0 0 Z M-12 10 C-13.45147903 12.90295805 -13.37239025 14.77261779 -13 18 C-11.08667706 21.49598994 -11.08667706 21.49598994 -8 24 C-4.5 24.91666667 -4.5 24.91666667 -1 24 C1.91963173 22.01216563 3.61102978 20.5685303 4.48046875 17.0625 C4.75815509 13.09984094 4.23092162 11.33588599 1.9375 8 C-3.4888317 4.30547629 -8.00292731 4.77305879 -12 10 Z " fill="#CAC9CF" transform="translate(339,18)"/>
<path d="M0 0 C3.28454558 -0.88956443 5.75165983 -1.10613741 9 0 C12.30730071 4.02415406 14.66129373 8.36082244 17 13 C19.50256175 10.00427094 21.4704075 7.18089508 23.1875 3.6875 C24.4296875 1.60546875 24.4296875 1.60546875 26 0 C29.10436247 -0.68463213 31.87531077 -0.49014733 35 0 C32.87354821 4.62272128 30.56403235 8.59952245 27.54833984 12.70996094 C21.43639895 21.25363809 20.68688036 28.65452711 21 39 C18.69 39 16.38 39 14 39 C14.05542969 37.97003906 14.11085937 36.94007812 14.16796875 35.87890625 C14.37898986 23.59020093 10.36010222 16.4540271 3.18017578 6.73242188 C1.73189831 4.60644402 0.79075057 2.44327721 0 0 Z " fill="#FFFFFF" transform="translate(216,8)"/>
<path d="M0 0 C4.3841011 2.2384923 6.49732254 4.52712387 8.09375 9.31640625 C8.09375 11.62640625 8.09375 13.93640625 8.09375 16.31640625 C1.16375 16.31640625 -5.76625 16.31640625 -12.90625 16.31640625 C-11.13773964 19.4971479 -11.13773964 19.4971479 -8.90625 22.31640625 C-3.54070635 22.89721719 -3.54070635 22.89721719 1.09375 20.81640625 C1.42375 20.32140625 1.75375 19.82640625 2.09375 19.31640625 C3.74375 19.97640625 5.39375 20.63640625 7.09375 21.31640625 C5.6842179 24.72277548 4.36334946 26.55585269 1.09375 28.31640625 C-3.36981233 29.43017133 -6.83153848 29.68140262 -11.21875 28.19140625 C-14.69765662 25.7642621 -17.0100426 23.10882105 -18.90625 19.31640625 C-19.42663648 13.66220697 -19.66407276 8.87947675 -15.90625 4.31640625 C-11.5301043 -0.60675767 -6.50152445 -2.3314893 0 0 Z M-11.90625 7.31640625 C-12.23625 8.63640625 -12.56625 9.95640625 -12.90625 11.31640625 C-7.95625 11.31640625 -3.00625 11.31640625 2.09375 11.31640625 C0.61735997 6.25631986 0.61735997 6.25631986 -2.90625 4.31640625 C-7.20500783 4.31640625 -8.55813866 4.78270037 -11.90625 7.31640625 Z " fill="#CBCACF" transform="translate(370.90625,18.68359375)"/>
<path d="M0 0 C1.98 0 3.96 0 6 0 C6 3.96 6 7.92 6 12 C7.32 11.34 8.64 10.68 10 10 C12.18359375 9.8125 12.18359375 9.8125 14.4375 10 C15.17871094 10.04125 15.91992188 10.0825 16.68359375 10.125 C20.29257848 11.48825899 22.35278486 13.59583788 24 17 C24.58990257 20.81594366 24.4739238 24.52566315 24.3125 28.375 C24.28994141 29.39722656 24.26738281 30.41945313 24.24414062 31.47265625 C24.18548082 33.98329581 24.10345928 36.49087379 24 39 C22.02 39 20.04 39 18 39 C17.67 31.74 17.34 24.48 17 17 C14.36 17 11.72 17 9 17 C6.56085508 19.43914492 6.71337477 20.21446431 6.5859375 23.5703125 C6.54726563 24.46621094 6.50859375 25.36210938 6.46875 26.28515625 C6.4378125 27.22230469 6.406875 28.15945312 6.375 29.125 C6.33632813 30.06988281 6.29765625 31.01476562 6.2578125 31.98828125 C6.16338654 34.32532375 6.07781606 36.66235501 6 39 C4.02 39 2.04 39 0 39 C0 26.13 0 13.26 0 0 Z " fill="#CBCACF" transform="translate(521,8)"/>
<path d="M0 0 C1.98 0 3.96 0 6 0 C6 3.96 6 7.92 6 12 C7.32 11.34 8.64 10.68 10 10 C14.37847613 9.76874246 17.96750131 10.22562599 21.5 12.875 C23.86526974 16.2257988 24.1218073 18.90179535 24.09765625 22.88671875 C24.09443359 23.82451172 24.09121094 24.76230469 24.08789062 25.72851562 C24.07951172 26.70498047 24.07113281 27.68144531 24.0625 28.6875 C24.05798828 29.67556641 24.05347656 30.66363281 24.04882812 31.68164062 C24.03704303 34.12115474 24.02059011 36.56054689 24 39 C22.02 39 20.04 39 18 39 C17.98018066 38.40461426 17.96036133 37.80922852 17.93994141 37.19580078 C17.84483874 34.50507847 17.73510158 31.81514852 17.625 29.125 C17.5940625 28.18785156 17.563125 27.25070313 17.53125 26.28515625 C17.49257813 25.38925781 17.45390625 24.49335937 17.4140625 23.5703125 C17.3826416 22.74289551 17.3512207 21.91547852 17.31884766 21.06298828 C17.17400863 18.78013915 17.17400863 18.78013915 15 17 C12 16.66666667 12 16.66666667 9 17 C6.56085508 19.43914492 6.71337477 20.21446431 6.5859375 23.5703125 C6.54726563 24.46621094 6.50859375 25.36210938 6.46875 26.28515625 C6.4378125 27.22230469 6.406875 28.15945312 6.375 29.125 C6.33632813 30.06988281 6.29765625 31.01476562 6.2578125 31.98828125 C6.16338654 34.32532375 6.07781606 36.66235501 6 39 C4.02 39 2.04 39 0 39 C0 26.13 0 13.26 0 0 Z " fill="#CBCACF" transform="translate(266,8)"/>
<path d="M0 0 C1.98 0 3.96 0 6 0 C6.49371094 1.21558594 6.98742187 2.43117188 7.49609375 3.68359375 C8.14309709 5.2682831 8.7902397 6.85291559 9.4375 8.4375 C9.76298828 9.23994141 10.08847656 10.04238281 10.42382812 10.86914062 C10.73642578 11.63291016 11.04902344 12.39667969 11.37109375 13.18359375 C11.65911865 13.89056396 11.94714355 14.59753418 12.24389648 15.32592773 C12.88053845 16.99832767 12.88053845 16.99832767 14 18 C16.31 12.06 18.62 6.12 21 0 C23.31 0 25.62 0 28 0 C26.41960427 3.98033952 24.8351462 7.9590502 23.25 11.9375 C22.8065625 13.05447266 22.363125 14.17144531 21.90625 15.32226562 C13.81625996 35.60672593 13.81625996 35.60672593 9 39 C6.19533973 39.39693516 3.85473521 39.24192671 1 39 C1 37.35 1 35.7 1 34 C3.31 33.34 5.62 32.68 8 32 C9.9489515 24.98769208 7.4485386 20.19364435 4.5625 13.75 C3.70524308 11.78837199 2.85217436 9.82490676 2.00390625 7.859375 C1.62049072 6.99795898 1.2370752 6.13654297 0.84204102 5.24902344 C0 3 0 3 0 0 Z " fill="#CBCACF" transform="translate(291,19)"/>
<path d="M0 0 C2.64 0 5.28 0 8 0 C8.05834421 4.52077862 8.09371252 9.04145953 8.125 13.5625 C8.14175781 14.83931641 8.15851563 16.11613281 8.17578125 17.43164062 C8.25232561 32.16642908 8.25232561 32.16642908 4.0625 37.4375 C-0.57298119 39.80254143 -4.90506324 39.8847495 -10 39 C-13.25 36.8125 -13.25 36.8125 -15 34 C-14.8125 31.1875 -14.8125 31.1875 -14 29 C-12.35 28.67 -10.7 28.34 -9 28 C-8.34 28.99 -7.68 29.98 -7 31 C-4.45792029 31.33343551 -4.45792029 31.33343551 -2 31 C-0.11368457 29.11368457 -0.75734708 25.85799307 -0.68359375 23.33984375 C-0.66281265 22.67537735 -0.64203156 22.01091095 -0.62062073 21.3263092 C-0.55506342 19.19681457 -0.49621215 17.06719332 -0.4375 14.9375 C-0.39432061 13.49673153 -0.35070651 12.05597601 -0.30664062 10.61523438 C-0.19937607 7.0769596 -0.09812629 3.53854131 0 0 Z " fill="#FFFFFF" transform="translate(82,8)"/>
<path d="M0 0 C4.18935171 1.80903824 5.93445094 3.97761499 8 8 C6.35 8.66 4.7 9.32 3 10 C2.46375 9.34 1.9275 8.68 1.375 8 C-0.89958592 5.68975201 -0.89958592 5.68975201 -4.25 5.75 C-5.1575 5.8325 -6.065 5.915 -7 6 C-6.87216413 7.96006002 -6.87216413 7.96006002 -6 10 C-3.82163969 11.17981952 -3.82163969 11.17981952 -1.1875 11.9375 C3.13885821 13.536641 5.88451662 14.66829594 8 19 C8 22.72089242 7.85187544 24.97774947 5.4375 27.875 C0.35047011 30.22285995 -3.53214087 30.40907549 -8.8125 28.9375 C-12.48292142 26.70645953 -13.50234852 24.96437157 -15 21 C-12.25 20.25 -12.25 20.25 -9 20 C-7.66666667 21.33333333 -6.33333333 22.66666667 -5 24 C-1.80045046 23.85650653 -1.80045046 23.85650653 1 23 C0.92217262 21.04001917 0.92217262 21.04001917 0 19 C-2.47513229 17.744158 -2.47513229 17.744158 -5.4375 16.9375 C-10.79291553 15.3106267 -10.79291553 15.3106267 -13 12 C-13.67092652 5.84984026 -13.67092652 5.84984026 -11.125 2.625 C-7.32227763 -0.28296416 -4.78343732 -0.32430084 0 0 Z " fill="#CBCACF" transform="translate(412,18)"/>
<path d="M0 0 C3.14640024 1.60557049 4.80321818 2.63527333 5.9609375 6.03125 C5.9815625 6.77375 6.0021875 7.51625 6.0234375 8.28125 C3.7109375 8.96875 3.7109375 8.96875 1.0234375 9.28125 C0.3428125 8.5696875 0.3428125 8.5696875 -0.3515625 7.84375 C-2.020155 5.92838985 -2.020155 5.92838985 -5.4140625 5.84375 C-8.95189477 6.01723484 -8.95189477 6.01723484 -11.4140625 7.84375 C-13.55112441 11.17756658 -13.39363637 13.38856057 -12.9765625 17.28125 C-11.95919479 20.04267665 -11.61485509 20.96210371 -8.9765625 22.28125 C-3.83176672 22.81084708 -3.83176672 22.81084708 0.4609375 20.28125 C0.9765625 19.62125 1.4921875 18.96125 2.0234375 18.28125 C3.3434375 18.94125 4.6634375 19.60125 6.0234375 20.28125 C5.71000148 23.20665283 5.01016385 24.29532811 2.9609375 26.46875 C-0.6384258 28.68963374 -3.79654827 29.47991988 -7.9765625 29.28125 C-13.18629995 27.71832876 -16.01075678 25.84402803 -18.9765625 21.28125 C-20.6527565 16.25266801 -20.58298985 11.94094589 -18.7890625 7.03125 C-14.43776247 0.42927754 -7.81085811 -2.84031204 0 0 Z " fill="#CACACF" transform="translate(510.9765625,18.71875)"/>
<path d="M0 0 C1.66611905 -0.042721 3.33382885 -0.04063832 5 0 C6 1 6 1 6.0625 4.0625 C6.041875 5.031875 6.02125 6.00125 6 7 C7.98 7 9.96 7 12 7 C12 8.65 12 10.3 12 12 C10.02 12 8.04 12 6 12 C6.33 17.61 6.66 23.22 7 29 C8.65 29.33 10.3 29.66 12 30 C12 31.65 12 33.3 12 35 C10.14375 35.1546875 10.14375 35.1546875 8.25 35.3125 C7.55390625 35.37050781 6.8578125 35.42851563 6.140625 35.48828125 C4 35 4 35 1.75 33.0625 C-0.66085687 28.84350048 -0.44546699 25.45012841 -0.25 20.6875 C-0.23195313 19.85154297 -0.21390625 19.01558594 -0.1953125 18.15429688 C-0.14841126 16.10236772 -0.07667411 14.05103244 0 12 C-1.65 12 -3.3 12 -5 12 C-5 10.35 -5 8.7 -5 7 C-4.0409375 6.6596875 -4.0409375 6.6596875 -3.0625 6.3125 C-0.72806339 5.14749104 -0.72806339 5.14749104 -0.25 2.375 C-0.1675 1.59125 -0.085 0.8075 0 0 Z " fill="#CBCACF" transform="translate(477,12)"/>
<path d="M0 0 C0 1.98 0 3.96 0 6 C-1.134375 6.268125 -2.26875 6.53625 -3.4375 6.8125 C-5.2009375 7.4003125 -5.2009375 7.4003125 -7 8 C-7.88639389 10.65918166 -8.17989025 12.48064641 -8.31640625 15.23046875 C-8.35830078 16.03291016 -8.40019531 16.83535156 -8.44335938 17.66210938 C-8.48267578 18.49548828 -8.52199219 19.32886719 -8.5625 20.1875 C-8.60568359 21.03248047 -8.64886719 21.87746094 -8.69335938 22.74804688 C-8.79931518 24.83184433 -8.9001502 26.91590103 -9 29 C-10.65 29 -12.3 29 -14 29 C-14 19.76 -14 10.52 -14 1 C-11.66666667 1 -9.33333333 1 -7 1 C-6.360625 0.835 -5.72125 0.67 -5.0625 0.5 C-3 0 -3 0 0 0 Z " fill="#CBCACF" transform="translate(397,18)"/>
<path d="M0 0 C1.65 0 3.3 0 5 0 C5 9.24 5 18.48 5 28 C3.35 28 1.7 28 0 28 C0 18.76 0 9.52 0 0 Z " fill="#CACACF" transform="translate(464,19)"/>
<path d="M0 0 C1.65 0 3.3 0 5 0 C5 2.31 5 4.62 5 7 C3.35 7 1.7 7 0 7 C0 4.69 0 2.38 0 0 Z " fill="#CBCACF" transform="translate(464,8)"/>
</svg>
