<svg width="730" height="218" viewBox="0 0 730 218" fill="none" xmlns="http://www.w3.org/2000/svg">
<path fill-rule="evenodd" clip-rule="evenodd" d="M108.765 179.394C105.392 179.488 102.113 179.206 98.7401 178.737C89.6519 177.423 81.1258 174.513 73.2555 169.726C55.8286 159.214 44.679 143.915 40.0881 123.829C39.0574 119.324 38.589 114.725 38.589 110.125C38.4953 91.729 44.4917 75.5851 56.6718 61.8816C67.2591 50.0553 80.3762 42.8281 95.8356 39.8246C100.146 38.9799 104.455 38.5106 108.765 38.6983C108.765 45.7378 108.765 52.6834 108.765 59.7229C108.578 59.8167 108.391 59.9106 108.203 60.0983C105.673 61.8816 103.144 63.7588 100.708 65.7299C95.1798 70.2351 89.9329 75.022 85.5294 80.7474C79.6267 88.35 75.6915 96.7036 75.1294 106.559C74.8483 111.252 75.4105 115.851 76.9096 120.262C80.5636 131.244 91.9005 142.601 107.828 142.882C108.765 142.882 108.953 143.07 108.953 144.103C108.859 148.889 108.859 158.463 108.859 158.463C108.859 158.463 108.859 159.026 108.859 159.308C108.765 165.972 108.765 172.636 108.765 179.394Z" fill="#2B8EFF"/>
<path fill-rule="evenodd" clip-rule="evenodd" d="M108.764 59.6278C108.764 59.6278 108.764 45.6427 108.764 38.6032C112.605 38.5094 116.353 38.8848 120.101 39.448C127.128 40.5743 133.874 42.6392 140.245 45.9243C153.456 52.776 163.856 62.5374 170.883 75.8655C174.911 83.562 177.535 91.7278 178.565 100.269C179.784 110.312 178.847 120.261 175.848 129.929C172.382 140.91 166.573 150.578 158.421 158.744C148.49 168.599 136.685 174.981 123.005 177.891C118.321 178.829 113.542 179.393 108.764 179.299C108.764 172.541 108.764 165.877 108.764 159.119C108.764 158.837 108.764 158.368 108.764 158.368C108.764 158.368 109.045 158.18 109.139 158.087C116.447 152.924 123.38 147.293 129.376 140.535C133.312 136.123 136.685 131.43 139.027 125.987C142.306 118.29 143.618 110.406 141.931 102.052C138.933 86.8471 125.348 75.4901 109.701 75.1146C108.67 75.1146 108.764 74.2699 108.764 74.2699V59.6278Z" fill="#0561E2"/>
<path d="M213.044 160.521V96.7011H222.571V123.848L221.053 122.668C222.177 119.801 223.976 117.637 226.449 116.176C228.922 114.659 231.788 113.9 235.048 113.9C238.42 113.9 241.399 114.63 243.984 116.092C246.57 117.553 248.593 119.576 250.055 122.162C251.516 124.747 252.247 127.698 252.247 131.014V160.521H242.804V133.628C242.804 131.323 242.355 129.384 241.455 127.81C240.612 126.18 239.432 124.944 237.914 124.101C236.397 123.202 234.655 122.752 232.687 122.752C230.776 122.752 229.034 123.202 227.46 124.101C225.943 124.944 224.734 126.18 223.835 127.81C222.992 129.44 222.571 131.379 222.571 133.628V160.521H213.044ZM263.98 179.069C262.856 179.069 261.732 178.957 260.607 178.732C259.54 178.563 258.556 178.282 257.657 177.889V169.711C258.331 169.88 259.146 170.02 260.102 170.132C261.057 170.301 261.984 170.385 262.884 170.385C265.525 170.385 267.464 169.795 268.701 168.615C269.994 167.491 271.146 165.749 272.157 163.388L275.193 156.475L275.024 164.484L255.296 114.911H265.497L280.082 152.934H276.626L291.127 114.911H301.412L281.263 165.496C280.195 168.193 278.846 170.554 277.216 172.577C275.642 174.657 273.759 176.259 271.567 177.383C269.432 178.507 266.902 179.069 263.98 179.069ZM306.246 177.383V114.911H315.351V124.354L314.255 122.162C315.941 119.576 318.189 117.553 321 116.092C323.81 114.63 327.013 113.9 330.61 113.9C334.938 113.9 338.816 114.94 342.245 117.019C345.73 119.099 348.455 121.937 350.423 125.534C352.446 129.131 353.458 133.178 353.458 137.674C353.458 142.171 352.446 146.217 350.423 149.815C348.455 153.412 345.758 156.278 342.329 158.414C338.901 160.493 334.994 161.533 330.61 161.533C327.07 161.533 323.838 160.803 320.915 159.341C318.049 157.88 315.829 155.772 314.255 153.018L315.772 151.248V177.383H306.246ZM329.683 152.681C332.381 152.681 334.77 152.035 336.849 150.742C338.929 149.449 340.559 147.679 341.739 145.431C342.976 143.126 343.594 140.541 343.594 137.674C343.594 134.808 342.976 132.251 341.739 130.002C340.559 127.754 338.929 125.984 336.849 124.691C334.77 123.398 332.381 122.752 329.683 122.752C327.041 122.752 324.653 123.398 322.517 124.691C320.437 125.984 318.779 127.754 317.543 130.002C316.363 132.251 315.772 134.808 315.772 137.674C315.772 140.541 316.363 143.126 317.543 145.431C318.779 147.679 320.437 149.449 322.517 150.742C324.653 152.035 327.041 152.681 329.683 152.681ZM382.453 161.533C377.9 161.533 373.853 160.493 370.312 158.414C366.828 156.278 364.102 153.412 362.135 149.815C360.168 146.161 359.184 142.086 359.184 137.59C359.184 132.981 360.168 128.906 362.135 125.365C364.158 121.825 366.856 119.042 370.228 117.019C373.6 114.94 377.422 113.9 381.694 113.9C385.122 113.9 388.186 114.49 390.883 115.67C393.581 116.85 395.857 118.48 397.712 120.56C399.567 122.583 400.972 124.916 401.928 127.557C402.939 130.199 403.445 133.009 403.445 135.988C403.445 136.719 403.417 137.478 403.361 138.264C403.305 139.051 403.192 139.782 403.024 140.456H366.687V132.869H397.628L393.075 136.325C393.637 133.571 393.441 131.126 392.485 128.991C391.586 126.799 390.181 125.084 388.27 123.848C386.415 122.555 384.223 121.909 381.694 121.909C379.165 121.909 376.917 122.555 374.949 123.848C372.982 125.084 371.465 126.883 370.397 129.244C369.329 131.548 368.907 134.358 369.132 137.674C368.851 140.766 369.273 143.463 370.397 145.768C371.577 148.072 373.207 149.871 375.287 151.163C377.422 152.456 379.839 153.102 382.537 153.102C385.291 153.102 387.623 152.484 389.534 151.248C391.502 150.011 393.047 148.409 394.171 146.442L401.928 150.236C401.028 152.372 399.623 154.311 397.712 156.053C395.857 157.739 393.609 159.088 390.968 160.1C388.382 161.055 385.544 161.533 382.453 161.533ZM411.056 160.521V114.911H420.162V124.101L419.318 122.752C420.33 119.773 421.96 117.637 424.208 116.345C426.456 114.996 429.154 114.321 432.302 114.321H435.084V123.005H431.121C427.974 123.005 425.417 123.988 423.45 125.956C421.539 127.867 420.583 130.621 420.583 134.218V160.521H411.056ZM456.776 161.533C452.111 161.533 448.009 160.381 444.468 158.077C440.983 155.772 438.538 152.681 437.133 148.803L444.468 145.346C445.704 147.932 447.39 149.983 449.526 151.501C451.718 153.018 454.135 153.777 456.776 153.777C459.025 153.777 460.851 153.271 462.256 152.259C463.662 151.248 464.364 149.871 464.364 148.128C464.364 147.004 464.055 146.105 463.437 145.431C462.818 144.7 462.032 144.11 461.076 143.66C460.177 143.21 459.249 142.873 458.294 142.648L451.128 140.625C447.194 139.501 444.243 137.815 442.276 135.567C440.365 133.262 439.409 130.593 439.409 127.557C439.409 124.803 440.112 122.415 441.517 120.391C442.922 118.312 444.861 116.71 447.334 115.586C449.807 114.462 452.589 113.9 455.68 113.9C459.84 113.9 463.549 114.94 466.809 117.019C470.069 119.042 472.373 121.881 473.722 125.534L466.387 128.991C465.488 126.799 464.055 125.056 462.088 123.764C460.177 122.471 458.013 121.825 455.596 121.825C453.517 121.825 451.859 122.33 450.622 123.342C449.386 124.298 448.767 125.562 448.767 127.136C448.767 128.204 449.048 129.103 449.61 129.834C450.172 130.508 450.903 131.07 451.802 131.52C452.702 131.913 453.629 132.251 454.584 132.532L462.003 134.724C465.769 135.791 468.664 137.478 470.687 139.782C472.71 142.03 473.722 144.728 473.722 147.875C473.722 150.573 472.991 152.962 471.53 155.042C470.125 157.065 468.158 158.667 465.629 159.847C463.099 160.971 460.149 161.533 456.776 161.533ZM491.591 160.521L475.91 114.911H486.027L497.999 151.248H494.458L506.682 114.911H515.366L527.506 151.248H523.965L536.021 114.911H546.138L530.372 160.521H521.773L509.464 123.342H512.584L500.275 160.521H491.591ZM550.983 160.521V114.911H560.51V160.521H550.983ZM550.983 108.673V97.7128H560.51V108.673H550.983ZM589.69 161.027C584.912 161.027 581.203 159.678 578.561 156.981C575.919 154.283 574.599 150.489 574.599 145.599V123.511H566.59V114.911H567.854C569.99 114.911 571.648 114.293 572.828 113.057C574.009 111.82 574.599 110.134 574.599 107.998V104.457H584.125V114.911H594.495V123.511H584.125V145.178C584.125 146.751 584.378 148.1 584.884 149.224C585.39 150.292 586.205 151.135 587.329 151.754C588.453 152.316 589.914 152.597 591.713 152.597C592.163 152.597 592.668 152.569 593.23 152.512C593.793 152.456 594.326 152.4 594.832 152.344V160.521C594.045 160.634 593.174 160.746 592.219 160.859C591.263 160.971 590.42 161.027 589.69 161.027ZM623.287 161.533C618.734 161.533 614.687 160.493 611.146 158.414C607.662 156.278 604.88 153.412 602.8 149.815C600.777 146.217 599.765 142.143 599.765 137.59C599.765 133.094 600.777 129.047 602.8 125.45C604.823 121.853 607.606 119.042 611.146 117.019C614.687 114.94 618.734 113.9 623.287 113.9C626.378 113.9 629.272 114.462 631.97 115.586C634.668 116.654 637.001 118.143 638.968 120.054C640.991 121.965 642.48 124.185 643.436 126.714L635.09 130.593C634.134 128.232 632.588 126.349 630.453 124.944C628.373 123.483 625.984 122.752 623.287 122.752C620.701 122.752 618.369 123.398 616.289 124.691C614.266 125.928 612.664 127.698 611.484 130.002C610.303 132.251 609.713 134.808 609.713 137.674C609.713 140.541 610.303 143.126 611.484 145.431C612.664 147.679 614.266 149.449 616.289 150.742C618.369 152.035 620.701 152.681 623.287 152.681C626.041 152.681 628.429 151.978 630.453 150.573C632.532 149.112 634.078 147.173 635.09 144.756L643.436 148.719C642.537 151.135 641.075 153.327 639.052 155.294C637.085 157.205 634.752 158.723 632.055 159.847C629.357 160.971 626.434 161.533 623.287 161.533ZM651.061 160.521V96.7011H660.588V123.848L659.07 122.668C660.194 119.801 661.993 117.637 664.466 116.176C666.939 114.659 669.805 113.9 673.065 113.9C676.437 113.9 679.416 114.63 682.002 116.092C684.587 117.553 686.611 119.576 688.072 122.162C689.533 124.747 690.264 127.698 690.264 131.014V160.521H680.821V133.628C680.821 131.323 680.372 129.384 679.473 127.81C678.629 126.18 677.449 124.944 675.932 124.101C674.414 123.202 672.672 122.752 670.705 122.752C668.794 122.752 667.051 123.202 665.478 124.101C663.96 124.944 662.752 126.18 661.852 127.81C661.009 129.44 660.588 131.379 660.588 133.628V160.521H651.061Z" fill="#1C1C1C"/>
<path d="M233.604 69.0982C233.604 70.6426 233.35 72.1134 232.88 73.5475C232.409 74.9815 231.649 76.2317 230.709 77.3348C229.732 78.438 228.537 79.2837 227.09 79.9456C225.642 80.5707 223.942 80.9016 222.06 80.9016C219.02 80.9016 216.523 80.1662 214.605 78.7321C212.651 77.2981 211.385 75.0183 210.77 71.8928L217.175 70.3484C217.392 71.6354 217.898 72.665 218.731 73.4372C219.527 74.2093 220.54 74.5771 221.734 74.5771C223.688 74.5771 225.027 73.9152 225.715 72.5547C226.402 71.2309 226.764 69.3556 226.764 67.0023V40.8584H233.604V69.0982V69.0982Z" fill="#2B8EFF"/>
<path d="M271.307 65.5683C271.307 67.9216 270.909 70.0543 270.113 71.9296C269.317 73.8416 268.231 75.4228 266.856 76.7465C265.481 78.0703 263.853 79.0998 261.971 79.7985C260.089 80.5339 258.026 80.8648 255.819 80.8648C253.612 80.8648 251.549 80.4971 249.703 79.7985C247.822 79.0998 246.193 78.0703 244.782 76.7465C243.371 75.4228 242.285 73.8049 241.525 71.9296C240.729 70.0543 240.367 67.9216 240.367 65.5683V40.8584H247.207V65.3476C247.207 66.3037 247.351 67.2965 247.641 68.3628C247.93 69.3924 248.401 70.3852 249.088 71.2677C249.74 72.1502 250.644 72.8856 251.766 73.4372C252.852 74.0255 254.227 74.2829 255.855 74.2829C257.484 74.2829 258.859 73.9887 259.944 73.4372C261.03 72.8856 261.935 72.1502 262.622 71.2677C263.274 70.3852 263.78 69.4292 264.07 68.3628C264.359 67.2965 264.504 66.3037 264.504 65.3476V40.8584H271.343V65.5683H271.307Z" fill="#2B8EFF"/>
<path d="M297.217 49.2408C296.493 48.1744 295.516 47.4022 294.322 46.8874C293.091 46.3727 291.825 46.152 290.486 46.152C289.69 46.152 288.93 46.2623 288.17 46.4462C287.41 46.63 286.759 46.9242 286.18 47.3287C285.564 47.7332 285.094 48.248 284.732 48.9098C284.37 49.5717 284.189 50.3071 284.189 51.1896C284.189 52.5133 284.624 53.5429 285.564 54.2048C286.469 54.9034 287.591 55.5285 288.93 56.0066C290.269 56.5213 291.716 57.0361 293.308 57.5141C294.901 57.9922 296.348 58.654 297.723 59.4998C299.062 60.3455 300.184 61.4854 301.089 62.8459C301.993 64.2432 302.464 66.1185 302.464 68.3982C302.464 70.4942 302.102 72.3327 301.342 73.8771C300.582 75.4582 299.569 76.7452 298.266 77.7748C296.963 78.8043 295.48 79.5765 293.779 80.0913C292.078 80.6061 290.269 80.8635 288.423 80.8635C286.035 80.8635 283.719 80.459 281.548 79.65C279.34 78.8411 277.422 77.4806 275.83 75.5685L281.005 70.4942C281.837 71.7811 282.923 72.7739 284.298 73.5094C285.673 74.2448 287.084 74.5757 288.604 74.5757C289.4 74.5757 290.196 74.4654 290.992 74.2448C291.789 74.0241 292.512 73.6932 293.164 73.252C293.815 72.8107 294.322 72.2592 294.72 71.5605C295.118 70.8986 295.335 70.0897 295.335 69.2072C295.335 67.7731 294.864 66.67 293.96 65.8978C293.055 65.1257 291.933 64.4638 290.594 63.949C289.255 63.4342 287.772 62.9194 286.18 62.4414C284.587 61.9634 283.104 61.3015 281.801 60.4926C280.462 59.6836 279.34 58.5805 278.436 57.1832C277.531 55.7859 277.06 53.9474 277.06 51.6309C277.06 49.6085 277.458 47.8802 278.291 46.4094C279.087 44.9386 280.173 43.7252 281.511 42.7324C282.814 41.7763 284.334 41.0409 286.035 40.5629C287.736 40.0849 289.473 39.8643 291.246 39.8643C293.272 39.8643 295.226 40.1952 297.144 40.7835C299.026 41.4086 300.763 42.4382 302.283 43.8723L297.217 49.2408Z" fill="#2B8EFF"/>
<path d="M308.185 40.8584H321.103C322.949 40.8584 324.722 41.0423 326.459 41.41C328.16 41.7777 329.68 42.4028 330.982 43.2485C332.285 44.131 333.335 45.2709 334.095 46.7049C334.854 48.1758 335.253 49.9775 335.253 52.147C335.253 54.6106 334.818 56.5962 333.986 58.1038C333.154 59.6114 332.032 60.7881 330.621 61.597C329.209 62.406 327.581 62.9943 325.699 63.2885C323.817 63.5826 321.899 63.7297 319.873 63.7297H314.988V79.9088H308.148V40.8584H308.185ZM319.149 57.8097C320.126 57.8097 321.14 57.7729 322.189 57.6993C323.238 57.6258 324.215 57.4052 325.084 57.0375C325.952 56.6698 326.676 56.1182 327.255 55.3828C327.798 54.6474 328.087 53.6178 328.087 52.2941C328.087 51.0806 327.834 50.1246 327.328 49.3892C326.821 48.6538 326.17 48.1022 325.373 47.7345C324.577 47.33 323.673 47.1094 322.696 46.9991C321.719 46.8888 320.778 46.8152 319.873 46.8152H314.988V57.8097H319.149Z" fill="#2B8EFF"/>
<path d="M348.39 40.8574H354.289L370.862 79.9078H363.046L359.464 70.9726H342.817L339.344 79.9078H331.672L348.39 40.8574ZM357.075 65.0157L351.14 49.1308L345.133 65.0157H357.075Z" fill="#2B8EFF"/>
<path d="M379.183 63.214L364.744 40.8574H373.32L382.765 56.4114L392.319 40.8574H400.461L386.022 63.214V79.9446H379.183V63.214V63.214Z" fill="#2B8EFF"/>
</svg>
